<svg width="57.855" height="57.855" xmlns="http://www.w3.org/2000/svg"><g style="fill:none;fill-rule:evenodd;stroke:none;stroke-width:1"><path d="M28.927 0C20.106 0 9.465 2.074.705 6.64c0 9.862-.121 34.429 28.222 51.215C57.27 41.069 57.15 16.502 57.15 6.64 48.39 2.074 37.75 0 28.927 0z" fill="#68bc71"/><path d="M28.898 57.838C.584 41.052.705 16.498.705 6.64 9.455 2.08 20.082.005 28.898 0v57.838z" fill="#67b279"/><path d="M27.897 38.603 44.964 15.6c-1.25-1.002-2.348-.295-2.952.253l-.022.002-14.23 14.803-5.361-6.452c-2.558-2.956-6.035-.701-6.847-.106l12.345 14.502" fill="#fff"/></g></svg>