<svg width="546.593" height="546.593" xmlns="http://www.w3.org/2000/svg"><path style="fill:#fff;fill-rule:evenodd;stroke-width:1.0087;fill-opacity:1" d="M69.347 108.3h429v422.253h-429z" transform="translate(-9.157 -5.914)"/><path style="fill:#040404;stroke:none" d="M63.347 112.3v313c0 27.034.325 54.038.985 81 .165 6.731-3.201 24.038 1.043 29.397 3.135 3.958 17.302 1.603 21.972 1.603 20.632 0 41.304 1 62 1h257c23.367 0 46.694-1 70-1 5.492 0 20.436 2.608 24.012-2.318 5.116-7.05 1.893-23.379 1.992-31.682.32-26.943.996-53.98.996-81v-310c11.966 0 24.046.484 36-.039 3.9-.17 10.638-.219 13.397-3.395 3.055-3.517 2.476-13.994 2.588-18.566.406-16.546.7-33.465-.024-50-.217-4.947.757-18.037-5.07-19.682-11.247-3.175-27.191-.318-38.891-.318h-361c-32.668 0-65.413 1-98 1-9.408 0-30.732-4.01-38.721 1.028C8.873 25.324 9.372 36.353 9.348 41.3c-.08 16.644-.394 33.361.014 50 .114 4.67-.375 15.03 3.419 18.258 3.222 2.742 10.517 2.628 14.566 2.727 11.985.294 24.011.015 36 .015m429 1v414h-390c-6.41 0-23.29 3.017-28.397-1.028-3.754-2.973-1.603-15.59-1.603-19.972v-371c0-4.462-2.35-19.099 2.318-21.397 7.929-3.9 24.849-.603 33.682-.603h384M188.572 250.328c-7.457 4.493-4.225 22.636-4.225 29.972v79c0 7.331-2.972 23.18 3.394 28.397 3.175 2.602 8.788 1.603 12.606 1.603h165c3.461 0 8.585.904 11.656-1.028 6.635-4.173 3.344-23.126 3.344-29.972v-79c0-6.886 2.886-22.478-2.318-27.682-3.19-3.19-8.582-2.318-12.682-2.318h-164c-3.775 0-9.404-1.004-12.775 1.028m7.775 10.972h26c2.617.001 7.109-.75 8.972 1.603 3.823 4.828 1.028 20.363 1.028 26.397v64c0 5.892 2.395 18.594-1.028 23.566-3.588 5.213-20.304 2.472-25.972 2.433-2.725-.019-6.245.272-7.972-2.317-4.421-6.624-1.028-24.797-1.028-32.682v-83M168.92 446.328c-4.812 3.383-1.147 8.507 3.432 8.913 11.805 1.048 24.14.06 35.995.06h174c3.861 0 11.41 1.412 14.396-1.604 4.385-4.43-1.28-8.198-5.397-8.378-13.278-.578-26.707-.019-39.999-.019h-169c-3.723 0-10.222-1.226-13.427 1.028M65.347 538.3v1h3z" transform="translate(-9.157 -5.914)"/></svg>