<svg width="354.133" height="347.733" xmlns:xlink="http://www.w3.org/1999/xlink" xmlns="http://www.w3.org/2000/svg"><defs><linearGradient id="a"><stop style="stop-color:#3f51b4;stop-opacity:1" offset="0"/><stop style="stop-color:#113155;stop-opacity:1" offset="1"/></linearGradient><linearGradient xlink:href="#a" id="b" x1=".933" y1="173.743" x2="353.039" y2="173.743" gradientUnits="userSpaceOnUse"/></defs><path style="fill:url(#b);fill-opacity:1;stroke-width:1.06667" d="M187.75 346.695c-7.074-1.766-10.375-8.723-7.319-15.43 1.838-4.035 5.322-5.81 13.746-7.005 38.043-5.395 65.485-18.63 90.663-43.724 21.482-21.41 35.518-47.3 42.247-77.925 1.543-7.025 1.98-13.478 1.978-29.278 0-21.923-1.914-34.422-7.567-49.44-3.542-9.41-3.354-12.383 1.062-16.8 4.692-4.692 10.544-5.028 15.465-.888 5.43 4.57 11.473 26.1 14.05 50.062 8.55 79.454-40.534 155.797-117.488 182.739-16.734 5.858-39.318 9.566-46.837 7.689zm-24.017-41.634c-23.958-2.149-46.818-11.102-66.978-26.233-44.845-33.656-63.31-96.382-44.34-150.63 10.45-29.883 33.052-56.168 61.077-71.027 6.922-3.67 11.413-3.6 15.718.246 2.809 2.51 3.395 3.836 3.483 7.888.13 5.893-1.576 8.058-10.437 13.251-13.006 7.623-26.793 20.222-34.693 31.704-5.533 8.041-12.616 23.1-15.619 33.207-3.494 11.76-4.685 32.652-2.653 46.55 6.337 43.342 37.251 77.427 80.89 89.186 9.01 2.429 12.495 2.796 26.886 2.836 14.815.041 17.642-.259 27.2-2.884 30.228-8.302 54.096-27.321 69.752-55.582 3.078-5.556 6.357-10.733 7.286-11.504.93-.771 3.977-1.402 6.773-1.402 6.127 0 10.189 3.183 11.244 8.81.574 3.059-.228 5.514-4.811 14.735-12.95 26.05-31.919 44.318-60.378 58.144-14.596 7.091-28.374 11.029-44.32 12.665-11.679 1.198-13.143 1.2-26.08.04zm-111.688-7.55c-7.975-5.953-24.214-28.483-32.62-45.259-12.829-25.6-18.4-50.095-18.492-81.292-.152-51.844 27.415-105.946 70.162-137.7C99.782 11.952 138.894-1.867 163.587.582c8.665.86 11.346 2.877 11.346 8.539 0 5.101-2.46 9.53-6.083 10.947-1.64.643-8.783 2.127-15.872 3.298-29.849 4.931-55.202 16.8-78.311 36.662-23.133 19.88-41.407 51.452-48.154 83.19-3.093 14.551-3.375 42.476-.573 56.783 5.745 29.336 18.168 54.702 37.667 76.914 6.501 7.405 7.8 11.377 5.303 16.207-3.447 6.665-11.135 8.666-16.865 4.39zm107.407-37.744c-42.011-9.148-71.74-47.728-69.479-90.167 1.76-33.044 19.903-60.563 49.227-74.665 14.315-6.884 23.548-8.997 38.933-8.91 39.895.224 73.382 25.97 84.43 64.908 1.947 6.864 2.425 11.248 2.442 22.4.026 16.964-1.706 24.45-9.203 39.788-11.481 23.484-34.347 41.141-60.44 46.672-8.764 1.857-27.323 1.844-35.91-.026zm32.256-30.044c5.715-2.722 9.266-6.525 10.382-11.121.376-1.546-2.135-14.023-6.183-30.736l-6.816-28.134 4.288-3.866c10.79-9.728 11.099-24.398.726-34.461-9.637-9.35-22.554-9.777-32.214-1.067-8.591 7.746-10.642 18.526-5.49 28.864 1.637 3.284 4.288 6.587 6.376 7.943 2.15 1.396 3.386 2.96 3.1 3.922-2.238 7.54-13.344 54.124-13.344 55.973 0 3.656 4.4 9.36 9.311 12.071 9.11 5.03 20.116 5.255 29.864.612zM288.118 156c-1.905-1.915-3.952-6.265-5.899-12.533-9.659-31.106-27.656-52.878-55.822-67.532-10.085-5.247-11.997-7.454-11.997-13.854 0-6.492 4.327-10.881 10.727-10.881 13.603 0 46.368 25.01 60.727 46.355 11.058 16.437 20.256 38.721 20.638 49.997.155 4.575-.215 5.5-3.309 8.267-4.774 4.268-10.926 4.342-15.065.181z"/></svg>