<svg width="736.823" height="736.823" xmlns="http://www.w3.org/2000/svg"><g transform="translate(-125.588 -158.177)" style="fill:none;fill-rule:evenodd;stroke:none;stroke-width:1"><path fill="#d0011b" d="m242.84 612.861 55.595-296.133h391.109l55.633 296.133z"/><ellipse fill="#d0011b" cx="494" cy="649.726" rx="254" ry="245.274"/><ellipse fill="#d0011b" cx="494" cy="358.4" rx="200" ry="200.224"/><path d="M243.164 688.55C262.434 805.563 367.401 895 494 895c126.599 0 231.565-89.437 250.836-206.45-3.593.146-7.206.22-10.836.22-111.076 0-205.499-68.85-240-164.765C459.499 619.92 365.076 688.77 254 688.77c-3.63 0-7.243-.074-10.836-.22z" fill="#4a4a4a"/><path d="M497 526.588c85.604 0 155-69.473 155-155.173s-69.396-155.173-155-155.173-155 69.473-155 155.173 69.396 155.173 155 155.173z" fill="#fff"/><g fill="#4a4a4a"><path d="M485.35 216.673c-58.745 4.37-108.374 41.52-130.7 93.242 58.745-4.37 108.374-41.52 130.7-93.242z"/><path d="M636.694 304.096C611.652 252.11 558.51 216.242 497 216.242c-15.172 0-29.836 2.182-43.694 6.25 25.042 51.985 78.184 87.855 139.694 87.855 15.172 0 29.836-2.183 43.694-6.251z"/></g><path d="M470.702 387.066c-5.146-22.163-24.998-38.677-48.702-38.677-23.704 0-43.556 16.514-48.702 38.677 13.188-9.146 30.17-14.65 48.702-14.65 18.531 0 35.514 5.504 48.702 14.65zm144 0c-5.146-22.163-24.998-38.677-48.702-38.677-23.704 0-43.556 16.514-48.702 38.677 13.188-9.146 30.17-14.65 48.702-14.65 18.531 0 35.514 5.504 48.702 14.65zM494 486.544c-20.987 0-38-10.077-38-22.507 0-12.43 17.013 0 38 0s38-12.43 38 0-17.013 22.507-38 22.507z" fill="#000"/><path d="M407 448.501c13.255 0 24-10.757 24-24.027 0-13.27-10.745-24.027-24-24.027s-24 10.758-24 24.027c0 13.27 10.745 24.027 24 24.027zm173 0c13.255 0 24-10.757 24-24.027 0-13.27-10.745-24.027-24-24.027s-24 10.758-24 24.027c0 13.27 10.745 24.027 24 24.027z" fill="#d0011b"/></g></svg>