<svg width="109.214" height="109.214" xmlns="http://www.w3.org/2000/svg"><g fill="none" fill-rule="evenodd"><path class="center-c" fill="#8c1c59" d="M52.7 65.907c-6.3 0-11.4-5.1-11.4-11.4 0-6.3 5.1-11.4 11.4-11.4 6.3 0 11.4 5.1 11.4 11.4 0 6.3-5.1 11.4-11.4 11.4"/><path class="circles" fill="#c62a71" d="M74.9 59.807c-2.9 0-5.3-2.3-5.3-5.3 0-2.9 2.3-5.3 5.3-5.3 2.9 0 5.3 2.3 5.3 5.3 0 2.9-2.4 5.3-5.3 5.3m19.2 4.9c-.7 2.8-3.6 4.5-6.4 3.8-2.8-.7-4.5-3.6-3.8-6.4.7-2.8 3.6-4.5 6.4-3.8 2.7.7 4.4 3.3 3.9 6 0 .2 0 .3-.1.4m-3.7-13.5c-2.8.7-5.7-1.1-6.3-3.9-.6-2.8 1.1-5.7 3.9-6.3 2.8-.7 5.7 1.1 6.3 3.9.1.7.2 1.4.1 2.1-.3 2-1.8 3.7-4 4.2m18.7 13c-.5 2.9-3.2 4.8-6.1 4.3-2.9-.5-4.8-3.2-4.3-6.1.5-2.9 3.2-4.8 6.1-4.3 2.7.5 4.6 2.9 4.4 5.6 0 .1-.1.3-.1.5m-4.3-13.2c-2.9.5-5.6-1.5-6-4.3-.5-2.9 1.5-5.6 4.3-6 2.9-.5 5.6 1.5 6 4.3.1.5.1.9.1 1.4-.2 2.2-2 4.2-4.4 4.6m-3.6 31.4c-1.5 2.5-4.6 3.4-7.2 2-2.5-1.5-3.4-4.6-2-7.2 1.5-2.5 4.6-3.4 7.2-2 1.8 1 2.8 3 2.6 5 0 .8-.2 1.5-.6 2.2m-1.9-48.4c-2.5 1.4-5.7.5-7.2-2-1.4-2.5-.5-5.7 2-7.2 2.5-1.4 5.7-.5 7.2 2 .6 1 .8 2 .6 3-.1 1.8-1.1 3.4-2.6 4.2"/><path class="c" fill="#c62a71" fill-rule="nonzero" d="M52.9 107.507c-14.2 0-27.4-5.5-37.4-15.5S0 68.707 0 54.607c0-14.1 5.5-27.4 15.5-37.4s23.3-15.5 37.4-15.5c11.7 0 22.8 3.8 32.1 10.9l-6.5 8.4c-7.4-5.7-16.3-8.7-25.6-8.7-11.3 0-21.9 4.4-29.9 12.4s-12.3 18.6-12.3 29.9c0 11.3 4.4 21.9 12.4 29.9s18.6 12.3 29.9 12.3c9.4 0 18.2-3 25.6-8.7l6.5 8.4c-9.4 7.3-20.5 11-32.2 11z"/></g></svg>