<svg width="512" height="512" xmlns="http://www.w3.org/2000/svg"><defs><filter style="color-interpolation-filters:sRGB" id="b" x="-.09" y="-.084" width="1.179" height="1.173"><feFlood flood-opacity=".498" flood-color="#000" result="flood"/><feComposite in="flood" in2="SourceGraphic" operator="in" result="composite1"/><feGaussianBlur in="composite1" stdDeviation="5" result="blur"/><feOffset dy=".7" result="offset"/><feComposite in="SourceGraphic" in2="offset" result="composite2"/></filter><filter style="color-interpolation-filters:sRGB" id="a" x="-.114" y="-.076" width="1.228" height="1.156"><feFlood flood-opacity=".498" flood-color="#000" result="flood"/><feComposite in="flood" in2="SourceGraphic" operator="in" result="composite1"/><feGaussianBlur in="composite1" stdDeviation="5" result="blur"/><feOffset dy=".7" result="offset"/><feComposite in="SourceGraphic" in2="offset" result="composite2"/></filter><filter style="color-interpolation-filters:sRGB" id="f" x="-.037" y="-.042" width="1.073" height="1.086"><feFlood flood-opacity=".498" flood-color="#000" result="flood"/><feComposite in="flood" in2="SourceGraphic" operator="in" result="composite1"/><feGaussianBlur in="composite1" stdDeviation="5" result="blur"/><feOffset dy=".7" result="offset"/><feComposite in="SourceGraphic" in2="offset" result="composite2"/></filter><filter style="color-interpolation-filters:sRGB" id="c" x="-.06" y="-.06" width="1.12" height="1.123"><feFlood flood-opacity=".498" flood-color="#000" result="flood"/><feComposite in="flood" in2="SourceGraphic" operator="in" result="composite1"/><feGaussianBlur in="composite1" stdDeviation="5" result="blur"/><feOffset dy=".7" result="offset"/><feComposite in="SourceGraphic" in2="offset" result="composite2"/></filter><filter style="color-interpolation-filters:sRGB" id="d" x="-.019" y="-.109" width="1.039" height="1.234"><feFlood flood-opacity=".498" flood-color="#000" result="flood"/><feComposite in="flood" in2="SourceGraphic" operator="in" result="composite1"/><feGaussianBlur in="composite1" stdDeviation="2" result="blur"/><feOffset dy=".7" result="offset"/><feComposite in="SourceGraphic" in2="offset" result="composite2"/></filter><filter style="color-interpolation-filters:sRGB" id="e" x="-.156" y="-.103" width="1.311" height="1.22"><feFlood flood-opacity=".498" flood-color="#000" result="flood"/><feComposite in="flood" in2="SourceGraphic" operator="in" result="composite1"/><feGaussianBlur in="composite1" stdDeviation="3" result="blur"/><feOffset dy="1" result="offset"/><feComposite in="SourceGraphic" in2="offset" result="composite2"/></filter></defs><g transform="translate(0 -540.362)"><path style="color:#000;clip-rule:nonzero;display:inline;overflow:visible;visibility:visible;opacity:1;isolation:auto;mix-blend-mode:normal;color-interpolation:sRGB;color-interpolation-filters:linearRGB;solid-color:#000;solid-opacity:1;fill:#a05a2c;fill-opacity:1;fill-rule:nonzero;stroke:none;stroke-width:4.5;stroke-linecap:butt;stroke-linejoin:round;stroke-miterlimit:4;stroke-dasharray:none;stroke-dashoffset:0;stroke-opacity:1;color-rendering:auto;image-rendering:auto;shape-rendering:auto;text-rendering:auto;enable-background:accumulate;filter:url(#a)" d="M147.262 836.046c-25.208-.108-39.527 29.07-38.483 49.605-50.616 46.284-16.206 107.163 37.643 108.726 32.083 0 42.688-30.527 42.688-63.048-.02-17.823-8.002-34.677-21.708-45.839a39.132 39.132 0 0 0 1.594-10.985c0-21.342-.679-38.46-21.734-38.46z"/><path style="fill:#666;stroke:none;filter:url(#b)" d="m329.75 848.937-.993 5.448c-.547 2.996-1.516 9.18-2.152 13.74-.963 6.909-2.009 8.798-6.28 11.327-5 2.959-5.327 2.945-13.052-.519-17.005-7.625-16.505-7.736-24.185 5.368a548.26 548.26 0 0 0-2.214 3.803c-4.471 7.774-4.192 8.345-1.544 11.31 1.694 1.898 6.443 5.947 10.552 9.004 6.604 4.913 7.452 6.27 7.304 11.708-.149 5.433-1.355 7.126-10.334 14.49-5.591 4.587-10.168 8.748-10.168 9.248 0 1.675 11.822 22.364 13.314 23.298.81.508 6.892-1.294 13.51-4.008 11.696-4.795 12.176-4.854 16.99-2.077 4.096 2.364 5.152 4.289 6.108 11.147.636 4.56 1.605 10.747 2.152 13.743l.995 5.444h27.803l1.72-6.285c.948-3.457 1.735-8.171 1.753-10.476.056-7.43 1.72-10.88 6.615-13.728 4.619-2.686 5.203-2.614 16.033 2.069 6.182 2.673 12.01 4.882 12.95 4.907.94.025 4.44-4.671 7.775-10.433s6.078-11.605 6.094-12.988c.017-1.383-4.365-5.908-9.74-10.057-8.713-6.726-9.783-8.207-9.872-13.668-.09-5.51.893-6.936 9.815-14.246 5.454-4.468 9.917-9.155 9.92-10.417.006-1.707-8.941-18.433-12.497-23.368-.207-.286-6.156 1.75-13.226 4.533-12.278 4.832-13.06 4.943-17.422 2.33-4.674-2.798-6.39-6.491-6.447-13.888-.018-2.305-.804-7.016-1.751-10.473l-1.723-6.286-13.903-.002h-13.9zm8.336 50.056a21.566 21.86 0 0 1 26.41 15.459 21.566 21.86 0 0 1-15.246 26.774 21.566 21.86 0 0 1-26.414-15.459 21.566 21.86 0 0 1 15.25-26.774z"/><path style="color:#000;clip-rule:nonzero;display:inline;overflow:visible;visibility:visible;opacity:1;isolation:auto;mix-blend-mode:normal;color-interpolation:sRGB;color-interpolation-filters:linearRGB;solid-color:#000;solid-opacity:1;fill:#fff;fill-opacity:1;fill-rule:nonzero;stroke:none;stroke-width:5;stroke-linecap:round;stroke-linejoin:round;stroke-miterlimit:4;stroke-dasharray:none;stroke-dashoffset:0;stroke-opacity:1;color-rendering:auto;image-rendering:auto;shape-rendering:auto;text-rendering:auto;enable-background:accumulate" d="M182.318 965.934h80.358v21.079h-80.358z"/><path style="color:#000;clip-rule:nonzero;display:inline;overflow:visible;visibility:visible;opacity:1;isolation:auto;mix-blend-mode:normal;color-interpolation:sRGB;color-interpolation-filters:linearRGB;solid-color:#000;solid-opacity:1;fill:#de8787;fill-opacity:1;fill-rule:nonzero;stroke:none;stroke-width:4.5;stroke-linecap:butt;stroke-linejoin:round;stroke-miterlimit:4;stroke-dasharray:none;stroke-dashoffset:0;stroke-opacity:1;color-rendering:auto;image-rendering:auto;shape-rendering:auto;text-rendering:auto;enable-background:accumulate" d="M248.105 1013.024h.074l.279-33.12-.074-.001-.054 6.517-66.534-.613c18.285 10.093 31.56 25.459 66.386 18.15z"/><path style="color:#000;clip-rule:nonzero;display:inline;overflow:visible;visibility:visible;opacity:1;isolation:auto;mix-blend-mode:normal;color-interpolation:sRGB;color-interpolation-filters:linearRGB;solid-color:#000;solid-opacity:1;fill:#4d4d4d;fill-opacity:1;fill-rule:nonzero;stroke:none;stroke-width:4.5;stroke-linecap:butt;stroke-linejoin:round;stroke-miterlimit:4;stroke-dasharray:none;stroke-dashoffset:0;stroke-opacity:1;color-rendering:auto;image-rendering:auto;shape-rendering:auto;text-rendering:auto;enable-background:accumulate" d="m247.74 975.65 58.093-.658c.357 12.178-35.607 22.21-58.092 23.003z"/><g transform="matrix(1.01662 0 0 1.03049 -12.543 -24.306)" style="stroke:none;filter:url(#c)"><path transform="translate(0 540.362)" d="M256 294.36v136.212h.03v-.562l57.142-.639c.351 11.81-34.98 21.54-57.1 22.32v11.024H256v32.514c35.995.404 68.912-13.702 99.937-36.725V294.359H256z" style="color:#000;clip-rule:nonzero;display:inline;overflow:visible;visibility:visible;opacity:1;isolation:auto;mix-blend-mode:normal;color-interpolation:sRGB;color-interpolation-filters:linearRGB;solid-color:#000;solid-opacity:1;fill:#b3b3b3;fill-opacity:1;fill-rule:nonzero;stroke:none;stroke-width:4.5;stroke-linecap:butt;stroke-linejoin:round;stroke-miterlimit:4;stroke-dasharray:none;stroke-dashoffset:0;stroke-opacity:1;color-rendering:auto;image-rendering:auto;shape-rendering:auto;text-rendering:auto;enable-background:accumulate"/><path d="M256 834.721v135.933l-57.143.179c4.804 15.524 35.246 22.139 57.143 21.25v43.507c-30.79-.345-63.822-11.271-99.938-36.724V834.72z" style="color:#000;clip-rule:nonzero;display:inline;overflow:visible;visibility:visible;opacity:1;isolation:auto;mix-blend-mode:normal;color-interpolation:sRGB;color-interpolation-filters:linearRGB;solid-color:#000;solid-opacity:1;fill:#ffe1e1;fill-opacity:1;fill-rule:nonzero;stroke:none;stroke-width:4.5;stroke-linecap:butt;stroke-linejoin:round;stroke-miterlimit:4;stroke-dasharray:none;stroke-dashoffset:0;stroke-opacity:1;color-rendering:auto;image-rendering:auto;shape-rendering:auto;text-rendering:auto;enable-background:accumulate"/></g><ellipse style="color:#000;clip-rule:nonzero;display:inline;overflow:visible;visibility:visible;opacity:1;isolation:auto;mix-blend-mode:normal;color-interpolation:sRGB;color-interpolation-filters:linearRGB;solid-color:#000;solid-opacity:1;fill:#333;fill-opacity:1;fill-rule:nonzero;stroke:none;stroke-width:4.60587597;stroke-linecap:butt;stroke-linejoin:round;stroke-miterlimit:4;stroke-dasharray:none;stroke-dashoffset:0;stroke-opacity:1;color-rendering:auto;image-rendering:auto;shape-rendering:auto;text-rendering:auto;enable-background:accumulate" cx="196.153" cy="887.901" rx="18.239" ry="18.488"/><ellipse style="color:#000;clip-rule:nonzero;display:inline;overflow:visible;visibility:visible;opacity:1;isolation:auto;mix-blend-mode:normal;color-interpolation:sRGB;color-interpolation-filters:linearRGB;solid-color:#000;solid-opacity:1;fill:#fff;fill-opacity:1;fill-rule:nonzero;stroke:none;stroke-width:4.60587597;stroke-linecap:butt;stroke-linejoin:round;stroke-miterlimit:4;stroke-dasharray:none;stroke-dashoffset:0;stroke-opacity:1;color-rendering:auto;image-rendering:auto;shape-rendering:auto;text-rendering:auto;enable-background:accumulate" cx="204.14" cy="882.658" rx="5.743" ry="5.822"/><ellipse style="color:#000;clip-rule:nonzero;display:inline;overflow:visible;visibility:visible;opacity:1;isolation:auto;mix-blend-mode:normal;color-interpolation:sRGB;color-interpolation-filters:linearRGB;solid-color:#000;solid-opacity:1;fill:#1fdf1f;fill-opacity:1;fill-rule:nonzero;stroke:none;stroke-width:4.60587597;stroke-linecap:butt;stroke-linejoin:round;stroke-miterlimit:4;stroke-dasharray:none;stroke-dashoffset:0;stroke-opacity:1;color-rendering:auto;image-rendering:auto;shape-rendering:auto;text-rendering:auto;enable-background:accumulate" cx="294.184" cy="887.901" rx="18.239" ry="18.488"/><ellipse style="color:#000;clip-rule:nonzero;display:inline;overflow:visible;visibility:visible;opacity:1;isolation:auto;mix-blend-mode:normal;color-interpolation:sRGB;color-interpolation-filters:linearRGB;solid-color:#000;solid-opacity:1;fill:#fff;fill-opacity:1;fill-rule:nonzero;stroke:none;stroke-width:4.60587597;stroke-linecap:butt;stroke-linejoin:round;stroke-miterlimit:4;stroke-dasharray:none;stroke-dashoffset:0;stroke-opacity:1;color-rendering:auto;image-rendering:auto;shape-rendering:auto;text-rendering:auto;enable-background:accumulate" cx="300.967" cy="882.13" rx="5.743" ry="5.822"/><g style="filter:url(#d)"><path d="M149.12 835.916c-9.753 0-23.643 12.166-23.436 26.911 26.775.893 12.234 16.595 54.45 16.595 23.578-.001 52.363-19.376 52.363-43.275l-.005-.118z" style="color:#000;clip-rule:nonzero;display:inline;overflow:visible;visibility:visible;opacity:1;isolation:auto;mix-blend-mode:normal;color-interpolation:sRGB;color-interpolation-filters:linearRGB;solid-color:#000;solid-opacity:1;fill:#d38d5f;fill-opacity:1;fill-rule:nonzero;stroke:none;stroke-width:4.9000001;stroke-linecap:butt;stroke-linejoin:round;stroke-miterlimit:4;stroke-dasharray:none;stroke-dashoffset:0;stroke-opacity:1;color-rendering:auto;image-rendering:auto;shape-rendering:auto;text-rendering:auto;enable-background:accumulate"/><path d="M349.496 836.338c9.754 0 23.643 12.166 23.436 26.911-26.775.893-12.233 16.594-54.45 16.594-23.578 0-52.363-19.375-52.363-43.275l.005-.118z" style="color:#000;clip-rule:nonzero;display:inline;overflow:visible;visibility:visible;opacity:1;isolation:auto;mix-blend-mode:normal;color-interpolation:sRGB;color-interpolation-filters:linearRGB;solid-color:#000;solid-opacity:1;fill:#4d4d4d;fill-opacity:1;fill-rule:nonzero;stroke:none;stroke-width:4.9000001;stroke-linecap:butt;stroke-linejoin:round;stroke-miterlimit:4;stroke-dasharray:none;stroke-dashoffset:0;stroke-opacity:1;color-rendering:auto;image-rendering:auto;shape-rendering:auto;text-rendering:auto;enable-background:accumulate"/></g><g transform="matrix(1.01662 0 0 1.03049 -12.543 -24.306)" style="stroke:none;filter:url(#e)"><path d="m255.893 880.362 5.824-.138 18.004 70.02-23.647.118z" style="color:#000;clip-rule:nonzero;display:inline;overflow:visible;visibility:visible;opacity:1;isolation:auto;mix-blend-mode:normal;color-interpolation:sRGB;color-interpolation-filters:linearRGB;solid-color:#000;solid-opacity:1;fill:#666;fill-opacity:1;fill-rule:nonzero;stroke:none;stroke-width:5;stroke-linecap:round;stroke-linejoin:round;stroke-miterlimit:4;stroke-dasharray:none;stroke-dashoffset:0;stroke-opacity:1;color-rendering:auto;image-rendering:auto;shape-rendering:auto;text-rendering:auto;enable-background:accumulate"/><path d="M255.946 880.362c-4.615 1.139-6.93 3.507-8.387 6.849-9.12 20.926-30.506 62.88 8.385 63.151z" style="color:#000;clip-rule:nonzero;display:inline;overflow:visible;visibility:visible;opacity:1;isolation:auto;mix-blend-mode:normal;color-interpolation:sRGB;color-interpolation-filters:linearRGB;solid-color:#000;solid-opacity:1;fill:#ffcfcf;fill-opacity:1;fill-rule:nonzero;stroke:none;stroke-width:5;stroke-linecap:round;stroke-linejoin:round;stroke-miterlimit:4;stroke-dasharray:none;stroke-dashoffset:0;stroke-opacity:1;color-rendering:auto;image-rendering:auto;shape-rendering:auto;text-rendering:auto;enable-background:accumulate"/></g><g style="filter:url(#f)"><path d="M247.71 792.744v32.01h97.945v-32.01H247.71z" style="color:#000;clip-rule:nonzero;display:inline;overflow:visible;visibility:visible;opacity:1;isolation:auto;mix-blend-mode:normal;color-interpolation:sRGB;color-interpolation-filters:linearRGB;solid-color:#000;solid-opacity:1;fill:gray;fill-opacity:1;fill-rule:nonzero;stroke:none;stroke-width:4.5;stroke-linecap:butt;stroke-linejoin:round;stroke-miterlimit:4;stroke-dasharray:none;stroke-dashoffset:0;stroke-opacity:1;color-rendering:auto;image-rendering:auto;shape-rendering:auto;text-rendering:auto;enable-background:accumulate"/><path d="M247.71 792.744h-97.944v32.01h97.944v-32.01z" style="color:#000;clip-rule:nonzero;display:inline;overflow:visible;visibility:visible;opacity:1;isolation:auto;mix-blend-mode:normal;color-interpolation:sRGB;color-interpolation-filters:linearRGB;solid-color:#000;solid-opacity:1;fill:#b3b3b3;fill-opacity:1;fill-rule:nonzero;stroke:none;stroke-width:4.5;stroke-linecap:butt;stroke-linejoin:round;stroke-miterlimit:4;stroke-dasharray:none;stroke-dashoffset:0;stroke-opacity:1;color-rendering:auto;image-rendering:auto;shape-rendering:auto;text-rendering:auto;enable-background:accumulate"/><path d="M256.475 549.805a72.18 72.18 0 0 0-8.765.606c-.027 65.614 0 171.313 0 246.906h102.826v-51.593c.341-2.199.645-4.394.83-6.138l.746-7.063 6.412-2.556 6.411-2.558 9.348 7.558c5.142 4.157 10.347 7.56 11.568 7.563 3.054.01 24.901-22.495 24.901-25.65 0-1.333-3.326-6.686-7.388-11.894l-7.386-9.468 2.329-5.442c1.28-2.993 2.662-5.815 3.067-6.27.406-.454 6.447-1.77 13.425-2.924l12.688-2.097.32-17.456c.19-10.425-.14-17.923-.823-18.615-.628-.637-6.644-1.995-13.365-3.017l-12.217-1.856-2.694-6.714-2.69-6.712 7.368-9.556c4.052-5.256 7.366-10.34 7.366-11.296 0-2.045-22.898-25.963-24.855-25.963-.735 0-5.86 3.457-11.39 7.684l-10.052 7.689-6.16-2.589-5.964-2.503-.197-.09-1.896-12.343c-1.044-6.79-2.459-13.03-3.145-13.869-.962-1.174-9.081-1.715-17.203-1.664-8.123.05-16.25.691-17.221 1.877-.695.849-1.896 5.904-2.85 11.686-13.78-15.038-33.096-23.61-53.344-23.673zm-8.765 269.373v16.911h102.826v-16.91H247.71z" style="color:#000;clip-rule:nonzero;display:inline;overflow:visible;visibility:visible;opacity:1;isolation:auto;mix-blend-mode:normal;color-interpolation:sRGB;color-interpolation-filters:linearRGB;solid-color:#000;solid-opacity:1;fill:#ccc;fill-opacity:1;fill-rule:nonzero;stroke:none;stroke-width:4.5;stroke-linecap:butt;stroke-linejoin:round;stroke-miterlimit:4;stroke-dasharray:none;stroke-dashoffset:0;stroke-opacity:1;color-rendering:auto;image-rendering:auto;shape-rendering:auto;text-rendering:auto;enable-background:accumulate"/><path d="M247.71 550.41a73.11 74.108 0 0 0-50.247 29.885 73.11 74.108 0 0 0-24.788-4.489 73.11 74.108 0 0 0-73.109 74.109 73.11 74.108 0 0 0 44.892 68.352v79.05H247.71V550.41zm0 268.768H144.458v16.911H247.71v-16.91z" style="color:#000;clip-rule:nonzero;display:inline;overflow:visible;visibility:visible;opacity:1;isolation:auto;mix-blend-mode:normal;color-interpolation:sRGB;color-interpolation-filters:linearRGB;solid-color:#000;solid-opacity:1;fill:#e6e6e6;fill-opacity:1;fill-rule:nonzero;stroke:none;stroke-width:4.5;stroke-linecap:butt;stroke-linejoin:round;stroke-miterlimit:4;stroke-dasharray:none;stroke-dashoffset:0;stroke-opacity:1;color-rendering:auto;image-rendering:auto;shape-rendering:auto;text-rendering:auto;enable-background:accumulate"/><path d="M145.97 816.62h204.286" style="fill:none;fill-rule:evenodd;stroke:none;stroke-width:5;stroke-linecap:butt;stroke-linejoin:miter;stroke-miterlimit:4;stroke-dasharray:none;stroke-opacity:1"/></g></g></svg>