<svg width="212.229" height="212.229" xmlns="http://www.w3.org/2000/svg"><path style="fill:#000" d="M23.095 231.87c1.352-2.526 1.138-1.64 13.467-55.737C41.752 153.355 46 133.187 46 131.316v-3.4l23.25.316c23.16.315 23.272.327 28.964 3.122 3.197 1.57 7.467 4.797 9.692 7.325l3.977 4.518 1.213-4.325c.667-2.378 1.234-5.786 1.259-7.574l.045-3.25H144v3.17c0 1.743 3.35 13.78 7.445 26.75 4.095 12.969 11.07 35.049 15.5 49.066 4.43 14.017 8.055 25.83 8.055 26.25 0 .42-6.24.764-13.868.764h-13.868l-2.394-10.25-2.395-10.25-14.077-.276-14.077-.277-2.79 10.527-2.79 10.526H88.18l1.319-5c.725-2.75 1.174-5 .997-5-.177 0-2.724 1.587-5.66 3.527-8.947 5.912-12.335 6.473-39.054 6.473H21.93zm45.854-14.296c7.257-3.752 16.389-18.194 21.198-33.526 1.845-5.88 2.353-9.767 2.353-18 0-9.342-.276-10.996-2.505-15-3.171-5.695-7.718-8.143-14.437-7.772l-4.942.272-9.279 37c-5.103 20.35-9.292 37.338-9.308 37.75-.054 1.4 13.973.8 16.92-.724zm69.816-20.776c-.247-.687-2.626-8.121-5.287-16.52-2.661-8.398-5.151-14.923-5.533-14.5-.383.424-2.843 7.295-5.467 15.27-2.625 7.975-4.98 15.063-5.232 15.75-.35.953 2.204 1.25 10.754 1.25 8.544 0 11.107-.297 10.765-1.25zm40.902 36.583c-.367-.366-.667-2.273-.667-4.236 0-3.326-27.827-94.509-30.01-98.333-.544-.955-.99-1.968-.99-2.25 0-.283 6.674-.514 14.83-.514h14.831l3.561 14.75c1.959 8.113 5.733 23.863 8.388 35 2.654 11.138 5.093 20.25 5.42 20.25.327 0 4.994-14.695 10.372-32.656 8.106-27.075 9.594-33.057 8.709-35l-1.068-2.344h21.116l-.692 3.25c-.38 1.788-6.114 19.9-12.741 40.25-17.24 52.932-17.068 52.318-15.722 56.5.62 1.925 1.36 4.063 1.644 4.75.4.964-2.555 1.25-12.898 1.25-7.38 0-13.717-.3-14.083-.667z" transform="translate(-21.93 -74.867)"/></svg>