<svg width="647.181" height="647.181" xmlns="http://www.w3.org/2000/svg"><defs><linearGradient id="a" x1="846.838" y1="110.502" x2="846.838" y2="641.804" gradientTransform="matrix(.82095 0 0 1.2181 -580.922 -341.915)" gradientUnits="userSpaceOnUse"><stop offset="0%" style="stop-color:#ffa284;stop-opacity:1"/><stop offset="50%" style="stop-color:#cd5029;stop-opacity:1"/></linearGradient></defs><g transform="translate(-8.784 207.312)"><path fill="url(#a)" d="M281.348-207.312s24.705 83.679-22.73 132.397C211.182-26.197 216.31 27.649 235.54 53.29c19.23 25.64 17.948 44.87 2.563 58.974-15.384 14.103-28.205 24.359-37.18 1.282-8.973-23.077-19.23-23.077-23.076-34.615-3.847-11.538-11.54-32.051-11.54-32.051s-24.358 38.462-39.743 61.539c-15.385 23.077-15.384 58.975-5.128 78.205 10.256 19.23 6.41 42.307-1.282 74.358-7.692 32.05 2.564 80.769 38.46 100 35.898 19.23 79.489 34.615 98.719 52.564 19.23 17.949 64.103 34.615 121.795 21.795 57.692-12.82 130.77-71.794 143.59-111.538 0 0 33.333-37.18 26.923-85.897-6.41-48.718-29.488-47.437-39.744-84.616-10.256-37.18 22.193-28.012-5.128-91.845 0 0-12.178-30.382-58.448-52.27-29.73-14.063-9.5-77.68-62.064-141.782s-102.91-74.705-102.91-74.705z" style="fill:url(#a)"/><path fill="#fff" d="m262.779 110.528 2.249 53.018s-40.103 29.566-45.538 68l-16.001 1.23s-11.54 2.565-11.54 14.104v37.18s3.847 11.538 12.82 11.538l16.488-.32s8 30.5 36.5 50.5v25.5s-2 8.5 15.5 11 40.75 2.25 44.5-1.5 3.75-4.5 3.75-9c0 0 21.25 5 60.25 0v5s3.5 7 29 7 33-3 37.5-12v-25s37.009-36.263 35.75-91.75c-1.083-47.75-15.901-64.298-35.806-82.96-22.67-21.253-69.944-31.164-117.944-25.352 0-.001-24.341-43.938-67.478-36.188z"/><circle fill="#03394d" cx="257.758" cy="246.278" r="9.5"/><path fill="#cd5029" d="M482.37 222.394s-18.218-8.742-40.662 3.996c0 0-26.711-8.987-40.99 2.593-14.828 12.025-16.3 26.115-15.525 42.785 0 0 12.837-43.915 45.252-32.571 0 0-22.947 40.43 12.76 47.508 0 0 8.437-.05 15.402-4.256 6.644-4.011 11.842-11.433 9.71-24.814 0 0-4.347-13.336-15.568-21.42 0 0 11.042-7.806 31.988-2.21z"/><path fill="#fff" d="M442.479 244.9s-16.69 31.462 5.607 29.768c0 0 11.838-5.656 4.887-17.127-7.147-11.796-10.494-12.64-10.494-12.64z"/></g></svg>