<svg viewBox="0 0 40 40" xmlns="http://www.w3.org/2000/svg"><g transform="translate(-2.204 -2.53)" fill="#1d1d1b"><path d="M22.204 2.826C11.336 2.826 2.5 11.663 2.5 22.53s8.836 19.704 19.704 19.704 19.704-8.837 19.704-19.704c-.001-10.867-8.837-19.704-19.704-19.704zm0 36.444c-.988 0-1.921-.11-2.909-.274l.823-4.995c.659.11 1.317.165 2.031.165 6.476 0 11.745-5.269 11.745-11.745 0-6.477-5.269-11.746-11.745-11.746-6.477 0-11.746 5.269-11.746 11.746 0 3.787 1.811 7.135 4.555 9.275l-3.238 3.897c-3.897-3.074-6.421-7.849-6.421-13.172 0-9.276 7.519-16.795 16.794-16.795s16.795 7.519 16.795 16.795c.001 9.275-7.409 16.849-16.684 16.849zM19.13 26.811a5.18 5.18 0 0 1-2.25-4.281 5.27 5.27 0 0 1 5.269-5.269 5.27 5.27 0 0 1 5.269 5.269 5.27 5.27 0 0 1-5.269 5.269c-.33 0-.659-.055-.934-.11l.714-4.336zm3.074 2.251c2.964 0 5.489-1.977 6.257-4.666.11.165.33.274.549.274.384 0 .769-.329.769-.769a.75.75 0 0 0-.769-.768c-.11 0-.219.055-.329.11.055-.274.055-.494.055-.769 0-3.623-2.964-6.532-6.531-6.532-3.567 0-6.531 2.964-6.531 6.532 0 2.195 1.043 4.116 2.689 5.269l-2.25 2.744c-2.415-1.866-3.952-4.775-3.952-8.013 0-.988.165-1.976.439-2.909.11.055.22.11.33.11a.784.784 0 0 0 .768-.768c0-.33-.219-.604-.549-.714 1.592-3.458 5.104-5.818 9.166-5.818 5.543 0 10.099 4.556 10.099 10.099 0 4.116-2.47 7.684-6.037 9.275a.761.761 0 0 0-.714-.604.784.784 0 0 0-.768.768c0 .11.055.274.11.384-.878.219-1.756.384-2.689.384a9.054 9.054 0 0 1-1.756-.165l.604-3.512c.271.002.655.058 1.04.058z"/><circle r=".769" cy="33.287" cx="11.775"/><circle r=".769" cy="22.64" cx="22.204"/><circle r=".768" cy="9.302" cx="28.131"/><circle r=".769" cy="18.688" cx="14.958"/></g></svg>