<svg xmlns="http://www.w3.org/2000/svg" width="512" height="512" viewBox="0 0 135.467 135.467"><g style="display:inline"><path style="fill:#609926;fill-opacity:1;stroke:#428f29;stroke-width:1;stroke-linecap:butt;stroke-linejoin:miter;stroke-opacity:1;stroke-miterlimit:4;stroke-dasharray:none" d="M27.71 195.15c-9.547-.026-22.34 6.799-21.632 23.905 1.106 26.729 25.457 29.208 35.192 29.423 1.068 5.013 12.522 22.306 21.002 23.217h37.152c22.278-1.668 38.961-75.757 26.594-76.039-46.782 2.477-49.996 2.139-88.6 0-2.495-.026-5.972-.494-9.708-.505zm2.491 9.46c1.352 13.692 3.556 21.703 8.018 33.943-11.382-1.504-21.07-5.224-22.851-19.11-.951-7.41 2.39-15.167 14.833-14.833z" transform="translate(0 -161.533)"/></g><g style="display:inline"><rect style="display:inline;fill:#fff;fill-opacity:1;stroke:none;stroke-width:.24757317;stroke-opacity:1" width="34.762" height="34.762" x="87.509" y="18.292" transform="rotate(25.915)" ry="5.483"/><path style="display:inline;fill:#fff;fill-opacity:1;stroke:none;stroke-width:.26644793px;stroke-linecap:butt;stroke-linejoin:miter;stroke-opacity:1" d="m79.805 57.36 3.241 1.609V35.256h-3.263z"/></g><g style="display:inline"><circle transform="rotate(-19.796)" r="3.475" cy="90.078" cx="49.065" style="fill:#609926;fill-opacity:1;stroke:none;stroke-width:.26458332;stroke-opacity:1"/><circle transform="rotate(-19.796)" r="3.475" cy="102.105" cx="36.81" style="fill:#609926;fill-opacity:1;stroke:none;stroke-width:.26458332;stroke-opacity:1"/><circle transform="rotate(-19.796)" r="3.475" cy="111.439" cx="46.484" style="fill:#609926;fill-opacity:1;stroke:none;stroke-width:.26458332;stroke-opacity:1"/><path transform="rotate(26.024)" style="fill:#609926;fill-opacity:1;stroke:none;stroke-width:.27444693;stroke-opacity:1" d="M97.333 18.062h2.673v27.261h-2.673z"/><path d="M76.558 68.116c12.976 6.396 13.013 4.102 4.891 20.908" style="fill:none;stroke:#609926;stroke-width:2.68000007;stroke-linecap:butt;stroke-linejoin:miter;stroke-miterlimit:4;stroke-dasharray:none;stroke-opacity:1"/></g></svg>