<svg width="27.797" height="27.797" xmlns="http://www.w3.org/2000/svg"><path fill="#4f2a93" d="M23.716 26.3c-.832-.09-.84-.462-.832-5.421 0 0-.083-.312.395-.582.477-.27 1.93-2.68 1.037-4.734-.892-2.056-.248-1.952.125-1.744.374.208.554-.055.332-1.183-.457-2.325-1.17-3.113-2.85-4.162-1.105-.69-.705-1.94.865-1.848.766.045.766.046.862-.555.152-.947-.15-2.565-1.327-2.788-.81-.154-1.817.713-3.015.109-1.198-.604-3.178.904-3.988 1.254s-1.479.354-2.403.33c-.925-.021.49 1.532 1.906 1.882 1.216.3.743.516.674 1.51-.078 1.113.24 1.59-.279 1.707-.796.178-1.686-1.961-3.052-2.857C9.064 5.183 7.224 6.152 1.814.2c-.939-1.031-.558 2.159.02 3.862 1.543 4.55 4.532 5.153 5.942 5.29 1.18.116 1.984-.158 1.984.297 0 .33-1.39.48-1.93.482a9.469 9.469 0 0 1-1.762-.173c-1.073-.2.57 2.535 1.624 3.402 1.78 1.465 3.818 2.014 5.456 2.18.473.048 1.146.04 1.146.41 0 .352-.354.438-.773.44-2.294.018-3.612 1.85-3.986 3.968-.237 1.346-.06 2.868-.035 4.005l.09.812c.18 1.426-4.948 1.975-5.627-.322-.743-2.51 3.31-3.837 3.383-6.232.047-1.51-1.333-2.194-1.333-2.194v-2.204H4.424v-1.587H2.838V11.05H1.251v4.76h1.587v1.59h2.613c.594 0 1.07.392 1.015 1.24-.137 2.093-4.589 3.379-3.365 6.716.884 2.41 4.696 2.44 8.513 2.44l7.118-.005c.222 0 .534-.107.08-1.255-.367-.927-1.632-.276-2.706-.276-1.137 0-1.176-.96-.446-1.973.446-.618 1.014-1.078 1.98-1.527 1.485-.693 2.616.198 3.173.963.8 1.099 1.054 2.355.348 2.552-.85.238-1.113.27-1.14 1.08-.023.58.255.422 1.594.422h4.445c.688 0 .637-.53-.055-1.45-.49-.653-1.028.11-2.289-.027z" style="fill-rule:evenodd"/></svg>