<svg width="488.533" height="488.533" xmlns:xlink="http://www.w3.org/1999/xlink" xmlns="http://www.w3.org/2000/svg"><defs><linearGradient id="a"><stop style="stop-color:#1e6aff;stop-opacity:1" offset="0"/><stop style="stop-color:#c24fff;stop-opacity:.94117647" offset="1"/></linearGradient><linearGradient xlink:href="#a" id="b" x1="249.066" y1=".087" x2="249.066" y2="489.483" gradientUnits="userSpaceOnUse"/></defs><path style="fill:#fff;fill-opacity:1" d="M244.266 5.238A239.028 239.028 0 0 0 5.238 244.266a239.028 239.028 0 0 0 239.028 239.029 239.028 239.028 0 0 0 239.029-239.03A239.028 239.028 0 0 0 244.265 5.239zm0 166.551a72.478 72.478 0 0 1 72.478 72.477 72.478 72.478 0 0 1-72.478 72.478 72.478 72.478 0 0 1-72.477-72.478 72.478 72.478 0 0 1 72.477-72.477z"/><path style="fill:url(#b);stroke-width:1.06667;fill-opacity:1" d="M217.654 487.38c-26.669-2.996-56.53-11.83-80.94-23.944-25.136-12.474-41.877-24.283-61.838-43.62-40.66-39.388-64.649-87.342-72.88-145.683-1.978-14.023-1.659-48.285.592-63.466 4.082-27.542 11.78-51.845 24.154-76.267C50.734 87.049 87.022 50.762 134.4 26.745 169.998 8.7 203.152.821 243.733.763c30.134-.043 50.24 3.09 77.703 12.11 52.249 17.158 97.658 52.34 128.662 99.684 19.47 29.729 33.574 70.439 37.47 108.14 1.567 15.176.686 48.076-1.66 61.97-17.625 104.356-96.823 184.59-200.041 202.657-15.289 2.676-52.667 3.802-68.213 2.056zm50.613-19.137c40.509-4.526 79.033-19.936 111.994-44.798 9.646-7.275 30.406-26.136 30.406-27.623 0-.438-2.36-2.326-5.246-4.195-5.87-3.804-10.719-10.424-13.939-19.03-4.94-13.202-8.338-17.356-16.104-19.683-3.638-1.09-4.68-.919-9.875 1.623-7.431 3.636-11.952 10.05-18.162 25.766-6.888 17.43-10.943 24.774-17.043 30.855-14.428 14.384-35.461 15.949-50.824 3.781-2.25-1.782-7.467-8.2-11.595-14.264-9.873-14.505-15.12-17.88-24.087-15.494-6.945 1.848-13.02 9.113-20.848 24.93-11.453 23.144-21.362 30.688-40.544 30.87-7.877.074-9.866-.307-15.162-2.908-13.895-6.823-19.839-17.965-32.258-60.473-2.143-7.333-5.07-15.124-6.506-17.312-5.118-7.803-16.377-10.558-25.055-6.13-4.102 2.093-5.666 4.084-14.805 18.852-3.36 5.429-8.658 10.866-13.957 14.324L72 389.067l10.133 10.407c37.125 38.129 82.621 61.381 133.334 68.146 13.454 1.795 39.558 2.103 52.8.623zm-75.377-46.82c5.436-2.773 8.73-7.32 16.339-22.555 11.128-22.282 22.12-31.105 38.747-31.105 14.07 0 21.919 5.154 33.594 22.06 9.006 13.041 12.58 15.77 20.806 15.89 4.49.065 6.702-.571 10.833-3.114 6.654-4.095 10.86-10.43 16.42-24.731 9.18-23.612 16.238-33.377 28.444-39.349 5.155-2.522 7.511-3.018 14.188-2.986 16.721.08 26.73 8.457 34.697 29.038 3.97 10.253 8.98 15.162 15.472 15.162 2.808 0 15.367-19.252 24.006-36.8 16.525-33.565 23.849-68.081 22.52-106.133-1.187-34.026-8.283-62.228-23.075-91.704-11.401-22.72-22.314-38.11-39.976-56.376C370.75 52.36 329.407 30.793 278.4 22.201c-17.351-2.923-48.171-3.111-65.564-.401-49.381 7.695-92.24 29.314-126.98 64.055-34.857 34.857-56.394 77.579-64.057 127.067-2.18 14.076-2.492 45.902-.58 59.078 4.194 28.91 12.279 54.33 24.668 77.558 5.002 9.378 14.748 24.842 15.656 24.842 1.35 0 6.516-3.356 8.464-5.499 1.25-1.375 4.967-6.888 8.258-12.25 3.292-5.362 7.765-11.311 9.94-13.22 14.504-12.736 38.47-11.554 51.19 2.524 5.217 5.776 8.912 14.423 14.118 33.038 5.736 20.509 8.896 28.823 13.533 35.602 6.672 9.753 15.526 12.093 25.844 6.829zm32.177-99.296c-26.747-7.208-47.463-26.094-55.931-50.99-7.438-21.868-5.728-43.883 5.024-64.708 6.177-11.963 20.306-26.092 32.27-32.269 20.668-10.672 42.964-12.42 64.595-5.062 25.483 8.667 44.319 29.625 51.23 57.002 1.914 7.58 2.198 11.1 1.76 21.867-.878 21.59-7.928 37.722-23.127 52.921-9.324 9.325-19.411 15.635-31.555 19.74-11.88 4.017-32.352 4.71-44.266 1.5zm33.642-18.68c25.423-6.474 44.226-28.748 46.046-54.545 2.462-34.886-25.279-64.875-59.955-64.815-48.516.084-77.29 53.77-50.381 94.002 14.027 20.973 40.505 31.416 64.29 25.359zm-157.553 4.973c-6.447-1.122-11.122-2.528-12.473-3.751-4.528-4.098-3.788-11.735 1.47-15.18 2.628-1.722 3.528-1.714 16.314.135 11.978 1.733 13.87 2.294 16.466 4.885 4.003 3.993 3.935 8.654-.184 12.773-3.689 3.689-6.188 3.82-21.593 1.138zm250.042-5.753c-3.196-3.425-3.935-7.463-2.036-11.136 2.003-3.873 22.191-15.264 27.054-15.264 4.151 0 8.498 3.433 9.37 7.401 1.26 5.742-1.617 8.994-13.695 15.472-12.448 6.677-17.024 7.457-20.693 3.527zm82.001-59.334c-2.667-2.667-10.799-23.627-10.799-27.834 0-7.305 10.268-11.544 15.7-6.482 2.377 2.214 10.967 23.221 10.967 26.82 0 2.977-2.778 8.04-4.848 8.834-3.46 1.327-9.03.651-11.02-1.338zm-380.688-18.98c-2.557-1.03-4.737-6.816-4.015-10.661.582-3.105 2.3-4.837 11.509-11.604 9.033-6.638 11.503-7.955 14.925-7.955 8.254 0 12.409 9.217 6.937 15.388-1.32 1.488-6.434 5.595-11.365 9.126-7.146 5.117-9.743 6.403-12.8 6.335-2.11-.046-4.445-.33-5.191-.63zm292.236-33.45c-4.254-3.963-4.076-6.71 1.314-20.274 2.757-6.94 5.659-13.154 6.448-13.809 2.262-1.877 8.568-2.508 11.168-1.117 2.826 1.513 5.629 7.662 4.727 10.37-3.537 10.623-8.597 22.652-10.347 24.594-2.878 3.194-10 3.321-13.31.237zm-201.082-11.97c-1.318-1.334-4.211-7.922-6.518-14.842-3.807-11.421-4.031-12.724-2.73-15.865 2.614-6.31 11.174-7.834 15.747-2.802 3.065 3.372 10.106 25.395 9.232 28.877-1.644 6.55-11.089 9.331-15.73 4.632zm114.846-34.706c-1.259-.19-6.853-4.127-12.432-8.747-7.244-6-10.338-9.284-10.822-11.489-1.803-8.21 6.312-14.623 13.613-10.758 2.875 1.523 16.546 12.633 19.234 15.632 2.85 3.18 2.732 9.166-.244 12.334-2.52 2.682-5.424 3.623-9.349 3.028zm62.556-53.874c-5.478-2.77-6.654-11.062-2.148-15.14 2.433-2.202 23.97-10.146 27.507-10.146 3.372 0 8.774 5.5 8.774 8.934 0 3.827-1.986 7.7-4.651 9.073-3.97 2.043-23.11 8.66-25.002 8.644-.997-.009-3.014-.623-4.48-1.365zM161.784 84.22c-1.61-1.265-3.068-3.76-3.479-5.952-.635-3.384-.062-4.714 5.56-12.918 8.971-13.09 11.167-15.217 15.703-15.217 5.575 0 9.717 3.931 9.717 9.222 0 3.378-1.299 5.93-7.247 14.247-3.987 5.572-8.296 10.714-9.576 11.427-3.49 1.942-7.576 1.632-10.678-.809z"/></svg>