<svg class="svg-icon" style="overflow:hidden;fill:currentColor" width="750.656" height="750.656" xmlns="http://www.w3.org/2000/svg"><path d="M733.363 39.69H438.976l-146.88 79.794-275.012-2.083C7.709 117.4 0 124.068 0 132.4v386.683c0 8.125 7.709 15 17.084 15h716.07c9.376 0 17.085-6.667 17.085-15V54.69c.417-8.334-7.292-15-16.876-15z" fill="#0288d1"/><path d="M144.38 125.526h461.895c9.375 0 17.084 7.709 17.084 17.084v481.895c0 9.375-7.709 17.084-17.084 17.084H144.38c-9.376 0-17.084-7.71-17.084-17.084V142.61c0-9.375 7.708-17.084 17.084-17.084z" fill="#efebe9"/><path d="m17.292 185.528 307.096.625 149.798 145.84 259.177-2.292c9.376 0 17.084 7.709 17.084 17.084v347.097c0 9.376-7.708 17.084-17.084 17.084H17.293c-9.376 0-17.085-7.708-17.085-17.084v-491.27c-.208-9.375 7.5-17.084 17.084-17.084z" fill="#039be5"/><path d="M17.292 203.862H311.68l146.88 146.673 275.011-2.5c9.376 0 17.085 7.709 17.085 17.084v265.427c0 9.376-7.71 17.085-17.085 17.085H17.292c-9.375 0-17.084-7.71-17.084-17.085v-409.6c-.208-9.375 7.709-17.084 17.084-17.084z" fill="#29b6f6"/></svg>