<svg width="465.41" height="465.41" xmlns:xlink="http://www.w3.org/1999/xlink" xmlns="http://www.w3.org/2000/svg"><defs><linearGradient id="a" x1="110.25" y1="213.3" x2="496.14" y2="436.09" gradientUnits="userSpaceOnUse"><stop offset="0" stop-color="#aa5cc3"/><stop offset="1" stop-color="#00a4dc"/></linearGradient><linearGradient xlink:href="#a" id="b" gradientUnits="userSpaceOnUse" x1="110.25" y1="213.3" x2="496.14" y2="436.09"/><linearGradient xlink:href="#a" id="c" gradientUnits="userSpaceOnUse" x1="110.25" y1="213.3" x2="496.14" y2="436.09"/></defs><g transform="translate(-28.685 -23.291)" fill="url(#a)"><path d="M261.42 201.62c-20.44 0-86.24 119.29-76.2 139.43 10.04 20.14 142.48 19.92 152.4 0 9.92-19.92-55.76-139.42-76.2-139.43z" style="fill:url(#b)"/><path d="M261.42 23.3C199.83 23.3 1.57 382.73 31.8 443.43c30.23 60.7 429.34 60 459.24 0C520.94 383.43 323 23.3 261.42 23.3ZM411.9 390.76c-19.59 39.33-281.08 39.77-300.9 0-19.82-39.77 110.1-275.28 150.45-275.28 40.35 0 170.04 235.94 150.45 275.28z" style="fill:url(#c)"/></g></svg>