<svg version="1.1" id="Layer_1" x="0" y="0" xml:space="preserve" width="100" height="100" xmlns="http://www.w3.org/2000/svg"><style type="text/css" id="style2">.st1{fill:#fff}</style><g id="g29" transform="translate(-116.3 2.3)"><ellipse cx="166.3" cy="47.7" rx="50" ry="48" id="ellipse4" style="fill:#000b25"/><path class="st1" id="rect6" d="M152.6 20.3h13.5v5.6h-13.5z"/><linearGradient id="SVGID_1_" gradientUnits="userSpaceOnUse" x1="132.862" y1="871.92" x2="202.193" y2="911.948" gradientTransform="translate(0 -834)"><stop offset="0" style="stop-color:#fff" id="stop8"/><stop offset="0" style="stop-color:#a85dc3" id="stop10"/><stop offset=".147" style="stop-color:#9864c5" id="stop12"/><stop offset=".434" style="stop-color:#6f75cc" id="stop14"/><stop offset=".829" style="stop-color:#2e90d5" id="stop16"/><stop offset="1" style="stop-color:#0f9dda" id="stop18"/></linearGradient><path d="M202.1 51.2c-.5-18.3-17.8-35.6-35.7-35.8-18-.2-35.7 16.7-36.6 34.9-.4 8.6.2 9.4 8.9 10.9.9 9.6-.5 15-6.5 21.7.8.7 1.6 1.4 2.5 2.1.2-.2.4-.4.6-.7 5.3-7.3 7.9-10.3 7.3-18.8-.4-5.6 1.2-8.3 7.2-7.9.9 11.2-1.5 16.8-6.1 27.3-.7 1.6-1.5 3.1-2.4 4.4 1.1.6 2.3 1.2 3.4 1.8 1.2-2.1 2.2-4.4 2.9-6.8 2.7-9.6 5-14.3 6-24.4.4-3.8 1.4-5.3 5.7-4.4 1.4 12.2-1.3 18.7-5 30.5-.9 2.7-1.9 5.2-3.1 7.6 1.1.3 2.3.7 3.5.9.7-1.5 1.4-3 2-4.6 4.5-11.8 7.4-18.6 6.5-31.1-.3-4.6 1.5-5.4 5-4 .5 9-1.1 12.1-.1 20.7.9 7.5 2.9 14.1 6 19.8l3.3-.6c-5.3-10.5-5.1-23.8-4.9-39 4.6-1 5.8.3 6.1 4.2.5 8.8-.7 12.2 1.1 20.9.9 4.3 2.6 8.3 5.1 11.7 1.2-.5 2.4-.9 3.5-1.5-7.6-8.8-6.2-19.6-6.1-33.6 7.4 1.5 6.7 1.5 7.4 7.9.8 7.9 1.3 9 3.5 16.6.3 1 1.3 2.8 2.6 4.8 1-.7 2-1.4 2.9-2.2-5.4-11.1-6.7-15.6-4.6-23.6 7.7-.9 8.3-1.7 8.1-9.7zm-65.3-.2c-2.1-9.1 5.7-23.1 12.9-24.1-4.2 7.7-8.6 15.9-12.9 24.1zm16.3-25c-.2-.9-.5-1.9-.7-2.8 4.3-1 8.5-2.1 12.8-3.1.2.9.5 1.8.7 2.8-4.3 1.1-8.5 2.1-12.8 3.1z" id="path21" style="fill:url(#SVGID_1_)"/><path class="st1" d="M136.8 51c-2.1-9.1 5.7-23.1 12.9-24.1-4.2 7.7-8.6 15.9-12.9 24.1z" id="path23"/><path d="M166.3 29.2c-1.7 0-3.2.5-4.5 1.4h.6c2.2 0 3.9 1.8 3.9 3.9 0 2.1-1.8 3.9-3.9 3.9-1.8 0-3.3-1.2-3.8-2.8-.1.5-.1.9-.1 1.4 0 4.3 3.5 7.8 7.8 7.8s7.8-3.5 7.8-7.8-3.5-7.8-7.8-7.8z" id="path25" style="fill-rule:evenodd;clip-rule:evenodd;fill:#1d1d1b"/><circle cx="162.4" cy="34.3" r="3.9" id="circle27" style="fill-rule:evenodd;clip-rule:evenodd;fill:#fff"/></g></svg>