<svg width="144" height="144" xmlns="http://www.w3.org/2000/svg"><g style="line-height:0%;letter-spacing:0;word-spacing:0;fill:#d40000"><path d="m25.742 836.836 8.876-9.23 28.283 38.105h21.183L45.98 816.599l34.437-37.159H59.47l-33.728 37.87v-37.87H7.992v86.271h17.75z" style="font-weight:700;font-size:118.341px;line-height:1.25" transform="matrix(.83777 0 0 1.19364 0 -908.362)" aria-label="K"/></g><g style="line-height:0%;letter-spacing:0;word-spacing:0;fill:#2b0000"><path d="M88.339 932.963h42.806c8.978 0 15.614-2.472 20.688-7.937 4.684-4.944 7.286-11.71 7.286-19.126 0-11.45-5.204-18.346-17.305-23.03 8.718-4.033 13.142-10.929 13.142-20.687 0-7.026-2.603-13.011-7.547-17.435-5.074-4.554-11.45-6.636-20.557-6.636H88.339zm12.1-53.996V848.78h23.42c6.766 0 10.54.911 13.792 3.383 3.383 2.602 5.204 6.506 5.204 11.71 0 5.205-1.821 9.108-5.204 11.71-3.253 2.472-7.026 3.383-13.792 3.383zm0 43.327v-32.658h29.535c10.67 0 17.045 6.115 17.045 16.394 0 10.149-6.376 16.264-17.045 16.264z" style="font-size:130.111px;line-height:1.25" transform="matrix(.90197 0 0 1.10868 0 -908.362)" aria-label="B"/></g></svg>