<svg width="234.967" height="234.967" viewBox="0 0 62.168 62.168" xmlns:xlink="http://www.w3.org/1999/xlink" xmlns="http://www.w3.org/2000/svg"><defs><linearGradient id="b"><stop style="stop-color:#4962d5;stop-opacity:1" offset="0"/><stop style="stop-color:#749bef;stop-opacity:1" offset="1"/></linearGradient><linearGradient id="a"><stop style="stop-color:#f3f5f9;stop-opacity:1" offset="0"/><stop style="stop-color:#e1e4ea;stop-opacity:1" offset="1"/></linearGradient><linearGradient xlink:href="#a" id="c" x1="92.034" y1="98.332" x2="92.034" y2="160.508" gradientUnits="userSpaceOnUse" gradientTransform="translate(-.58 16.268)"/><linearGradient xlink:href="#b" id="d" gradientUnits="userSpaceOnUse" x1="74.99" y1="153.512" x2="115.565" y2="112.938" gradientTransform="translate(.671 17.592) scale(.98826)"/></defs><g transform="translate(-60.14 -114.73)"><circle style="fill:url(#c);fill-opacity:1;stroke:#d5d5d5;stroke-width:.264583;stroke-opacity:1" cx="91.224" cy="145.814" r="30.952"/><circle style="fill:url(#d);fill-opacity:1;stroke:none;stroke-width:.261477;stroke-opacity:1" cx="91.224" cy="145.814" r="28.853"/><path style="fill:#fff;fill-opacity:1;stroke-width:.264583" d="m96.247 156.012-7.55-7.527-2.117 1.048c-3.621 1.794-7.263 2.022-10.101.634-3.007-1.471-4.173-3.847-4.012-8.18.095-2.582.158-2.835 1.25-5.04 1.401-2.826 4.045-5.644 6.654-7.09 4.709-2.612 10.25-2.3 12.908.729 1.442 1.641 1.729 2.452 1.849 5.224.128 2.953-.43 5.292-1.763 7.388l-.776 1.222 3.746 3.74 3.747 3.74.845-.845.845-.845-1.18-1.261c-.65-.694-1.18-1.431-1.18-1.638 0-.207.476-.867 1.058-1.467 1.731-1.784 1.996-1.676 6.047 2.472 1.913 1.959 3.478 3.76 3.478 4.003 0 .575-2.18 2.754-2.754 2.754-.244 0-1.011-.531-1.705-1.18l-1.261-1.18-.84.84-.838.838 2.64 2.684c2.24 2.276 2.642 2.813 2.642 3.533 0 1.788-1.12 2.917-2.9 2.926l-1.18.006zM83.272 145.6c1.078-.78 1.892-2.642 1.704-3.897l-.16-1.068 1.59.01c1.202.007 1.766-.123 2.32-.536 1.337-.997 1.822-1.896 1.822-3.377 0-1.735-.81-2.95-2.45-3.676-1.534-.678-2.69-.46-4.042.76-1.17 1.056-1.645 2.353-1.408 3.836l.158.986-1.42-.141c-1.201-.12-1.563-.045-2.34.485-2.056 1.4-2.627 3.352-1.544 5.277 1.251 2.227 3.747 2.807 5.77 1.342z"/></g></svg>