<svg width="1096.358" height="1096.358" viewBox="0 0 290.078 290.078" xmlns="http://www.w3.org/2000/svg"><g style="fill:#43b0e8;fill-opacity:1"><path d="M0 0a2.586 2.586 0 0 1-2.583-2.583A2.586 2.586 0 0 1 0-5.166a2.586 2.586 0 0 1 2.583 2.583A2.586 2.586 0 0 1 0 0" style="fill:#43b0e8;fill-opacity:1;fill-rule:nonzero;stroke:none" transform="matrix(7.63632 0 0 -7.63632 145.037 151.422)"/></g><g style="fill:#43b0e8;fill-opacity:1"><path d="m0 0 2.685-2.685A18.55 18.55 0 0 0 15.84 2.773c5.132 0 9.785-2.087 13.156-5.458L31.681 0c-4.058 4.058-9.662 6.572-15.841 6.572C9.662 6.572 4.059 4.058 0 0" style="fill:#43b0e8;fill-opacity:1;fill-rule:nonzero;stroke:none" transform="matrix(7.63632 0 0 -7.63632 24.076 50.186)"/></g><g style="fill:#43b0e8;fill-opacity:1"><path d="m0 0 2.685-2.685A11.739 11.739 0 0 0 11.007.768a11.74 11.74 0 0 0 8.323-3.453L22.015 0a15.527 15.527 0 0 1-11.008 4.567A15.525 15.525 0 0 1 0 0" style="fill:#43b0e8;fill-opacity:1;fill-rule:nonzero;stroke:none" transform="matrix(7.63632 0 0 -7.63632 60.982 87.09)"/></g><g style="fill:#43b0e8;fill-opacity:1"><path d="m0 0 2.685-2.685a4.922 4.922 0 0 0 3.49 1.448 4.922 4.922 0 0 0 3.49-1.448L12.35 0a8.711 8.711 0 0 1-6.175 2.562A8.71 8.71 0 0 1 0 0" style="fill:#43b0e8;fill-opacity:1;fill-rule:nonzero;stroke:none" transform="matrix(7.63632 0 0 -7.63632 97.885 123.993)"/></g><g style="fill:#072342;fill-opacity:1"><path d="M0 0a11.714 11.714 0 0 0 2.263-6.93c0-6.493-5.283-11.775-11.776-11.775-6.493 0-11.776 5.282-11.776 11.775 0 2.589.842 4.984 2.264 6.93l-2.708 2.708a15.49 15.49 0 0 1-3.354-9.638c0-8.587 6.986-15.574 15.574-15.574 8.588 0 15.575 6.987 15.575 15.574 0 3.637-1.257 6.984-3.354 9.638z" style="fill:#072342;fill-opacity:1;fill-rule:nonzero;stroke:none" transform="matrix(7.63632 0 0 -7.63632 217.68 118.23)"/></g></svg>