<svg id="cvfy" x="652" y="152" width="119.8" height="119.8" version="1.1" viewBox="0 250 119.8 119.8" xml:space="preserve" xmlns:xlink="http://www.w3.org/1999/xlink" xmlns="http://www.w3.org/2000/svg"><style type="text/css" id="style8">.st3{fill:#403f41}.st19{fill:#e24525}</style><g transform="matrix(.9957 0 0 1 -27.97 -15.7)" id="g150"><defs id="defs11"><path id="cvfu" d="M38.8 284.1v-4.8c0-.4.1-1.1.1-1.1l.2-.5v-.2l.2-.4.1-.1.1-.2.1-.1v-.1l.2-.2v-.1l.7-.7.2-.1h.1l.3-.2h.3l.6-.3c.4-.1.7-.1 1.1-.1h94.6v9.2h9v-18.4H43.1c-7.3 0-13.3 6.1-13.3 13.6v4.8z"/></defs><clipPath id="cvfb"><use width="100%" height="100%" xlink:href="#cvfu" id="use13"/></clipPath><path clip-path="url(#cvfb)" id="rect16" style="clip-path:url(#cvfb);fill:#898b8d" d="M30.2 264.7h117.1v12H30.2z"/><linearGradient id="cvfj" x1="-2420" x2="-2400" y1="800.1" y2="800.1" gradientTransform="matrix(.1869 .3575 -.6751 .353 1133 856.1)" gradientUnits="userSpaceOnUse"><stop style="stop-color:#737373" offset="0" id="stop18"/><stop style="stop-color:#333" offset="1" id="stop20"/></linearGradient><path clip-path="url(#cvfb)" style="fill:url(#cvfj);clip-path:url(#cvfb)" id="polygon23" d="m150.7 277.1-13.2 7.1-3.7-7.2 13.2-7.1z"/><linearGradient id="cvfi" x1="-2368" x2="-2347" y1="2163" y2="2163" gradientTransform="matrix(-.1861 .3579 -.5495 -.2858 785 1739)" gradientUnits="userSpaceOnUse"><stop style="stop-color:#737373" offset="0" id="stop25"/><stop style="stop-color:#333" offset="1" id="stop27"/></linearGradient><path clip-path="url(#cvfb)" style="fill:url(#cvfi);clip-path:url(#cvfb)" id="polygon30" d="m38.9 284.1-10.7-5.7 3.7-7.3 10.7 5.8z"/><path class="st3" id="rect32" d="M47.8 284.1h80.9v9.2H47.8z"/><path class="st3" id="rect34" d="M47.8 358h80.9v9.2H47.8z"/><defs id="defs37"><path id="cvft" d="M137.7 367.2v4.8c0 .4-.1 1.1-.1 1.1l-.2.5v.2l-.2.4-.1.1-.1.2-.1.1v.1l-.2.2v.1l-.5.5h-.1l-.1.1-.2.1-.1.1-.3.2h-.3l-.5.2c-.4.1-.7.1-1.1.1H38.8v-9.2h-9v18.4h103.6c7.3 0 13.3-6.1 13.3-13.6v-4.8h-9z"/></defs><clipPath id="cvfa"><use width="100%" height="100%" xlink:href="#cvft" id="use39"/></clipPath><path clip-path="url(#cvfa)" id="rect42" style="clip-path:url(#cvfa);fill:#898b8d" d="M29.2 374.6h117.1v12H29.2z"/><linearGradient id="cvfh" x1="1480" x2="1501" y1="2101" y2="2101" gradientTransform="matrix(-.1869 -.3575 .6751 -.353 -1106 1649)" gradientUnits="userSpaceOnUse"><stop style="stop-color:#737373" offset="0" id="stop44"/><stop style="stop-color:#333" offset="1" id="stop46"/></linearGradient><path clip-path="url(#cvfa)" style="fill:url(#cvfh);clip-path:url(#cvfa)" id="polygon49" d="m25.8 374.2 13.2-7.1 3.7 7.3-13.2 7.1z"/><linearGradient id="cvfg" x1="1880" x2="1900" y1="995.7" y2="995.7" gradientTransform="matrix(.1861 -.3579 .5495 .2858 -757.7 765.5)" gradientUnits="userSpaceOnUse"><stop style="stop-color:#737373" offset="0" id="stop51"/><stop style="stop-color:#333" offset="1" id="stop53"/></linearGradient><path clip-path="url(#cvfa)" style="fill:url(#cvfg);clip-path:url(#cvfa)" id="polygon56" d="m137.6 367.2 10.8 5.7-3.7 7.3-10.8-5.8z"/><defs id="defs59"><path id="cvfs" d="M38.8 302.6h34.6v9.2H38.8z"/></defs><clipPath id="cvff"><use width="100%" height="100%" xlink:href="#cvfs" id="use61"/></clipPath><path clip-path="url(#cvff)" id="rect64" style="clip-path:url(#cvff);fill:#58595b" d="M38.8 302.6h34.6v9.2H38.8z"/><linearGradient id="cvfr" x1="2724" x2="2762" y1="2480" y2="2480" gradientTransform="matrix(-1.521 -1.021 3.14 1.519 -3559 -659.4)" gradientUnits="userSpaceOnUse"><stop style="stop-color:#58595b" offset=".107" id="stop66"/><stop offset="1" id="stop68"/></linearGradient><path clip-path="url(#cvff)" style="fill:url(#cvfr);clip-path:url(#cvff)" id="polygon71" d="m42.1 295 31.4 16.8-3.8 7.4-31.3-16.8z"/><defs id="defs74"><path id="cvfx" d="M103.1 302.6h34.6v9.2h-34.6z"/></defs><clipPath id="cvfe"><use width="100%" height="100%" xlink:href="#cvfx" id="use76"/></clipPath><path clip-path="url(#cvfe)" id="rect79" style="clip-path:url(#cvfe);fill:#58595b" d="M103.1 302.6h34.6v9.2h-34.6z"/><linearGradient id="cvfq" x1="2370" x2="2408" y1="2242" y2="2242" gradientTransform="matrix(1.521 -1.021 -3.14 1.519 3527 -659.4)" gradientUnits="userSpaceOnUse"><stop style="stop-color:#58595b" offset=".107" id="stop81"/><stop offset="1" id="stop83"/></linearGradient><path clip-path="url(#cvfe)" style="fill:url(#cvfq);clip-path:url(#cvfe)" id="polygon86" d="m134.4 295-31.3 16.8 3.7 7.4 31.4-16.8z"/><defs id="defs89"><path id="cvfw" d="M103.1 339.5h34.6v9.2h-34.6z"/></defs><clipPath id="cvfd"><use width="100%" height="100%" xlink:href="#cvfw" id="use91"/></clipPath><path clip-path="url(#cvfd)" id="rect94" style="clip-path:url(#cvfd);fill:#58595b" d="M103.1 339.5h34.6v9.2h-34.6z"/><linearGradient id="cvfp" x1="-2721" x2="-2683" y1="-204.9" y2="-204.9" gradientTransform="matrix(1.521 1.021 -3.14 -1.519 3587 2791)" gradientUnits="userSpaceOnUse"><stop style="stop-color:#58595b" offset=".107" id="stop96"/><stop offset="1" id="stop98"/></linearGradient><path clip-path="url(#cvfd)" style="fill:url(#cvfp);clip-path:url(#cvfd)" id="polygon101" d="m134.4 356.3-31.3-16.8 3.7-7.4 31.4 16.8z"/><defs id="defs104"><path id="cvfv" d="M38.8 339.5h34.6v9.2H38.8z"/></defs><clipPath id="cvfc"><use width="100%" height="100%" xlink:href="#cvfv" id="use106"/></clipPath><path clip-path="url(#cvfc)" id="rect109" style="clip-path:url(#cvfc);fill:#58595b" d="M38.8 339.5h34.6v9.2H38.8z"/><linearGradient id="cvfo" x1="-2569" x2="-2530" y1="-102.7" y2="-102.7" gradientTransform="matrix(-1.521 1.021 3.14 -1.519 -3500 2791)" gradientUnits="userSpaceOnUse"><stop style="stop-color:#58595b" offset=".107" id="stop111"/><stop offset="1" id="stop113"/></linearGradient><path clip-path="url(#cvfc)" style="fill:url(#cvfo);clip-path:url(#cvfc)" id="polygon116" d="m42.1 356.3 31.4-16.8-3.8-7.4-31.3 16.8z"/><linearGradient id="cvfn" x1="29.84" x2="73.4" y1="295.5" y2="295.5" gradientUnits="userSpaceOnUse"><stop style="stop-color:#a6a8ab" offset=".237" id="stop118"/><stop style="stop-color:#404040" offset="1" id="stop120"/></linearGradient><path style="fill:url(#cvfn)" id="polygon123" d="M29.8 288.5v-9.2l43.6 23.3v9.2z"/><linearGradient id="cvfm" x1="-287.9" x2="-244.3" y1="295.5" y2="295.5" gradientTransform="matrix(-1 0 0 1 -141.2 0)" gradientUnits="userSpaceOnUse"><stop style="stop-color:#a6a8ab" offset=".237" id="stop125"/><stop style="stop-color:#404040" offset="1" id="stop127"/></linearGradient><path style="fill:url(#cvfm)" id="polygon130" d="M146.7 288.5v-9.2l-43.6 23.3v9.2z"/><linearGradient id="cvfl" x1="-119.4" x2="-75.84" y1="1846" y2="1846" gradientTransform="rotate(180 13.64 1101)" gradientUnits="userSpaceOnUse"><stop style="stop-color:#a6a8ab" offset=".237" id="stop132"/><stop style="stop-color:#404040" offset="1" id="stop134"/></linearGradient><path style="fill:url(#cvfl)" id="polygon137" d="M146.7 362.8v9.3l-43.6-23.3v-9.3z"/><linearGradient id="cvfk" x1="-138.6" x2="-95.07" y1="1846" y2="1846" gradientTransform="matrix(1 0 0 -1 168.5 2202)" gradientUnits="userSpaceOnUse"><stop style="stop-color:#a6a8ab" offset=".237" id="stop139"/><stop style="stop-color:#404040" offset="1" id="stop141"/></linearGradient><path style="fill:url(#cvfk)" id="polygon144" d="M29.8 362.8v9.3l43.6-23.3v-9.3z"/><path class="st19" id="polygon146" d="M128.7 316.6v-9.2L103.1 321v9.3l25.6 13.7v-9.3l-8.3-4.4h26.3V321h-26.3z"/><path class="st19" id="polygon148" d="M56.2 321H29.8v9.3h26.3l-8.3 4.4v9.3l25.6-13.7V321l-25.6-13.6v9.2z"/></g></svg>