<svg width="1024" height="1024" xmlns="http://www.w3.org/2000/svg"><defs><filter style="color-interpolation-filters:sRGB" id="a" x="-.022" y="-.025" width="1.044" height="1.05"><feGaussianBlur result="result6" stdDeviation="3" in="SourceGraphic"/><feColorMatrix values="1 0 0 0 0 0 1 0 0 0 0 0 1 0 0 0 0 0 1 0" result="result7" in="SourceGraphic"/><feComposite operator="in" in="result6" in2="result7"/></filter></defs><g style="display:inline"><path style="opacity:1;fill:#3f72b5;fill-opacity:1;fill-rule:nonzero;stroke:none;stroke-width:30;stroke-linecap:butt;stroke-linejoin:round;stroke-miterlimit:4;stroke-dasharray:none;stroke-opacity:1" d="M0 28.362h1024v1024H0z" transform="translate(0 -28.362)"/><path style="opacity:1;fill:#fff;fill-opacity:1;fill-rule:nonzero;stroke:none;stroke-width:62.79862976;stroke-linecap:butt;stroke-linejoin:round;stroke-miterlimit:4;stroke-dasharray:none;stroke-opacity:1" d="M514.655-715.049a260 260 0 0 1 257.332 262.605 260 260 0 0 1-262.569 257.369 260 260 0 0 1-257.406-262.532A260 260 0 0 1 514.51-715.05" transform="matrix(1 0 0 -1 0 -28.362)"/><path style="opacity:1;fill:#fff;fill-opacity:1;fill-rule:nonzero;stroke:#fff;stroke-width:16.44952202;stroke-linecap:butt;stroke-linejoin:round;stroke-miterlimit:4;stroke-dasharray:none;stroke-opacity:1" d="m322.153 700.412 379.987-10.945-180.514 334.55z" transform="matrix(1.09657 .02435 -.01953 .86234 -35.533 -45.176)"/><g transform="rotate(-8.711 325.803 440.181)"><circle transform="scale(1 -1)" r="200" cy="-454.362" cx="512" style="opacity:1;fill:#3f72b5;fill-opacity:1;fill-rule:nonzero;stroke:none;stroke-width:66;stroke-linecap:butt;stroke-linejoin:round;stroke-miterlimit:4;stroke-dasharray:none;stroke-opacity:1"/><path d="M476.68 286.476h70.64l13.548 102.792h-97.736zM346.5 503.125l40.981 69.448 99.297-38.33-56.702-96.087zm330.899-1.13-41.475 68.578-100.489-37.85 57.383-94.882z" style="fill:#fff;fill-opacity:1;fill-rule:evenodd;stroke:none;stroke-width:1px;stroke-linecap:butt;stroke-linejoin:miter;stroke-opacity:1"/><circle r="80" style="opacity:1;fill:#3f72b5;fill-opacity:1;fill-rule:nonzero;stroke:none;stroke-width:1;stroke-linecap:butt;stroke-linejoin:round;stroke-miterlimit:10;stroke-dasharray:none;stroke-opacity:1" cx="512" cy="455.652"/><circle r="57.5" cy="455.284" cx="512" style="opacity:1;fill:#fff;fill-opacity:1;fill-rule:nonzero;stroke:none;stroke-width:20;stroke-linecap:butt;stroke-linejoin:round;stroke-miterlimit:10;stroke-dasharray:none;stroke-opacity:1"/><circle r="37.5" cy="455.292" cx="512" style="opacity:1;fill:#3f72b5;fill-opacity:1;fill-rule:nonzero;stroke:none;stroke-width:1;stroke-linecap:butt;stroke-linejoin:round;stroke-miterlimit:10;stroke-dasharray:none;stroke-opacity:1"/><circle r="12.5" cy="454.635" cx="512" style="opacity:1;fill:#fff;fill-opacity:1;fill-rule:nonzero;stroke:none;stroke-width:20;stroke-linecap:butt;stroke-linejoin:round;stroke-miterlimit:10;stroke-dasharray:none;stroke-opacity:1"/></g><g transform="rotate(-18.632 425.554 440.181)" style="opacity:.56000001;filter:url(#a)"><circle style="opacity:1;fill:#3f72b5;fill-opacity:1;fill-rule:nonzero;stroke:none;stroke-width:66;stroke-linecap:butt;stroke-linejoin:round;stroke-miterlimit:4;stroke-dasharray:none;stroke-opacity:1" cx="512" cy="-454.362" r="200" transform="scale(1 -1)"/><path style="fill:#fff;fill-opacity:1;fill-rule:evenodd;stroke:none;stroke-width:1px;stroke-linecap:butt;stroke-linejoin:miter;stroke-opacity:1" d="M476.68 286.476h70.64l13.548 102.792h-97.736zM346.5 503.125l40.981 69.448 99.297-38.33-56.702-96.087zm330.899-1.13-41.475 68.578-100.489-37.85 57.383-94.882z"/><circle cy="455.652" cx="512" style="opacity:1;fill:#3f72b5;fill-opacity:1;fill-rule:nonzero;stroke:none;stroke-width:1;stroke-linecap:butt;stroke-linejoin:round;stroke-miterlimit:10;stroke-dasharray:none;stroke-opacity:1" r="80"/><circle style="opacity:1;fill:#fff;fill-opacity:1;fill-rule:nonzero;stroke:none;stroke-width:20;stroke-linecap:butt;stroke-linejoin:round;stroke-miterlimit:10;stroke-dasharray:none;stroke-opacity:1" cx="512" cy="455.284" r="57.5"/><circle style="opacity:1;fill:#3f72b5;fill-opacity:1;fill-rule:nonzero;stroke:none;stroke-width:1;stroke-linecap:butt;stroke-linejoin:round;stroke-miterlimit:10;stroke-dasharray:none;stroke-opacity:1" cx="512" cy="455.292" r="37.5"/><circle style="opacity:1;fill:#fff;fill-opacity:1;fill-rule:nonzero;stroke:none;stroke-width:20;stroke-linecap:butt;stroke-linejoin:round;stroke-miterlimit:10;stroke-dasharray:none;stroke-opacity:1" cx="512" cy="454.635" r="12.5"/></g></g></svg>