<svg width="1024" height="1024" xmlns="http://www.w3.org/2000/svg"><g transform="translate(0 -28.362)" style="display:inline"><path style="opacity:.98;fill:#3f72b5;fill-opacity:1;fill-rule:nonzero;stroke:none;stroke-width:30;stroke-linecap:butt;stroke-linejoin:round;stroke-miterlimit:4;stroke-dasharray:none;stroke-opacity:1" d="M0 28.362h1024v1024H0z"/><path style="opacity:1;fill:#fff;fill-opacity:1;fill-rule:nonzero;stroke:none;stroke-width:62.79862976;stroke-linecap:butt;stroke-linejoin:round;stroke-miterlimit:4;stroke-dasharray:none;stroke-opacity:1" d="M514.655 195.076A260 260 0 0 1 771.987 457.68a260 260 0 0 1-262.569 257.37 260 260 0 0 1-257.406-262.533A260 260 0 0 1 514.51 195.074"/><path style="opacity:1;fill:#fff;fill-opacity:1;fill-rule:nonzero;stroke:#fff;stroke-width:16.44952202;stroke-linecap:butt;stroke-linejoin:round;stroke-miterlimit:4;stroke-dasharray:none;stroke-opacity:1" d="m322.153 700.412 379.987-10.945-180.514 334.55z" transform="matrix(1.09657 .02435 -.01953 .86234 -35.533 -16.814)"/><circle style="opacity:1;fill:#3f72b5;fill-opacity:1;fill-rule:nonzero;stroke:none;stroke-width:66;stroke-linecap:butt;stroke-linejoin:round;stroke-miterlimit:4;stroke-dasharray:none;stroke-opacity:1" cx="512" cy="454.362" r="200"/><path style="opacity:1;fill:#fff;fill-opacity:1;fill-rule:nonzero;stroke:none;stroke-width:66;stroke-linecap:butt;stroke-linejoin:round;stroke-miterlimit:4;stroke-dasharray:none;stroke-opacity:1" d="M479.373 501.855h67.542v178.507h-67.542z"/><path style="opacity:1;fill:#fff;fill-opacity:1;fill-rule:nonzero;stroke:#fff;stroke-width:11.83245564;stroke-linecap:round;stroke-linejoin:round;stroke-miterlimit:4;stroke-dasharray:none;stroke-opacity:1" d="M439.626 591.715 512.84 474.74l64.696 121.89z" transform="matrix(1.49819 -.04266 .04565 1.21916 -275.96 -198.649)"/></g></svg>