<svg width="720" height="720" xmlns="http://www.w3.org/2000/svg"><path d="M231.484 1.656c-3.619.113-7.517 1.45-11.937 4.938C208.72 2.417 198.22.967 188.828 9.469c-14.494-1.881-19.21 2-22.781 6.531-3.183-.066-23.819-3.272-33.281 10.844-23.782-2.814-31.297 13.988-22.782 29.656-4.857 7.519-9.89 14.947 1.47 29.281-4.019 7.984-1.528 16.644 7.937 27.125-2.498 11.223 2.412 19.141 11.218 25.313-1.647 15.357 14.084 24.287 18.782 27.469 1.803 8.948 5.563 17.392 23.53 22.062 2.964 13.336 13.763 15.64 24.22 18.438-34.562 20.089-64.201 46.522-64 111.375l-5.063 9.03c-39.63 24.103-75.285 101.567-19.531 164.532 3.642 19.708 9.75 33.864 15.187 49.531 8.134 63.13 61.218 92.692 75.22 96.188 20.516 15.628 42.367 30.456 71.937 40.843 27.875 28.75 58.074 39.707 88.437 39.688.445 0 .899.005 1.344 0 30.364.019 60.562-10.938 88.437-39.688 29.57-10.387 51.421-25.215 71.938-40.843 14.001-3.496 67.085-33.057 75.219-96.188 5.438-15.667 11.545-29.823 15.187-49.531 55.754-62.965 20.1-140.429-19.531-164.531l-5.063-9.031c.201-64.853-29.438-91.286-64-111.375 10.457-2.799 21.256-5.102 24.22-18.438 17.967-4.67 21.727-13.114 23.53-22.063 4.698-3.18 20.429-12.11 18.782-27.468 8.806-6.172 13.716-14.09 11.218-25.313 9.465-10.48 11.956-19.141 7.938-27.125 11.358-14.334 6.326-21.762 1.469-29.281 8.515-15.668 1-32.47-22.782-29.656-9.462-14.116-30.098-10.91-33.28-10.844-3.572-4.53-8.288-8.412-22.782-6.531-9.392-8.502-19.892-7.052-30.719-2.875-12.86-10.148-21.372-2.014-31.094 1.062-15.573-5.088-19.133 1.881-26.78 4.719-16.976-3.588-22.136 4.224-30.282 12.469l-9.469-.188c-25.61 15.093-38.334 45.826-42.844 61.625-4.512-15.802-17.206-46.534-42.812-61.625l-9.469.188c-8.146-8.245-13.306-16.057-30.281-12.469-7.648-2.838-11.208-9.807-26.781-4.719-6.38-2.018-12.247-6.214-19.157-6z" style="fill:#373737"/><path d="M180.501 68.056c67.948 35.03 107.447 63.369 129.087 87.504-11.082 44.418-68.896 46.445-90.035 45.199 4.328-2.015 7.94-4.428 9.22-8.136-5.304-3.77-24.113-.397-37.243-7.774 5.044-1.045 7.403-2.063 9.763-5.786-12.406-3.956-25.77-7.366-33.628-13.92 4.241.052 8.201.948 13.74-2.894-11.112-5.988-22.969-10.733-32.181-19.887 5.745-.14 11.94-.057 13.74-2.17-10.17-6.3-18.751-13.307-25.853-20.972 8.04.97 11.435.135 13.378-1.265-7.687-7.874-17.417-14.523-22.057-24.227 5.97 2.058 11.432 2.845 15.368-.18-2.612-5.894-13.805-9.37-20.249-23.142 6.284.61 12.95 1.371 14.283 0-2.923-11.889-7.928-18.57-12.837-25.492 13.45-.2 33.828.052 32.905-1.085l-8.317-8.497c13.138-3.537 26.581.568 36.34 3.616 4.382-3.458-.078-7.83-5.424-12.294 11.165 1.49 21.254 4.057 30.374 7.593 4.872-4.4-3.164-8.799-7.051-13.198 17.25 3.273 24.557 7.87 31.82 12.475 5.269-5.05.301-9.343-3.255-13.74 13.006 4.817 19.705 11.035 26.758 17.175 2.391-3.227 6.075-5.592 1.627-13.379 9.234 5.323 16.19 11.595 21.334 18.622 5.713-3.638 3.404-8.613 3.435-13.198 9.596 7.807 15.687 16.114 23.141 24.226 1.502-1.093 2.817-4.801 3.978-10.666 22.895 22.211 55.246 78.158 8.316 100.34-39.918-32.947-87.616-56.887-140.477-74.848zm360.533 0c-67.947 35.03-107.447 63.369-129.087 87.504 11.082 44.418 68.896 46.445 90.036 45.199-4.329-2.015-7.94-4.428-9.22-8.136 5.304-3.77 24.112-.397 37.243-7.774-5.044-1.045-7.404-2.063-9.763-5.786 12.406-3.956 25.769-7.366 33.628-13.92-4.242.052-8.202.948-13.74-2.894 11.111-5.988 22.968-10.733 32.18-19.887-5.745-.14-11.939-.057-13.74-2.17 10.17-6.3 18.752-13.307 25.854-20.972-8.04.97-11.435.135-13.379-1.265 7.688-7.874 17.418-14.523 22.057-24.227-5.97 2.058-11.431 2.845-15.367-.18 2.612-5.894 13.805-9.37 20.248-23.142-6.284.61-12.95 1.371-14.282 0 2.922-11.889 7.927-18.57 12.836-25.492-13.45-.2-33.828.052-32.904-1.085l8.316-8.497c-13.138-3.537-26.58.568-36.34 3.616-4.381-3.458.078-7.83 5.424-12.294-11.165 1.49-21.254 4.057-30.373 7.593-4.873-4.4 3.164-8.799 7.05-13.198-17.249 3.273-24.556 7.87-31.819 12.475-5.27-5.05-.302-9.343 3.254-13.74-13.005 4.817-19.705 11.035-26.757 17.175-2.391-3.227-6.075-5.592-1.627-13.379-9.235 5.323-16.19 11.595-21.334 18.622-5.714-3.638-3.404-8.613-3.435-13.198-9.597 7.807-15.687 16.114-23.142 24.226-1.502-1.093-2.817-4.801-3.977-10.666-22.896 22.211-55.246 78.158-8.317 100.34 39.919-32.947 87.616-56.887 140.477-74.848z" style="fill:#fff"/><path d="M443.056 520.361a81.39 75.052 0 1 1-162.78 0 81.39 75.052 0 1 1 162.78 0z" style="fill:#fff;stroke-width:1.12958"/><path d="M314.563 305.962a72.999 86.13 34.034 1 1-94.967 143.713 72.999 86.13 34.034 1 1 94.967-143.713z" style="fill:#fff;stroke-width:1.90077"/><path d="M405.596 301.962a86.13 72.999 55.966 1 0 94.967 143.713 86.13 72.999 55.966 1 0-94.967-143.713z" style="fill:#fff;stroke-width:1.90077"/><path d="M146.02 342.088c36.414-9.757 12.291 150.636-17.334 137.476C96.1 453.35 85.603 376.588 146.02 342.088zm420.768-2c-36.415-9.757-12.292 150.636 17.333 137.476 32.587-26.213 43.083-102.976-17.333-137.476zM443.081 220.653c62.835-10.61 115.116 26.723 113.011 94.858-2.067 26.121-136.158-90.969-113.011-94.858zm-173.611-2c-62.836-10.61-115.117 26.723-113.012 94.858 2.067 26.121 136.158-90.969 113.011-94.858zm90.259-15.897c-37.503-.976-73.496 27.834-73.582 44.544-.105 20.304 29.651 41.093 73.837 41.62 45.123.324 73.916-16.64 74.061-37.594.165-23.74-41.038-48.937-74.316-48.57zm2.29 416.361c32.697-1.427 76.57 10.532 76.657 26.396.542 15.405-39.79 50.21-78.827 49.537-40.427 1.744-80.069-33.115-79.55-45.198-.604-17.716 49.227-31.548 81.72-30.735zm-120.771-94.013c23.28 28.045 33.89 77.319 14.464 91.843-18.38 11.088-63.013 6.522-94.737-39.051-21.395-38.242-18.637-77.157-3.615-88.59 22.464-13.684 57.173 4.8 83.888 35.798zm236.882-8.892c-25.187 29.501-39.212 83.31-20.838 100.643 17.569 13.463 64.73 11.581 99.566-36.756 25.296-32.465 16.82-86.682 2.37-101.075-21.463-16.602-52.276 4.645-81.098 37.188z" style="fill:#fff"/></svg>