<svg xml:space="preserve" width="104.102" height="104.102" xmlns="http://www.w3.org/2000/svg"><path d="M28 6.751c-2 0-3.9.401-5.7 1.201-1.8.8-3.398 1.9-4.698 3.2l34.5 38 34.398-38c-1.4-1.4-2.9-2.4-4.7-3.2-1.7-.8-3.698-1.2-5.698-1.2-2.1 0-4.1.5-5.9 1.3-1.8.9-3.402 2-4.802 3.5l-13.298 14.7-13.4-14.7c-1.3-1.5-2.902-2.7-4.702-3.5-1.8-.9-3.8-1.3-6-1.3Zm24.102 48.201-34.5 38c1.3 1.3 2.899 2.4 4.699 3.2 1.8.8 3.699 1.199 5.699 1.199 2.1 0 4.1-.399 6-1.299 1.8-.8 3.4-2 4.8-3.5l13.302-14.701L65.5 92.552c1.3 1.5 2.901 2.6 4.701 3.5 1.8.8 3.8 1.299 6 1.299 2 0 4-.4 5.7-1.2 1.8-.8 3.3-1.799 4.7-3.199z"/><path d="M11.4 11.5c-2.3 0-4.298.5-6.298 1.3-1.9.9-3.602 2-5.102 3.5l26.4 29L0 74.3c1.4 1.5 3.202 2.7 5.102 3.5 2 .9 4.098 1.3 6.298 1.3 2.4 0 4.6-.499 6.6-1.399s3.701-2.2 5.201-3.8l26-28.6-26-28.6c-1.5-1.6-3.3-2.9-5.3-3.8-2-.9-4.2-1.401-6.5-1.401zm81.301 0c-2.3 0-4.5.5-6.5 1.4-2 .9-3.8 2.201-5.3 3.801L55 45.301l26 28.6c1.5 1.6 3.201 2.9 5.201 3.8 2 .9 4.2 1.399 6.5 1.399 2.2 0 4.299-.4 6.299-1.3 2-.8 3.702-2 5.102-3.5l-26.4-29 26.4-29c-1.5-1.5-3.202-2.6-5.102-3.5-1.9-.8-3.999-1.3-6.299-1.3z" style="fill:#e57000" transform="translate(0 6.751)"/></svg>