<svg style="isolation:isolate" viewBox="-14.89 -13.85 597.902 597.902" width="797.203" height="797.203" xmlns="http://www.w3.org/2000/svg"><defs><clipPath id="a"><path d="M-14.89-13.85h597.902v556.138H-14.89z"/></clipPath></defs><g clip-path="url(#a)" transform="translate(0 20.882)"><g style="isolation:isolate" fill="#532297"><path d="M159.572 311.781c-.11-.15-.217-.301-.324-.452l-63.367 44.816c-21.356-30.234-33.906-67.121-33.906-106.917 0-102.448 83.175-185.623 185.623-185.623 17.251 0 33.956 2.359 49.809 6.771l-.02.07c38.58 11.336 61.292 51.52 50.828 90.571a74.044 74.044 0 0 1-11.787 24.644c.191.26.379.524.566.788l62.346-44.102c21.34 30.227 33.881 67.101 33.881 106.881 0 102.448-83.175 185.623-185.623 185.623-16.962 0-33.396-2.28-49.011-6.55l.004-.015c-39.054-11.02-62.145-51.482-51.61-90.797 2.572-9.601 6.915-18.258 12.591-25.708zm306.261 82.679 81.048 81.048 36.131 36.131-114.383 30.649-75.332-75.332c-41.695 27.896-91.812 44.17-145.699 44.17-144.871 0-262.488-117.617-262.488-262.488 0-144.871 117.617-262.488 262.488-262.488 144.871 0 262.488 117.617 262.488 262.488 0 53.94-16.306 104.102-44.253 145.822z" fill-rule="evenodd"/><path d="m342.558 264.026-63.13 36.449-63.13 36.448c-7.169 4.139-12.99.778-12.99-7.5V183.63c0-8.279 5.821-11.639 12.99-7.5l63.13 36.448 63.13 36.448c7.17 4.14 7.17 10.861 0 15z"/></g></g></svg>