<svg width="330.567" height="330.567" xmlns:xlink="http://www.w3.org/1999/xlink" xmlns="http://www.w3.org/2000/svg"><defs><linearGradient id="a"><stop style="stop-color:#fff;stop-opacity:1" offset="0"/><stop style="stop-color:#fff;stop-opacity:0" offset="1"/></linearGradient><linearGradient id="b"><stop style="stop-color:#a9a9a9;stop-opacity:1" offset="0"/><stop style="stop-color:#000;stop-opacity:1" offset="1"/></linearGradient><linearGradient xlink:href="#a" id="d" x1="120.689" y1="239.618" x2="120.689" y2="602.175" gradientUnits="userSpaceOnUse" gradientTransform="translate(85.803 -59.727) scale(.76866)"/><radialGradient xlink:href="#b" id="c" cx="294.459" cy="208.38" fx="294.459" fy="208.38" r="107.581" gradientUnits="userSpaceOnUse" gradientTransform="translate(-107.076 -37.8)"/><filter id="e" x="-6.941" width="14.881" y="-.097" height="1.195"><feGaussianBlur stdDeviation="6.476"/></filter></defs><g transform="translate(-61.72 -43.9)"><path style="fill:#000;fill-opacity:1;fill-rule:nonzero;stroke:none" d="M70.523 57.68c-7.12 15.243-10.178 31.78-8.225 48.815 5.016 43.774 41.675 79.324 91.536 95.162-6.626-22.407-5.341-44.936 2.64-65.844-47.738-14.183-81.646-42.808-85.95-78.133zm233.256 1.343c7.12 15.243 10.178 31.78 8.225 48.815-5.016 43.774-41.675 79.324-91.536 95.163 6.626-22.408 5.341-44.936-2.64-65.844 47.738-14.183 81.646-42.809 85.95-78.134z"/><path style="fill:#000;fill-opacity:1;fill-rule:nonzero;stroke:none" d="m192.268 196.508 12.075-13.905c4.078-4.697 19.958 2.46 35.604 16.046L370.448 311.97c15.646 13.586 24.959 28.305 20.88 33.002l-12.075 13.906c-4.078 4.696-19.958-2.46-35.604-16.046L213.148 229.51c-15.646-13.586-24.959-28.305-20.88-33.002z"/><circle style="fill:url(#c);fill-opacity:1;fill-rule:nonzero;stroke:none" cx="187.383" cy="170.58" r="107.581"/><circle style="fill:url(#d);fill-opacity:1;fill-rule:nonzero;stroke:none;stroke-width:.768657" cx="187.131" cy="170.327" r="78.034"/><circle style="fill:#1a1a1a;fill-opacity:1;fill-rule:nonzero;stroke:none" cx="188.343" cy="172.023" r="27.274"/><circle style="fill:#fff;fill-opacity:1;fill-rule:nonzero;stroke:none" cx="199.475" cy="162.574" r="5.556"/><rect style="fill:#fff;fill-opacity:.822115;fill-rule:nonzero;stroke:none;filter:url(#e)" width="2.239" height="159.438" x="19.526" y="337.84" rx="2.867" ry="9.001" transform="matrix(.60774 -.77934 .68814 .68828 16.309 10.826)"/></g></svg>