<svg width="456" height="456.33" xml:space="preserve" xmlns="http://www.w3.org/2000/svg"><path d="M123.412 155.072s24.668-21.475 97.677-21.475c66.979 0 85.8 15.194 104.918 21.475l-99.736 48.735z" style="fill:#c9781f"/><path d="M118.946 476.458c.707 14.572 15.264 7.83 21.858 3.274 6.259-4.325 8.089-.73 8.638-9.266.36-5.61 1.007-11.22.688-16.853-9.464-.858-19.759 1.396-27.518 7.033-3.996 2.905-11.49 12.174-3.666 15.812" style="fill:#f6d2a2" transform="translate(36.96 -84.875) scale(.63926)"/><path d="M118.946 476.458c2.119-.788 4.364-1.348 5.802-3.264" style="fill:#c6b198" transform="translate(36.96 -84.875) scale(.63926)"/><path d="M152.588 302.861c-55.784-15.687-14.304-86.654 30.492-57.464zm247.848-62.79c44.155-31.014 84.056 38.959 32.74 56.565z" style="fill:#37abc8" transform="translate(36.96 -84.875) scale(.63926)"/><path d="M409.934 655.8c11.216 6.94 31.716 27.923 14.891 38.098-16.166 14.802-25.214-16.247-39.403-20.549 6.111-8.298 13.856-15.865 24.512-17.549z" style="fill:#f6d2a2" transform="translate(36.96 -84.875) scale(.63926)"/><path d="M424.825 693.897c-2.494-4.96-3.332-10.748-7.496-14.746" style="fill:none" transform="translate(36.96 -84.875) scale(.63926)"/><path d="M209.561 679.514c-13.164 2.037-20.574 13.914-31.548 19.945-10.341 6.166-14.297-1.974-15.229-3.627-1.621-.739-1.485.688-3.987-1.831-9.587-15.13 9.989-26.189 20.182-33.705 14.198-2.871 23.096 9.438 30.582 19.218z" style="fill:#f6d2a2" transform="translate(36.96 -84.875) scale(.63926)"/><path d="M162.785 695.831c.501-5.766 5.074-9.628 7.251-14.504" style="fill:none" transform="translate(36.96 -84.875) scale(.63926)"/><path d="M154.916 283.26c-7.36-3.893-12.759-9.18-8.257-17.693 4.168-7.88 11.911-7.025 19.271-3.132zm266.633-7.401c7.36-3.893 12.759-9.18 8.257-17.693-4.168-7.881-11.91-7.025-19.271-3.132z" style="fill:#077e91" transform="translate(36.96 -84.875) scale(.63926)"/><path d="M472.21 474.607c-.707 14.572-15.264 7.83-21.858 3.274-6.259-4.325-8.089-.73-8.638-9.265-.36-5.61-1.007-11.22-.688-16.853 9.464-.858 19.759 1.396 27.518 7.033 3.996 2.904 11.49 12.174 3.666 15.811" style="fill:#f6d2a2" transform="translate(36.96 -84.875) scale(.63926)"/><path d="M472.21 474.607c-2.119-.788-4.364-1.348-5.802-3.264" style="fill:#c6b198" transform="translate(36.96 -84.875) scale(.63926)"/><path d="M289.988 210.595c55.847 0 108.2 7.987 135.492 61.642 24.496 60.141 15.785 124.993 19.521 188.553 3.208 54.577 10.322 117.629-14.997 168.205-26.635 53.21-93.191 66.595-148.026 64.634-43.071-1.541-95.101-15.593-119.409-54.944-28.519-46.165-15.017-114.81-12.946-166.179 2.454-60.849-16.482-121.882 3.508-181.425 20.737-61.765 76.665-75.724 136.857-80.486" style="fill:#37abc8" transform="translate(36.96 -84.875) scale(.63926)"/><path d="M299.847 285.567c10.027 58.288 105.304 42.877 91.619-15.91-12.271-52.716-94.951-38.124-91.619 15.91m-113.855 9.427c12.996 50.745 94.24 37.753 91.178-13.149-3.669-60.964-103.603-49.2-91.178 13.149m132.351 58.517c.044 7.79 1.843 15.403.289 24.148-1.935 3.656-5.729 4.043-9.001 5.52-4.524-.71-8.328-3.68-10.143-7.912-1.161-9.202.433-18.111.726-27.316z" style="fill:#fff" transform="translate(36.96 -84.875) scale(.63926)"/><g transform="translate(36.96 -84.875) scale(.63926)"><ellipse cx="208.4" cy="286.718" rx="13.719" ry="14.86"/><ellipse cx="214.64" cy="290.071" rx="3.234" ry="3.777" style="fill:#fff"/></g><g transform="translate(36.96 -84.875) scale(.63926)"><ellipse cx="323.348" cy="283.017" rx="13.491" ry="14.86"/><ellipse cx="329.485" cy="286.371" rx="3.181" ry="3.777" style="fill:#fff"/></g><path d="M279.137 354.685c-5.986 14.507 3.338 43.515 19.579 22.119-1.161-9.202.433-18.111.726-27.316z" style="fill:#fff" transform="translate(36.96 -84.875) scale(.63926)"/><path d="M278.185 326.748c-11.156.951-20.276 14.216-14.475 24.71 7.682 13.9 24.828-1.23 35.507.188 12.291.252 22.361 12.996 32.233 2.304 10.979-11.892-4.727-23.474-17.002-28.652z" style="fill:#f6d2a2" transform="translate(36.96 -84.875) scale(.63926)"/><path d="M135.236 375.349s3.532 38.261 3.29 54.754c-.242 16.492 15.56 6.079 16.38 32.016.82 25.937-9.572 21.018-15.047 33.713-5.475 12.694-9.196 72.145-9.196 72.145s5.618 11.108 23.166 21.11c17.548 10.002 45.765 15.62 70.198 14.513 24.433-1.107 41.885-6.341 46.249-9.236 4.363-2.894 11.605-12.05 14.329-19.131 2.724-7.081 8.415-65.402 8.018-98.775-.397-33.373-5.911-64.166-5.911-64.166z" style="fill:#ef9325" transform="translate(36.96 -84.875) scale(.63926)"/><path d="M290.007 537.841c-71.952 8.032-155.439-14.172-155.439-14.172s1.226-22.521 6.626-30.447c74.833 23.185 150.329 15.834 150.329 15.834 1.12 10.514.331 18.872-1.516 28.785zm-9.057 44.387c-71.952 8.032-150.287-15.064-150.287-15.064s-.251-21.631 2.607-31.13c74.833 23.185 154.763 17.407 154.763 17.407-.673 11.413-2.278 22.646-7.083 28.787z" style="fill:#e5e5e5" transform="translate(36.96 -84.875) scale(.63926)"/><path d="M452.156 375.349s-.488 38.261-.243 54.754c.245 16.492-9.578 6.079-10.409 32.016-.831 25.937 9.692 21.018 15.236 33.713 5.544 12.694 9.312 72.145 9.312 72.145s-5.689 11.108-23.457 21.11c-17.768 10.002-46.34 15.62-71.08 14.513-24.74-1.107-42.411-6.341-46.83-9.236-4.419-2.895-11.751-12.05-14.509-19.131-2.758-7.081-8.521-65.402-8.119-98.775.402-33.373 5.985-64.166 5.985-64.166z" style="fill:#ef9325" transform="translate(36.96 -84.875) scale(.63926)"/><path d="M304.706 537.841c72.856 8.032 157.392-14.172 157.392-14.172s-1.242-22.521-6.709-30.447c-75.774 23.185-152.218 15.834-152.218 15.834-1.134 10.514-.335 18.872 1.535 28.785zm9.17 44.387c72.856 8.032 152.175-15.064 152.175-15.064s.254-21.631-2.64-31.13c-75.774 23.185-156.707 17.407-156.707 17.407.682 11.413 2.307 22.646 7.172 28.787z" style="fill:#e5e5e5" transform="translate(36.96 -84.875) scale(.63926)"/><path d="M481.221 445.525c-2.264 4.272-6.745 6.334-10.009 4.604l-2.615-1.385c-3.264-1.729-4.076-6.595-1.812-10.867l50.985-96.234c2.263-4.272 6.745-6.334 10.009-4.604l2.615 1.385c3.264 1.729 4.076 6.595 1.812 10.867z" style="fill:#d2e261" transform="translate(36.96 -84.875) scale(.63926)"/><path d="M329.195 228.985c-.843 1.591-3.218 1.985-5.305.879l-1.671-.885c-2.087-1.106-3.096-3.292-2.252-4.883l15.29-28.862c.844-1.591 3.219-1.985 5.305-.88l1.672.886c2.087 1.105 3.095 3.292 2.252 4.883z"/><path d="m478.411 436.54-2.615-1.385c-3.264-1.729-6.604-1.823-7.459-.21l-1.529 2.886c.855-1.614 4.194-1.52 7.459.21l2.615 1.385c3.264 1.729 5.218 4.44 4.363 6.053l1.529-2.886c.855-1.613-1.099-4.323-4.363-6.053z" style="fill:#9b9b9b" transform="translate(36.96 -84.875) scale(.63926)"/><ellipse transform="rotate(20.414)" cx="381.912" cy="82.873" rx="7.175" ry="5.551" style="fill:#f6d2a2;stroke-width:.639264"/><path d="M111.779 447.078c2.065 4.372 6.447 6.637 9.787 5.059l2.675-1.264c3.34-1.578 4.374-6.401 2.309-10.773l-46.518-98.471c-2.065-4.372-6.447-6.637-9.787-5.059l-2.675 1.264c-3.34 1.578-4.374 6.401-2.309 10.773z" style="fill:#d2e261" transform="translate(36.96 -84.875) scale(.63926)"/><path d="M122.46 230.653c.77 1.629 3.124 2.13 5.26 1.122l1.71-.808c2.135-1.008 3.243-3.146 2.473-4.774l-13.951-29.534c-.77-1.628-3.124-2.13-5.26-1.122l-1.71.808c-2.135 1.01-3.243 3.147-2.473 4.775z"/><path d="m114.998 438.232 2.675-1.264c3.34-1.578 6.68-1.519 7.46.132l1.395 2.954c-.78-1.651-4.12-1.71-7.46-.133l-2.675 1.264c-3.34 1.578-5.416 4.196-4.636 5.847l-1.395-2.954c-.779-1.65 1.296-4.268 4.636-5.846z" style="fill:#9b9b9b" transform="translate(36.96 -84.875) scale(.63926)"/><ellipse transform="rotate(159.586)" cx="-43.232" cy="-241.957" rx="7.175" ry="5.551" style="fill:#f6d2a2;stroke-width:.639264"/><g transform="translate(36.96 -84.875) scale(.63926)"><path d="M159.132 324.732c-2.218 4.033-7.45 5.414-11.687 3.084l-4.873-2.679c-4.237-2.33-5.873-7.488-3.656-11.521l50.714-92.23c2.218-4.033 7.45-5.414 11.687-3.084l4.873 2.679c4.237 2.33 5.33 6.689 3.656 11.521-17.765 51.258-50.714 92.23-50.714 92.23z" style="fill:#960000"/><path d="M172.547 272.051c15.422-28.047 25.555-52.169 23.141-54.905l.057-.103c-.066-.036-.136-.06-.202-.096-.008-.005-.01-.021-.019-.026l-.007.014c-23.699-12.841-55.583-.124-71.334 28.522-15.751 28.646-9.41 62.381 14.128 75.514l-.007.014c.009.005.023-.002.032.002.066.037.123.083.189.119l.057-.103c3.602.573 18.543-20.905 33.965-48.952z" style="fill:#595959"/><path d="M426.693 324.925c2.1 4.095 7.291 5.627 11.593 3.42l4.948-2.538c4.302-2.206 6.087-7.315 3.987-11.41l-48.031-93.655c-2.1-4.095-7.291-5.627-11.593-3.42l-4.948 2.538c-4.302 2.206-5.521 6.533-3.987 11.41 16.279 51.749 48.031 93.655 48.031 93.655z" style="fill:#960000"/><path d="M414.804 271.879c-14.606-28.48-24.039-52.885-21.547-55.55l-.054-.105c.067-.034.138-.056.205-.09.009-.005.011-.021.02-.025l.007.014c24.059-12.152 55.563 1.48 70.481 30.569 14.918 29.089 7.606 62.627-16.301 75.075l.007.014c-.009.004-.023-.003-.032.001-.067.035-.125.08-.192.114l-.054-.105c-3.618.468-17.934-21.432-32.54-49.912z" style="fill:#595959"/><path d="M462.36 259.869s-17.746-44.446-38.326-67.945c-20.58-23.498-221.937-31.512-255.003 0-33.066 31.512-45.533 67.945-45.533 67.945v-9.844s15.295-43.268 45.533-67.945c30.238-24.677 228.946-23.378 254.582 0 25.635 23.378 38.747 67.945 38.747 67.945z" style="fill:#353535"/><ellipse transform="rotate(152.848 462.1 248.204)" cx="462.092" cy="248.211" rx="6.949" ry="16.975" style="fill:#960000"/><ellipse transform="rotate(28.801 125.958 247.055)" cx="125.962" cy="247.029" rx="6.949" ry="16.975" style="fill:#960000"/></g><path d="M386.49 250.492H198.68c-33.72 0-33.604 89.606-1.945 94.771l65.466-4.21c7.915 0 23.719-30.655 26.684-33.065 2.965-2.41 12.729-2.704 16.575 0s12.593 29.976 20.507 29.976l65.466 7.298c30.579-14.072 22.87-94.77-4.943-94.77z" style="opacity:.6;fill:#fff" transform="translate(36.96 -84.875) scale(.63926)"/><path d="M248.545 269.019c-20.685-.462-53.05-.274-70.729-.13-2.964 9.719-6.269 22.024-4.63 33.972 16.056 0 50.96.078 75.782.078 14.946 0 27.512 2.82 39.198 5.875.288-.368.53-.639.719-.792 2.965-2.41 12.729-2.704 16.575 0 .995.7 2.323 3.058 3.874 6.149 5.967 1.258 11.943 2.127 18.153 2.205 16.915.214 56.557.146 82.066.074 3.249-10.857.853-22.495.125-33.432-24.906 0-64.487-.562-83.463-.562-26.738-.001-50.083-12.821-77.67-13.437z" style="opacity:.5;fill:#fff" transform="translate(36.96 -84.875) scale(.63926)"/><path d="M213.896 123.631c-.528-12.355 23.03-13.9 25.811-3.558 2.775 10.319-24.65 12.715-25.81 3.558-.926-7.31 0 0 0 0z"/><g><g style="font-style:normal;font-variant:normal;font-weight:400;font-stretch:normal;font-size:40px;line-height:125%;font-family:'DejaVu Sans';letter-spacing:0;word-spacing:0;display:inline;fill:#000;fill-opacity:1;stroke:none"><path style="font-size:144px;font-family:Nunito;fill:#333" d="M119.091 162.632h4.149c1.687 0 3.046-.047 4.078-.14a14.563 14.563 0 0 0 3.164-.633c1.078-.328 1.875-.844 2.39-1.547.516-.75.774-1.711.774-2.883 0-1.312-.445-2.46-1.336-3.445-.89-.985-2.11-1.477-3.656-1.477h-.422l-4.781.211h-.774c-2.953 0-5.11-1.054-6.469-3.164-1.359-2.156-2.039-5.648-2.039-10.476v-38.32h12.938c3.094 0 4.64-1.337 4.64-4.009 0-1.265-.398-2.296-1.195-3.093-.75-.797-1.898-1.196-3.445-1.196h-12.938V72.07c0-1.64-.468-2.883-1.406-3.727-.937-.89-2.11-1.336-3.516-1.336-1.5 0-2.882.54-4.148 1.617-1.219 1.079-1.875 2.368-1.969 3.868l-1.687 19.968h-8.649c-1.547 0-2.718.399-3.515 1.196-.797.75-1.196 1.734-1.196 2.953 0 1.266.399 2.273 1.196 3.023.843.75 2.039 1.125 3.586 1.125h8.578v40.5c0 7.266 1.593 12.657 4.781 16.172 3.187 3.469 7.477 5.203 12.867 5.203m35.719-.984c1.734 0 3.234-.516 4.5-1.547 1.312-1.031 1.969-2.484 1.969-4.36v-36.21c0-5.485 1.734-9.867 5.203-13.149 3.515-3.28 8.437-4.922 14.765-4.922 1.5 0 2.649-.492 3.446-1.476.797-1.031 1.195-2.25 1.195-3.656 0-1.5-.445-2.813-1.336-3.938-.844-1.125-2.016-1.687-3.515-1.687-4.97 0-9.235 1.476-12.797 4.43-3.516 2.906-5.86 6.538-7.032 10.898l.07-8.438c0-1.781-.632-3.164-1.898-4.148-1.219-1.031-2.695-1.547-4.43-1.547-1.734 0-3.234.516-4.5 1.547-1.265.984-1.898 2.414-1.898 4.289v58.008c0 1.875.61 3.328 1.828 4.359 1.219 1.031 2.696 1.547 4.43 1.547m171.996 0c1.734 0 3.234-.54 4.5-1.617 1.265-1.125 1.898-2.672 1.898-4.64v-54.634h11.883c3 0 4.5-1.359 4.5-4.078 0-1.219-.375-2.226-1.125-3.023-.703-.797-1.828-1.196-3.375-1.196h-11.883v-5.484c0-3.797.14-6.797.422-9 .328-2.25.914-3.96 1.758-5.133.89-1.218 1.898-1.992 3.023-2.32 1.125-.375 2.696-.563 4.711-.563h5.977c1.406 0 2.484-.468 3.234-1.406.797-.937 1.195-2.062 1.196-3.375 0-1.312-.399-2.437-1.196-3.375-.75-.984-1.805-1.476-3.164-1.476h-8.578c-6.281 0-11.203 1.78-14.766 5.343-3.562 3.516-5.343 9.47-5.343 17.86v8.93h-9.211c-1.547 0-2.696.398-3.446 1.195s-1.125 1.804-1.125 3.023c0 1.172.375 2.156 1.125 2.953.75.75 1.899 1.125 3.446 1.125h9.21v54.633c0 1.969.61 3.516 1.829 4.64 1.265 1.079 2.765 1.618 4.5 1.618m44.367-86.133c2.484 0 4.477-.703 5.977-2.11 1.5-1.452 2.25-3.327 2.25-5.624 0-2.344-.75-4.219-2.25-5.625-1.5-1.453-3.47-2.18-5.907-2.18-2.484 0-4.5.727-6.047 2.18-1.5 1.453-2.25 3.328-2.25 5.625s.75 4.172 2.25 5.625c1.5 1.406 3.493 2.11 5.977 2.11m-.07 86.132c1.734 0 3.234-.563 4.5-1.688 1.312-1.171 1.968-2.742 1.968-4.71V98.084c0-1.968-.632-3.515-1.898-4.64-1.219-1.125-2.672-1.688-4.36-1.688-1.734 0-3.257.563-4.57 1.688-1.265 1.125-1.898 2.672-1.898 4.64v57.164c0 2.063.61 3.657 1.828 4.782 1.219 1.078 2.695 1.617 4.43 1.617m33.82.001c1.734 0 3.234-.563 4.5-1.688 1.312-1.125 1.969-2.695 1.969-4.71v-30.657l33.047 35.156c1.171 1.313 2.578 1.97 4.218 1.97 1.547 0 2.907-.587 4.078-1.759 1.22-1.171 1.829-2.507 1.829-4.007 0-1.36-.516-2.579-1.547-3.657l-27.914-29.39 25.523-22.852c1.125-1.078 1.688-2.273 1.688-3.586 0-1.453-.586-2.765-1.758-3.937-1.125-1.172-2.438-1.758-3.938-1.758-1.172 0-2.273.445-3.304 1.336l-31.922 29.25v-53.79c0-1.968-.633-3.515-1.899-4.64-1.218-1.125-2.672-1.687-4.36-1.687-1.733 0-3.257.562-4.57 1.687-1.265 1.125-1.898 2.672-1.898 4.64v87.68c0 2.063.61 3.657 1.828 4.782 1.219 1.078 2.696 1.617 4.43 1.617" transform="translate(41.63 325.08) scale(.68406)"/></g><path d="M776.626 2500.717c-33.865-2.92-59.743-13.135-78.565-31.014-19.15-18.19-27.367-41.907-24.124-69.628 3.732-31.902 18.891-54.43 45.47-67.572 20.485-10.13 40.921-13.983 74.202-13.99 23.646-.01 43.46 1.926 73.679 7.183 7.472 1.3 13.942 2.365 14.376 2.365.632 0 1.134-2.378 2.505-11.886 2.48-17.204 2.925-23.14 2.25-30.031-.787-8.022-1.814-11.842-4.853-18.06-7.841-16.038-26.454-25.852-56.343-29.705-8.548-1.102-28.277-1.256-36.84-.288-14.346 1.622-22.352 3.688-40.207 10.378-10.445 3.914-10.493 3.926-14.66 3.682-7.163-.42-12.053-3.663-15.19-10.074-1.291-2.64-1.518-3.73-1.518-7.286 0-5.34 1.39-8.175 6.233-12.705 10.859-10.158 29.132-18.809 47.576-22.523 11.81-2.378 17.623-2.878 33.181-2.855 16.1.042 26.394.934 40.702 3.595 23.797 4.424 41.866 12.223 55.491 23.95 4.043 3.48 10.14 10.327 12.752 14.323.798 1.222 1.62 2.221 1.828 2.221.206 0 1.527-1.467 2.935-3.26 20.632-26.29 55.38-41.172 96.091-41.15 28.795 0 55.56 7.298 75.511 20.552 15.825 10.512 28.68 26.706 33.874 42.67 2.982 9.166 3.435 12.553 3.463 25.866.016 8.284-.212 13.871-.674 16.46-4.67 26.166-15.79 44.294-35.095 57.202-15.53 10.384-35.034 16.46-60.544 18.86-12.84 1.208-36.327 1.094-51.542-.251-12.913-1.141-28.769-3.15-35.533-4.5-5.662-1.13-25.05-4.367-25.21-4.209-.07.071-.993 5.87-2.05 12.888-1.688 11.207-1.927 14.003-1.962 22.951-.038 9.098.091 10.694 1.189 14.893 3.53 13.501 11.308 22.533 25.42 29.515 13.883 6.868 28.436 9.84 50.426 10.298 9.735.205 14.721.062 20.812-.582 14.765-1.566 21.493-3.284 41.11-10.495 4.885-1.797 9.872-3.431 11.08-3.633 2.59-.431 7.42.46 10.235 1.89 5.08 2.581 9.35 9.463 9.323 15.03-.029 6.505-2.223 10.444-8.663 15.568-15.396 12.25-35.055 19.762-58.522 22.364-8.368.928-27.474 1.065-36.703.264-25.989-2.258-44.032-6.703-60.522-14.91-12.867-6.403-22.684-14.347-30.016-24.289-1.801-2.443-3.332-4.502-3.4-4.578-.07-.075-1.267 1.336-2.662 3.136-6.165 7.953-15.594 16.502-24.809 22.493-13.302 8.65-32.399 15.248-51.722 17.872-5.763.782-24.882 1.427-29.785 1.005zm33.182-37.232c15.776-3.497 29.835-11.378 40.041-22.445 9.31-10.095 16.946-25.219 21.149-41.885 2.369-9.395 6.306-35.543 5.433-36.082-.344-.213-2.425-.55-4.624-.749-2.198-.2-8.464-.939-13.925-1.645-32.435-4.195-52.334-5.825-63.49-5.2-21.208 1.189-29.854 3.04-42.587 9.121-6.523 3.115-11.026 6.496-14.588 10.953-5.11 6.395-8.196 12.75-10.346 21.313-1.565 6.232-1.725 22.548-.272 27.804 2.446 8.856 5.35 13.868 11.881 20.504 8.943 9.087 20.731 15.149 35.354 18.18 7.477 1.55 7.256 1.535 19.775 1.346 9.084-.138 12.483-.393 16.199-1.215zm206.667-122.602c13.194-1.164 21.307-3.213 31.275-7.896 8.29-3.895 13.109-7.876 17.668-14.597 6.713-9.897 9.328-19.262 9.26-33.176-.048-9.918-.888-14.043-4.312-21.163-7.65-15.908-25.62-27.303-49.189-31.19-5.88-.97-21.666-.798-27.694.3-11.598 2.117-21.4 5.974-30.047 11.821-15.973 10.805-26.997 27.09-33.136 48.954-2.412 8.588-3.054 11.884-5.204 26.687l-1.983 13.655 2.656.293c8.023.89 26.115 3.08 36.622 4.435 6.61.852 14.723 1.76 18.028 2.02 9.555.75 26.685.68 36.056-.146z" style="display:inline;fill:#37abc8;fill-opacity:1;stroke:none" transform="translate(60.867 26.432) scale(.16364)"/></g></svg>