<svg xml:space="preserve" width="71.909" height="71.909" xmlns="http://www.w3.org/2000/svg"><path d="M49.92 30.998c.009-.009.022-.021.028-.029.938-1.156-.823-13.453-5.063-20.125-1.39-2.186-2.24-3.423-3.22-4.719-3.906-5.166-6-6.125-6-6.125s-13.977 10.735-13.56 30.27c-1.754.065-11.218 7.528-14.826 14.388-1.206 2.291-1.856 3.645-2.493 5.141-2.54 5.957-2.33 8.25-2.33 8.25s16.27 6.79 33.014-3.294c.007.021.013.046.02.063.537 1.389 12.08 5.979 19.976 5.621 2.587-.116 4.084-.238 5.696-.444 6.424-.818 8.298-2.157 8.298-2.157s-2.36-17.487-19.538-26.84zm-13.178 20.3c1.059-1.183 4.648-5.853.995-11.315-.253-.377-.496-.236-.496-.236s.063 10.822-5.162 12.359c-5.225 1.537-13.886 4.4-20.427.455-.697-.42 1.227-13 12.847-19.377.546 1.599 2.836 6.854 9.292 6.409.453-.031.453-.313.453-.313s-9.422-5.328-8.156-10.625 3.089-14.236 9.766-17.948c.714-.397 10.746 7.593 10.417 20.94-1.606-.319-7.377-1.004-10.226 4.864-.198.409.046.549.046.549s9.31-5.521 13.275-1.789c3.965 3.733 10.813 9.763 10.71 17.4-.01.817-11.924 5.542-23.334-1.373zM21.568 21.1s-.991 3.241-.603 7.524L7.572 21.1s6.22-4.214 13.996 0zm-14.42.885 13.344 7.612c-3.872 1.872-6.142 4.388-6.142 4.388-7.615-4.499-7.202-12-7.202-12zm51.094 13.034s-2.321-2.471-6.23-4.263l13.187-7.881c-.001 0 .564 7.493-6.957 12.144zm6.4-12.951-13.237 7.794c.3-4.291-.754-7.511-.754-7.511 7.687-4.371 13.99-.283 13.99-.283zM28.03 59.733s3.309-.737 6.845-3.185l.056 15.361c0 .001-6.733-3.333-6.901-12.176zm7.88 12.11.044-15.362c3.539 2.445 6.846 3.181 6.846 3.181-.16 8.844-6.89 12.181-6.89 12.181z"/></svg>