<svg xmlns="http://www.w3.org/2000/svg" xml:space="preserve" width="256" height="256"><path d="M2268.208 2512.333c-15.884 19.573-32.512 38.57-49.949 56.876-180.601 189.624-426.245 294.062-691.674 294.062-256.432 0-497.507-99.862-678.826-281.178a977.931 977.931 0 0 1-63.335-69.76c-141.087-171.282-217.842-384.27-217.842-609.066 0-256.421 99.861-497.496 281.177-678.823 181.32-181.316 422.394-281.174 678.826-281.174 256.428 0 497.504 99.858 678.827 281.174 181.32 181.327 281.17 422.402 281.17 678.823 0 219.209-78.86 437.223-218.374 609.066" style="fill:#196aff;fill-opacity:1;fill-rule:nonzero;stroke:none;stroke-width:.36633128" transform="matrix(.13333 0 0 -.13333 -75.544 381.77)"/><path d="M1823.731 1650.879c35.688 104.239 94.631 136.153 101.958 297.008 2.575 56.529-14.661 236.08-14.661 236.08s28.013 71.991-25.823 152.188c-83.476 124.346-255.398 132.8-345.688 132.8-90.29 0-260.205-8.454-343.685-132.8-53.84-80.197-25.826-152.189-25.826-152.189s-9.536-92.344-16.752-173.792c-1.7-19.113.157-94.718 2.454-112.983 4.128-32.732 14.481-64.891 25.808-96.196 14.342-39.638 36.82-79.86 53.983-120.528 51.799-122.78 8.45-274.852 11.1-407.252 2.238-93.98-20.013-189.315-28.732-281.22 98.13-33.256 202.087-50.6 308.718-50.6 119.835 0 236.306 21.845 344.901 63.633-20.393 115.066-44.091 224.206-47.747 265.847-10.646 125.886-41.304 259.402-.01 380.004" style="fill:#fff;fill-opacity:1;fill-rule:nonzero;stroke:none;stroke-width:.36655635" transform="matrix(.13333 0 0 -.13333 -75.544 381.77)"/><path d="M1162.884 2383.86c1.15-18.73 2.997-37.93 8.272-56.158 1.656-5.682 4.103-19.683 11.415-21.764 9.092-2.59 25.91 8.257 32.288 12.957 12.357 9.096 23.925 18.46 36.285 27.65 7.884 5.862 16.493 10.47 24.211 16.497 8.4 6.546 14.72 14.474 21.71 22.178 8.483 9.36 14.846 19.049 21.37 29.497 5.104 8.154 37.07 13.462 42.188 21.03 5.586 8.276.915 18.511.915 28.699 0 74.164 4.455 147.566 6.188 220.29 1.787 49.887 21.379 109.126-53.44 85.743-160.315-49.887-158.527-271.257-151.402-386.619m706.225-104.159c-1.612 1.751-4.195 3.239-6.26 4.77-8.98 6.649-17.446 13.606-25.157 21.482-9.41 9.612-19.192 18.957-28.163 28.929-7.891 8.762-17.313 16.602-25.006 25.573-5.129 5.96-10.082 12.306-14.61 18.563-2.311 3.176-3.52 6.996-5.337 10.396-2.707 5.011-39.882 10.118-36.19 15.005 6.301 8.33 20.328 15.397 23.702 24.94 17.243 48.667 24.771 244.526 26.852 294.512 5.352 127.831 117.57-6.239 137.169-57.683 57.009-149.657 23.145-258.78-46.315-386.615" style="fill:#fff;fill-opacity:1;fill-rule:nonzero;stroke:none;stroke-width:.36633128" transform="matrix(.13333 0 0 -.13333 -75.544 381.77)"/><path d="M1716.473 1787.861c-.08 73.805-9.253 103.665-50.407 139.752-25.742 22.566-55.836 31.175-103.741 29.992-47.902 1.183-82.425-13.379-107.317-39.223-37.55-38.993-47.436-62.053-47.543-135.858-.059-39.893 42.956-128.165 55.756-148.536 21.244-35.93 60.562-48.85 99.104-46.154 38.545-2.697 77.867 10.224 99.096 46.154 12.81 20.371 55.107 106.954 55.052 153.873" style="fill:#f1e6d3;fill-opacity:1;fill-rule:nonzero;stroke:none;stroke-width:.36633128" transform="matrix(.13333 0 0 -.13333 -75.544 381.77)"/><path d="M1226.604 2316.082c-9.616 86.088-38.582 239.976 61.489 331.24 11.037 10.074 14-24.2 15.847-38.065 2.539-19.039-.05-73.417.337-92.583.715-36.087 8.276-54.965 4.752-71.46-9.628-45.092-17.354-42.184-26.56-69.603-18.257-54.379-53.235-83.066-55.865-59.53m625.141 17.009c10.242-18.33 36.995 80.256 45.38 123.073 7.895 40.308 17.925 93.869 4.06 133.913-7.437 21.481-53.078 84.567-58.463 62.891-2.1-8.418-3.183-71.097-8.345-101.089-6.389-37.11-17.91-73.805-17.98-111.544-.15-84.568 25.336-88.055 35.348-107.243" style="fill:#f1d7d4;fill-opacity:1;fill-rule:nonzero;stroke:none;stroke-width:.36633128" transform="matrix(.13333 0 0 -.13333 -75.544 381.77)"/><path d="M1522.014 1319.745c-2.17-6.583-18.595-11.404-24.764-13.393-14.91-4.817-28.146 6.938-36.476 16.844-11.583 13.73-11.276 35.63-16.126 51.642-2.934 9.682-19.533 10.997-24.518 2.04-16.628-29.9-81.161 26.365-66.164 45.095 9.888 12.353-13.781 23.262-23.54 11.078-28.948-36.16 48.92-103.496 93.58-85.245 1.988-9.034 4.073-18.057 7.908-26.636 7.525-16.851 23.98-27.739 41.011-36.89 23.196-12.437 68.259 9.408 75.142 30.256 4.792 14.503-21.28 19.635-26.053 5.209m205.614 218.484c2.396-10.045 2.773-44.074-15.935-25.457-7.59 7.554-22.665 3.096-23.28-7.008-1.448-23.386-24.9-23.903-45.137-16.833-16.056 5.602-24.533-16.587-8.605-22.144 29.713-10.368 61.962-4.623 74.776 17.836 10.081-4.744 21.485-6.037 30.629 2.568 15.968 15.042 18.375 36.227 13.73 55.708-3.528 14.763-29.699 10.096-26.178-4.67m47.414-488.983c-7.004-14.316-19.855-13.422-33.636-7.41-10.107 4.399-22.607-2.877-19.559-13.108 6.136-20.522-19.785-26.515-37.314-19.196-15.426 6.444-28.834-13.796-13.243-20.313 31.581-13.18 71.728-1.649 77.552 26.134 20.313-3.22 39.71 2.484 49.396 22.31 6.704 13.682-16.404 25.47-23.196 11.583m-205.277 1104.016c-3.253-20.181-41.095 3.32-50.492 9.69-8.271 5.597-18.972 2.198-19.983-7.24-1.352-12.714-18.481-9.022-26.31-7.425-14.807 3.012-27.365 12.24-27.717 26.105-.344 13.474 8.206 27.622 12.664 40.271 2.854 8.078-8.722 16.965-17.184 11.561-15.24-9.73-88.715-18.481-59.452 13.547 9.323 10.203-7.133 24.797-16.555 14.481-13.517-14.8-22.66-48.7 6.583-55.876 15.438-3.784 37.777-3.594 56.815.747-7.95-25.478-9.616-48.799 23.156-65.17 22.144-11.067 52.557-10.99 65.445 6.107 27.115-14.584 69.709-28.732 75.6 7.762 2.087 12.906-20.464 18.478-22.57 5.44" style="fill:#faeee0;fill-opacity:1;fill-rule:nonzero;stroke:none;stroke-width:.36633128" transform="matrix(.13333 0 0 -.13333 -75.544 381.77)"/><path d="M1443.025 1685.57c39.366-3.33 78.747-12.271 118.479-10.835 25.398.923 51.693 4.48 76.75 8.195 18.203 2.696 40.52 5.88 52.697 19.375 1.143-45.019-92.513-59.108-128.839-60.024-42.143-1.066-89.51 17.222-119.087 43.29" style="fill:#494949;fill-opacity:1;fill-rule:nonzero;stroke:none;stroke-width:.36633128" transform="matrix(.13333 0 0 -.13333 -75.544 381.77)"/><path d="M1549.448 1779.49c-4.502-28.895-5.433-58.198-2.722-87.267.718-7.597-1.308-25.709 8.796-29.522 8.191-3.096 18.316 2.722 19.654 10.11 2.26 12.456-3.041 28.164-3.492 40.92-.53 14.939 0 29.9 1.58 44.769.944 8.814 5.89 20.705-4.199 26.914-7.404 4.554-18.258 2.872-19.617-5.923" style="fill:#494949;fill-opacity:1;fill-rule:nonzero;stroke:none;stroke-width:.36633128" transform="matrix(.13333 0 0 -.13333 -75.544 381.77)"/><path d="M1625.978 1849.738c-23.661-1.022-45.63-14.26-63.397-27.024-16.082 10.675-40.432 20.485-60.694 14.774-12.078-3.392-1.11-7.096 3.927-10.316 9.309-6.19 16.895-14.147 23.742-22.368 10.39-12.598 19.625-25.826 30.71-37.977 7.674 5.524 15.001 11.103 21.672 17.558 3.095 2.993 28.435 36.926 32.325 42.667 2.484 3.656 4.99 7.432 7.836 10.872 2.89 3.48 11.07 9.016 3.88 11.814" style="fill:#494949;fill-opacity:1;fill-rule:nonzero;stroke:none;stroke-width:.36633128" transform="matrix(.13333 0 0 -.13333 -75.544 381.77)"/><path d="M1326.52 2010.03c11.683 30.303 24.241 68.387 56.266 62.328 24.243-5.195 56.697-86.117 35.926-78.124-11.254 4.326-20.207 41.106-41.333 45.876-13.423 3.033-32.032-43.502-49.994-48.26-8.707-2.301-4.326 10.388-.864 18.18m344.073 0c11.686 30.303 24.244 68.387 56.268 62.328 24.24-5.195 56.694-86.117 35.923-78.124-11.254 4.326-20.203 41.106-41.333 45.876-13.423 3.033-32.032-43.502-49.99-48.26-8.708-2.301-4.33 10.388-.868 18.18" style="fill:#2c3844;fill-opacity:1;fill-rule:nonzero;stroke:none;stroke-width:.36633128" transform="matrix(.13333 0 0 -.13333 -75.544 381.77)"/></svg>