<svg xmlns="http://www.w3.org/2000/svg" width="400" height="400"><path d="M84.732 76.465c-1.78 1.106-3.554 2.12-3.943 2.254-.39.133-.708.408-.708.61s-.455.54-1.011.752c-.556.211-1.011.559-1.011.772 0 .212-.36.501-.801.641-.44.139-2.77 2.199-5.178 4.577-3.66 3.615-5.417 5.656-9.293 10.795-.168.222-.528.904-.799 1.516-.272.612-.666 1.112-.875 1.112-.21 0-.501.546-.648 1.214-.146.667-.389 1.213-.54 1.213-.15 0-.663.865-1.14 1.921-2.279 5.053-2.567 5.756-2.567 6.267 0 .302-.185.733-.411.96-.227.226-.61 1.537-.852 2.912-.243 1.375-.586 2.5-.762 2.5-.177 0-.449 1.092-.604 2.427-.275 2.376-1.76 3.615-2.32 1.936-.225-.675-27.009-.739-27.85-.066-.312.25-2.114.676-4.004.947-1.89.271-3.548.671-3.683.89-.136.22-1.001.5-1.922.624-.922.123-1.677.382-1.677.576 0 .193-.284.351-.631.351-.632 0-5.054 1.947-5.435 2.394-.111.13-.748.506-1.416.836-.667.331-1.614 1.013-2.104 1.516-.49.504-1.075.916-1.3.916-3.39 0-.369 12.391 4.41 18.082.225.269.41.618.41.775 0 .158.259.575.576.927.317.353 1.273 1.45 2.123 2.438 2.145 2.492 7.037 7.303 7.426 7.303.177 0 .973.633 1.77 1.408.798.774 1.892 1.518 2.433 1.654.54.135 1.081.503 1.201.817.12.313.498.57.838.57.341 0 .62.164.62.365 0 .2.5.57 1.112.821.612.251 1.567.721 2.123 1.045.556.323 1.33.591 1.719.594.389.003.708.154.708.335 0 .452 3.93 2.13 5.64 2.407.769.125 1.862.469 2.429.765.567.296 1.313.54 1.658.541.345.001.8.158 1.011.347.397.356 5.951 1.209 8.978 1.379.945.053 1.719.233 1.719.4s2.636.303 5.857.303h5.857l.254 1.011c.14.556.402 1.011.582 1.011.181 0 .447.539.591 1.196.145.658.614 1.923 1.044 2.812.429.889.786 1.852.793 2.141.007.289.28.878.607 1.31.326.432.594 1.114.594 1.517 0 .402.173.731.386.731.212 0 .505.637.651 1.416.146.778.408 1.415.582 1.415.173 0 .439.501.589 1.113.341 1.383 1.933 4.705 2.342 4.887.167.074.303.473.303.886 0 .413.182.864.404 1.001.223.138.405.603.405 1.035 0 .432.162.785.361.785.198 0 .474.455.614 1.011.139.556.432 1.011.65 1.011.219 0 .397.285.397.632 0 .857 2.068 5.031 2.492 5.031.187 0 .339.255.339.567 0 .313.622 1.668 1.382 3.012.76 1.345 1.5 2.818 1.645 3.275.145.457.397.83.559.83.163 0 .527.637.808 1.416.282.778.682 1.415.89 1.415.208 0 .379.26.379.578 0 .318.272.85.605 1.183.332.333.797 1.028 1.032 1.546.869 1.914 1.652 3.164 1.981 3.164.186 0 .454.46.595 1.022.141.562.57 1.368.954 1.791 1.28 1.412 1.607 1.894 1.888 2.78.154.483.453.879.666.879.213 0 .561.455.772 1.011.211.556.551 1.011.755 1.011.204 0 .477.409.606.91.129.5.871 1.638 1.649 2.528 2.103 2.407 2.098 2.4 2.657 3.463.285.542.764 1.131 1.065 1.309.302.178.548.587.548.91 0 .323.273.587.607.587.333 0 .606.264.606.586 0 .323.244.732.542.91.298.178.707.626.91.996.203.369.96 1.32 1.683 2.112.723.793 1.314 1.535 1.314 1.651 0 .694 18.987 19.629 19.684 19.629.307 0 4.349 3.388 4.705 3.944.177.278.541.51.808.517.267.006 1.013.548 1.658 1.206.645.657 1.692 1.424 2.326 1.705.634.281 1.153.623 1.153.76 0 .323 4.767 3.597 5.237 3.597.197 0 .419.159.493.353.168.44 5.362 3.837 7.617 4.982.556.282 1.103.638 1.216.791.112.152 1.386.904 2.831 1.671 6.921 3.673 9.128 4.884 9.482 5.203.211.191.689.347 1.062.347.374 0 .887.251 1.141.556.253.306 1.277.785 2.274 1.064.996.279 1.812.646 1.812.814 0 .169.637.427 1.415.573.779.146 1.416.418 1.416.604s.819.544 1.82.796c1.001.252 1.82.614 1.82.805 0 .191.728.464 1.618.606.89.142 1.618.43 1.618.64 0 .21.682.501 1.516.647.834.146 1.92.519 2.413.827.492.309 1.22.563 1.618.564.397.002 1.21.257 1.807.569.596.311 1.688.695 2.426.853.738.158 1.577.476 1.864.708.287.231 1.455.568 2.596.748 1.142.181 2.181.499 2.31.707.129.208 1.144.512 2.257.676 1.112.164 2.121.45 2.242.636s1.622.547 3.336.802c1.715.255 3.117.603 3.117.772 0 .17 1.047.439 2.326.599 1.279.159 2.648.462 3.042.672.395.211 2.294.562 4.221.781 1.927.219 3.721.579 3.986.799.266.22 2.006.515 3.869.655 1.862.14 3.491.415 3.62.611.128.196 2.403.521 5.055.722 2.652.201 6.005.599 7.45.884 3.76.742 52.043.744 55.814.002 1.446-.284 4.612-.687 7.034-.895 2.423-.209 4.607-.537 4.854-.731.246-.193 1.783-.458 3.415-.588 1.632-.13 3.186-.418 3.453-.639.267-.222 2.112-.605 4.101-.853 1.988-.247 3.711-.593 3.827-.769.117-.177 1.297-.445 2.623-.598 1.327-.152 2.513-.44 2.636-.639.123-.2 1.449-.576 2.947-.837s2.724-.614 2.724-.785c0-.171.91-.432 2.022-.579 1.113-.148 2.023-.431 2.023-.63s1.001-.586 2.224-.86c1.224-.273 2.225-.642 2.225-.819 0-.177.637-.441 1.415-.587.779-.147 1.416-.408 1.416-.582 0-.173.5-.437 1.112-.585 2.021-.49 7.381-3.068 7.381-3.55 0-.172.225-.312.5-.312.715 0 4.814-2.093 5.744-2.933.431-.389.945-.707 1.141-.707.197 0 .611-.228.921-.506.863-.774 1.419-1.196 3.828-2.905 1.223-.869 2.406-1.783 2.629-2.031.222-.249.995-.868 1.718-1.375.723-.508 1.315-1.184 1.315-1.502 0-.319.243-.579.541-.579.449 0 7.952-7.42 7.952-7.864 0-.157 1.828-2.352 2.933-3.521.389-.412.707-.83.707-.93 0-.1.455-.672 1.011-1.273.557-.6 1.012-1.259 1.012-1.465 0-.206.227-.628.505-.938.93-1.037 1.311-1.595 1.921-2.816.333-.668.712-1.305.842-1.416.13-.111 1.037-1.567 2.016-3.235.978-1.669 1.918-3.094 2.089-3.169.171-.074.311-.47.311-.881 0-.41.275-1.02.61-1.356.835-.835.11-1.173-1.284-.6-1.328.547-35.249 1.023-39.61.556-4.439-.475-3.974 5.04-4.205-49.872l-.202-48.015-12.225-.107-12.225-.107-.111 38.327-.111 38.328-1.093 2.994c-3.352 9.181-10.015 15.203-19.563 17.679-4.542 1.177-20.224 1.054-24.642-.194-10.007-2.828-16.688-9.485-19.334-19.266-.291-1.077-.513-14.329-.663-39.636l-.226-38.018h-24.267l-.217 38.22c-.243 42.534-.01 39.144-3.107 45.217-2.579 5.059-7.44 9.636-12.706 11.965-8.66 3.83-26.806 3.549-35.26-.545l-1.544-.748-2.501 1.133c-8.302 3.76-26.681 3.815-34.654.103-7.505-3.494-12.381-9.386-14.808-17.896-.701-2.456-.758-5.056-.875-40.079l-.126-37.454-4.692-.231c-2.581-.127-4.802-.4-4.937-.606-.135-.206-1.514-.502-3.065-.657-1.551-.156-2.916-.431-3.033-.611-.118-.18-1.384-.532-2.814-.781-1.43-.249-2.704-.616-2.831-.815-.127-.2-1.004-.492-1.95-.65-.945-.158-1.719-.445-1.719-.638s-.624-.468-1.387-.611c-.763-.143-1.479-.498-1.59-.788-.258-.672.137-2.224.566-2.224.18 0 .536-.637.793-1.415.257-.779.621-1.416.809-1.416.187 0 .469-.591.626-1.314.157-.723.423-1.406.592-1.517.429-.283 2.422-6.722 2.422-7.827 0-.5.177-1.086.393-1.302 1.859-1.859 1.869-26.867.011-26.867-.16 0-.39-.964-.511-2.141-.231-2.236-1.895-7.669-2.42-7.903-.167-.074-.304-.652-.304-1.285 0-.633-.258-1.41-.574-1.726-.317-.316-.779-1.33-1.027-2.253-.249-.923-.607-1.679-.796-1.679-.189 0-.461-.624-.604-1.386-.143-.762-.396-1.445-.563-1.517-.167-.071-.828-1.177-1.469-2.456-.641-1.279-1.306-2.325-1.477-2.325-.171 0-.44-.406-.597-.903-.345-1.087-1.798-3.219-2.498-3.667-.278-.178-.506-.495-.506-.704 0-2.401-2.364-2.386-6.269.04m67.745 116.002v35.946l1.264.252c1.61.322 9.97.321 11.173-.002l.91-.244v-71.897h-13.347v35.945m39.636-.142v35.804l1.038.395c1.126.428 9.92.536 11.399.139l.91-.244v-71.897h-13.347v35.803m90.192-.009v35.813l1.038.395c1.348.512 10.33.512 11.678-.001l1.04-.395-.103-35.702-.104-35.702-6.774-.111-6.775-.111v35.814m90.192 5.197v30.9l1.264.252c1.992.399 10.302.295 11.453-.142l1.04-.396-.104-30.646-.103-30.646-6.775-.111-6.775-.111v30.9" fill="#040c34" fill-rule="evenodd"/></svg>