<svg id="svg" xmlns="http://www.w3.org/2000/svg" xmlns:xlink="http://www.w3.org/1999/xlink" width="400" height="400" viewBox="0, 0, 400,400"><g id="svgg"><path id="path0" d="M84.732 76.465 C 82.952 77.571,81.178 78.585,80.789 78.719 C 80.399 78.852,80.081 79.127,80.081 79.329 C 80.081 79.531,79.626 79.869,79.070 80.081 C 78.514 80.292,78.059 80.640,78.059 80.853 C 78.059 81.065,77.699 81.354,77.258 81.494 C 76.818 81.633,74.488 83.693,72.080 86.071 C 68.420 89.686,66.663 91.727,62.787 96.866 C 62.619 97.088,62.259 97.770,61.988 98.382 C 61.716 98.994,61.322 99.494,61.113 99.494 C 60.903 99.494,60.612 100.040,60.465 100.708 C 60.319 101.375,60.076 101.921,59.925 101.921 C 59.775 101.921,59.262 102.786,58.785 103.842 C 56.506 108.895,56.218 109.598,56.218 110.109 C 56.218 110.411,56.033 110.842,55.807 111.069 C 55.580 111.295,55.197 112.606,54.955 113.981 C 54.712 115.356,54.369 116.481,54.193 116.481 C 54.016 116.481,53.744 117.573,53.589 118.908 C 53.314 121.284,51.829 122.523,51.269 120.844 C 51.044 120.169,24.260 120.105,23.419 120.778 C 23.107 121.028,21.305 121.454,19.415 121.725 C 17.525 121.996,15.867 122.396,15.732 122.615 C 15.596 122.835,14.731 123.115,13.810 123.239 C 12.888 123.362,12.133 123.621,12.133 123.815 C 12.133 124.008,11.849 124.166,11.502 124.166 C 10.870 124.166,6.448 126.113,6.067 126.560 C 5.956 126.690,5.319 127.066,4.651 127.396 C 3.984 127.727,3.037 128.409,2.547 128.912 C 2.057 129.416,1.472 129.828,1.247 129.828 C -2.143 129.828,0.878 142.219,5.657 147.910 C 5.882 148.179,6.067 148.528,6.067 148.685 C 6.067 148.843,6.326 149.260,6.643 149.612 C 6.960 149.965,7.916 151.062,8.766 152.050 C 10.911 154.542,15.803 159.353,16.192 159.353 C 16.369 159.353,17.165 159.986,17.962 160.761 C 18.760 161.535,19.854 162.279,20.395 162.415 C 20.935 162.550,21.476 162.918,21.596 163.232 C 21.716 163.545,22.094 163.802,22.434 163.802 C 22.775 163.802,23.054 163.966,23.054 164.167 C 23.054 164.367,23.554 164.737,24.166 164.988 C 24.778 165.239,25.733 165.709,26.289 166.033 C 26.845 166.356,27.619 166.624,28.008 166.627 C 28.397 166.630,28.716 166.781,28.716 166.962 C 28.716 167.414,32.646 169.092,34.356 169.369 C 35.125 169.494,36.218 169.838,36.785 170.134 C 37.352 170.430,38.098 170.674,38.443 170.675 C 38.788 170.676,39.243 170.833,39.454 171.022 C 39.851 171.378,45.405 172.231,48.432 172.401 C 49.377 172.454,50.151 172.634,50.151 172.801 C 50.151 172.968,52.787 173.104,56.008 173.104 L 61.865 173.104 62.119 174.115 C 62.259 174.671,62.521 175.126,62.701 175.126 C 62.882 175.126,63.148 175.665,63.292 176.322 C 63.437 176.980,63.906 178.245,64.336 179.134 C 64.765 180.023,65.122 180.986,65.129 181.275 C 65.136 181.564,65.409 182.153,65.736 182.585 C 66.062 183.017,66.330 183.699,66.330 184.102 C 66.330 184.504,66.503 184.833,66.716 184.833 C 66.928 184.833,67.221 185.470,67.367 186.249 C 67.513 187.027,67.775 187.664,67.949 187.664 C 68.122 187.664,68.388 188.165,68.538 188.777 C 68.879 190.160,70.471 193.482,70.880 193.664 C 71.047 193.738,71.183 194.137,71.183 194.550 C 71.183 194.963,71.365 195.414,71.587 195.551 C 71.810 195.689,71.992 196.154,71.992 196.586 C 71.992 197.018,72.154 197.371,72.353 197.371 C 72.551 197.371,72.827 197.826,72.967 198.382 C 73.106 198.938,73.399 199.393,73.617 199.393 C 73.836 199.393,74.014 199.678,74.014 200.025 C 74.014 200.882,76.082 205.056,76.506 205.056 C 76.693 205.056,76.845 205.311,76.845 205.623 C 76.845 205.936,77.467 207.291,78.227 208.635 C 78.987 209.980,79.727 211.453,79.872 211.910 C 80.017 212.367,80.269 212.740,80.431 212.740 C 80.594 212.740,80.958 213.377,81.239 214.156 C 81.521 214.934,81.921 215.571,82.129 215.571 C 82.337 215.571,82.508 215.831,82.508 216.149 C 82.508 216.467,82.780 216.999,83.113 217.332 C 83.445 217.665,83.910 218.360,84.145 218.878 C 85.014 220.792,85.797 222.042,86.126 222.042 C 86.312 222.042,86.580 222.502,86.721 223.064 C 86.862 223.626,87.291 224.432,87.675 224.855 C 88.955 226.267,89.282 226.749,89.563 227.635 C 89.717 228.118,90.016 228.514,90.229 228.514 C 90.442 228.514,90.790 228.969,91.001 229.525 C 91.212 230.081,91.552 230.536,91.756 230.536 C 91.960 230.536,92.233 230.945,92.362 231.446 C 92.491 231.946,93.233 233.084,94.011 233.974 C 96.114 236.381,96.109 236.374,96.668 237.437 C 96.953 237.979,97.432 238.568,97.733 238.746 C 98.035 238.924,98.281 239.333,98.281 239.656 C 98.281 239.979,98.554 240.243,98.888 240.243 C 99.221 240.243,99.494 240.507,99.494 240.829 C 99.494 241.152,99.738 241.561,100.036 241.739 C 100.334 241.917,100.743 242.365,100.946 242.735 C 101.149 243.104,101.906 244.055,102.629 244.847 C 103.352 245.640,103.943 246.382,103.943 246.498 C 103.943 247.192,122.930 266.127,123.627 266.127 C 123.934 266.127,127.976 269.515,128.332 270.071 C 128.509 270.349,128.873 270.581,129.140 270.588 C 129.407 270.594,130.153 271.136,130.798 271.794 C 131.443 272.451,132.490 273.218,133.124 273.499 C 133.758 273.780,134.277 274.122,134.277 274.259 C 134.277 274.582,139.044 277.856,139.514 277.856 C 139.711 277.856,139.933 278.015,140.007 278.209 C 140.175 278.649,145.369 282.046,147.624 283.191 C 148.180 283.473,148.727 283.829,148.840 283.982 C 148.952 284.134,150.226 284.886,151.671 285.653 C 158.592 289.326,160.799 290.537,161.153 290.856 C 161.364 291.047,161.842 291.203,162.215 291.203 C 162.589 291.203,163.102 291.454,163.356 291.759 C 163.609 292.065,164.633 292.544,165.630 292.823 C 166.626 293.102,167.442 293.469,167.442 293.637 C 167.442 293.806,168.079 294.064,168.857 294.210 C 169.636 294.356,170.273 294.628,170.273 294.814 C 170.273 295.000,171.092 295.358,172.093 295.610 C 173.094 295.862,173.913 296.224,173.913 296.415 C 173.913 296.606,174.641 296.879,175.531 297.021 C 176.421 297.163,177.149 297.451,177.149 297.661 C 177.149 297.871,177.831 298.162,178.665 298.308 C 179.499 298.454,180.585 298.827,181.078 299.135 C 181.570 299.444,182.298 299.698,182.696 299.699 C 183.093 299.701,183.906 299.956,184.503 300.268 C 185.099 300.579,186.191 300.963,186.929 301.121 C 187.667 301.279,188.506 301.597,188.793 301.829 C 189.080 302.060,190.248 302.397,191.389 302.577 C 192.531 302.758,193.570 303.076,193.699 303.284 C 193.828 303.492,194.843 303.796,195.956 303.960 C 197.068 304.124,198.077 304.410,198.198 304.596 C 198.319 304.782,199.820 305.143,201.534 305.398 C 203.249 305.653,204.651 306.001,204.651 306.170 C 204.651 306.340,205.698 306.609,206.977 306.769 C 208.256 306.928,209.625 307.231,210.019 307.441 C 210.414 307.652,212.313 308.003,214.240 308.222 C 216.167 308.441,217.961 308.801,218.226 309.021 C 218.492 309.241,220.232 309.536,222.095 309.676 C 223.957 309.816,225.586 310.091,225.715 310.287 C 225.843 310.483,228.118 310.808,230.770 311.009 C 233.422 311.210,236.775 311.608,238.220 311.893 C 241.980 312.635,290.263 312.637,294.034 311.895 C 295.480 311.611,298.646 311.208,301.068 311.000 C 303.491 310.791,305.675 310.463,305.922 310.269 C 306.168 310.076,307.705 309.811,309.337 309.681 C 310.969 309.551,312.523 309.263,312.790 309.042 C 313.057 308.820,314.902 308.437,316.891 308.189 C 318.879 307.942,320.602 307.596,320.718 307.420 C 320.835 307.243,322.015 306.975,323.341 306.822 C 324.668 306.670,325.854 306.382,325.977 306.183 C 326.100 305.983,327.426 305.607,328.924 305.346 C 330.422 305.085,331.648 304.732,331.648 304.561 C 331.648 304.390,332.558 304.129,333.670 303.982 C 334.783 303.834,335.693 303.551,335.693 303.352 C 335.693 303.153,336.694 302.766,337.917 302.492 C 339.141 302.219,340.142 301.850,340.142 301.673 C 340.142 301.496,340.779 301.232,341.557 301.086 C 342.336 300.939,342.973 300.678,342.973 300.504 C 342.973 300.331,343.473 300.067,344.085 299.919 C 346.106 299.429,351.466 296.851,351.466 296.369 C 351.466 296.197,351.691 296.057,351.966 296.057 C 352.681 296.057,356.780 293.964,357.710 293.124 C 358.141 292.735,358.655 292.417,358.851 292.417 C 359.048 292.417,359.462 292.189,359.772 291.911 C 360.635 291.137,361.191 290.715,363.600 289.006 C 364.823 288.137,366.006 287.223,366.229 286.975 C 366.451 286.726,367.224 286.107,367.947 285.600 C 368.670 285.092,369.262 284.416,369.262 284.098 C 369.262 283.779,369.505 283.519,369.803 283.519 C 370.252 283.519,377.755 276.099,377.755 275.655 C 377.755 275.498,379.583 273.303,380.688 272.134 C 381.077 271.722,381.395 271.304,381.395 271.204 C 381.395 271.104,381.850 270.532,382.406 269.931 C 382.963 269.331,383.418 268.672,383.418 268.466 C 383.418 268.260,383.645 267.838,383.923 267.528 C 384.853 266.491,385.234 265.933,385.844 264.712 C 386.177 264.044,386.556 263.407,386.686 263.296 C 386.816 263.185,387.723 261.729,388.702 260.061 C 389.680 258.392,390.620 256.967,390.791 256.892 C 390.962 256.818,391.102 256.422,391.102 256.011 C 391.102 255.601,391.377 254.991,391.712 254.655 C 392.547 253.820,391.822 253.482,390.428 254.055 C 389.100 254.602,355.179 255.078,350.818 254.611 C 346.379 254.136,346.844 259.651,346.613 204.739 L 346.411 156.724 334.186 156.617 L 321.961 156.510 321.850 194.837 L 321.739 233.165 320.646 236.159 C 317.294 245.340,310.631 251.362,301.083 253.838 C 296.541 255.015,280.859 254.892,276.441 253.644 C 266.434 250.816,259.753 244.159,257.107 234.378 C 256.816 233.301,256.594 220.049,256.444 194.742 L 256.218 156.724 244.085 156.724 L 231.951 156.724 231.734 194.944 C 231.491 237.478,231.724 234.088,228.627 240.161 C 226.048 245.220,221.187 249.797,215.921 252.126 C 207.261 255.956,189.115 255.675,180.661 251.581 L 179.117 250.833 176.616 251.966 C 168.314 255.726,149.935 255.781,141.962 252.069 C 134.457 248.575,129.581 242.683,127.154 234.173 C 126.453 231.717,126.396 229.117,126.279 194.094 L 126.153 156.640 121.461 156.409 C 118.880 156.282,116.659 156.009,116.524 155.803 C 116.389 155.597,115.010 155.301,113.459 155.146 C 111.908 154.990,110.543 154.715,110.426 154.535 C 110.308 154.355,109.042 154.003,107.612 153.754 C 106.182 153.505,104.908 153.138,104.781 152.939 C 104.654 152.739,103.777 152.447,102.831 152.289 C 101.886 152.131,101.112 151.844,101.112 151.651 C 101.112 151.458,100.488 151.183,99.725 151.040 C 98.962 150.897,98.246 150.542,98.135 150.252 C 97.877 149.580,98.272 148.028,98.701 148.028 C 98.881 148.028,99.237 147.391,99.494 146.613 C 99.751 145.834,100.115 145.197,100.303 145.197 C 100.490 145.197,100.772 144.606,100.929 143.883 C 101.086 143.160,101.352 142.477,101.521 142.366 C 101.950 142.083,103.943 135.644,103.943 134.539 C 103.943 134.039,104.120 133.453,104.336 133.237 C 106.195 131.378,106.205 106.370,104.347 106.370 C 104.187 106.370,103.957 105.406,103.836 104.229 C 103.605 101.993,101.941 96.560,101.416 96.326 C 101.249 96.252,101.112 95.674,101.112 95.041 C 101.112 94.408,100.854 93.631,100.538 93.315 C 100.221 92.999,99.759 91.985,99.511 91.062 C 99.262 90.139,98.904 89.383,98.715 89.383 C 98.526 89.383,98.254 88.759,98.111 87.997 C 97.968 87.235,97.715 86.552,97.548 86.480 C 97.381 86.409,96.720 85.303,96.079 84.024 C 95.438 82.745,94.773 81.699,94.602 81.699 C 94.431 81.699,94.162 81.293,94.005 80.796 C 93.660 79.709,92.207 77.577,91.507 77.129 C 91.229 76.951,91.001 76.634,91.001 76.425 C 91.001 74.024,88.637 74.039,84.732 76.465 M152.477 192.467 L 152.477 228.413 153.741 228.665 C 155.351 228.987,163.711 228.986,164.914 228.663 L 165.824 228.419 165.824 192.471 L 165.824 156.522 159.151 156.522 L 152.477 156.522 152.477 192.467 M192.113 192.325 L 192.113 228.129 193.151 228.524 C 194.277 228.952,203.071 229.060,204.550 228.663 L 205.460 228.419 205.460 192.471 L 205.460 156.522 198.787 156.522 L 192.113 156.522 192.113 192.325 M282.305 192.316 L 282.305 228.129 283.343 228.524 C 284.691 229.036,293.673 229.036,295.021 228.523 L 296.061 228.128 295.958 192.426 L 295.854 156.724 289.080 156.613 L 282.305 156.502 282.305 192.316 M372.497 197.513 L 372.497 228.413 373.761 228.665 C 375.753 229.064,384.063 228.960,385.214 228.523 L 386.254 228.127 386.150 197.481 L 386.047 166.835 379.272 166.724 L 372.497 166.613 372.497 197.513 " stroke="none" fill="#040c34" fill-rule="evenodd"></path></g></svg>
