<svg width="188.067" height="188.067" xmlns="http://www.w3.org/2000/svg"><g transform="translate(-2.365 -2.305)"><ellipse style="fill:#fff" cx="95.593" cy="97.22" rx="80.949" ry="80.136"/><path style="fill:#685e7a;stroke:none" d="M82 3.439C69.64 5.369 57.68 9.72 47 16.204 4.723 41.873-10.153 100.031 14.429 143 26.918 164.83 47.26 179.635 71 186.975c13.443 4.155 29.199 4.141 43 1.88 11.844-1.941 23.956-7.065 34-13.554 10.132-6.547 19.085-15.405 25.961-25.301C220.047 83.667 161.677-9.005 82 3.439m-1 29.847c28.357-3.254 51.147 22.825 49.961 49.714-.309 6.994-8.409 19.199-6.419 25 4.82 14.05 24.298 21.933 29.132 35.996 1.64 4.772-8.442 12.966-12.659 13.748-4.287.794-8.245-5.987-10.594-8.744-6.361-7.466-14.553-21.87-23.425-26.184-4.449-2.163-13.076 2.522-17.996 3.013-11.57 1.157-23.554-1.783-33-8.614-36.448-26.361-16.57-79.157 25-83.929m0 15.157c-41.712 6.018-34.728 67.701 7 62.268 40.626-5.29 32.871-68.021-7-62.268z"/></g></svg>