<svg viewBox="0 0 128 128" xmlns="http://www.w3.org/2000/svg" xml:space="preserve" style="fill-rule:evenodd;clip-rule:evenodd;stroke-linejoin:round;stroke-miterlimit:2"><path d="M63.692 64.781s20.812.75 30.375 9c9.562 8.25 16.125 24 13.312 37.688-5.625-1.313-29.625-5.438-39.375-17.438s-9.375-20.437-8.25-25.5c1.125-5.062 3.938-3.75 3.938-3.75" style="fill:#1c9cf3;fill-rule:nonzero"/><path d="M60.044 68.582c-.475 2.139-.988 5.498.046 9.953 1.125 4.848 3.801 10.068 8.198 15.31 10.06 11.993 38.391 16.857 38.734 16.932 1.078-6.234.351-12.729-2.174-19.516-2.494-6.705-6.5-12.669-11.279-16.793-9.415-8.122-30.26-8.963-30.469-8.971l-.215-.007-.155-.081c-.002 0-.177-.068-.418-.068-.998 0-1.803 1.151-2.268 3.241z" style="fill:url(#a);fill-rule:nonzero"/><path d="M58.254 64.781s2.625 5.438-3.562 13.688c-6.188 8.25-19.125 21.562-51.375 18.75 1.125-7.688 6.75-15.563 12.937-21.188 6.188-5.625 20.063-11.437 29.25-11.625 9.188-.187 12.75.375 12.75.375" style="fill:#04bbf3;fill-rule:nonzero"/><path d="M45.667 65.135c-4.286.086-10.037 1.469-15.783 3.791-5.597 2.263-10.53 5.128-13.534 7.859-6.762 6.148-11.116 13.417-12.413 19.94 2.596.201 7.447.302 7.447.302 11.549 0 21.195-2.117 29.11-6.626 7.017-3.996 11.231-8.995 13.79-12.407 4.909-6.545 4.149-11.122 3.717-12.555-1.08-.116-3.81-.344-8.669-.344-1.165 0-2.398.013-3.665.04z" style="fill:url(#b);fill-rule:nonzero"/><path d="M123.879 45.656s-3.75 10.875-22.125 16.125-38.062 1.875-38.062 1.875 4.687-12.375 18.187-18.187c13.5-5.813 37.313-.563 42 .187" style="fill:#02bef3;fill-rule:nonzero"/><path d="M81.544 46.68C70.556 51.411 65.37 60.567 63.849 63.735c2.266.309 7.463.901 13.983.901 8.656 0 16.566-1.005 23.51-2.989 14.825-4.235 20.235-12.672 21.72-15.505-.243-.043-17.126-3.378-26.758-3.378-6.904 0-10.593 2.121-14.76 3.916z" style="fill:url(#c);fill-rule:nonzero"/><path d="M57.921 65.406s-26.74-1.259-42.436-12.71C-.21 41.245.152 37.47.152 37.47s17.598-.054 26.286 3.078c8.688 3.133 22.335 11.948 31.483 24.858" style="fill:#02bef3;fill-rule:nonzero"/><path d="M16.409 52.486c6.069 4.428 13.396 7.559 22.006 9.665l.004.001c9.149 1.098 16.735 2.791 18.559 2.946-4.016-5.462-9.015-10.404-14.381-14.517-5.193-3.99-10.674-7.143-15.228-8.943a32.686 32.686 0 0 0-2.662-.915C16.689 38.326 3.242 38.17 1.174 38.14c.509.942 2.299 4.909 15.235 14.346z" style="fill:url(#d);fill-rule:nonzero"/><path d="M58.113 67.998c2.377.304 3.66 5.62 2.862 11.865-.798 6.244-3.376 11.067-5.754 10.763-2.377-.303-3.66-5.62-2.862-11.864.798-6.245 3.376-11.068 5.754-10.764z" style="fill:url(#e)"/><path d="M61.629 64.651c-7.957 1.497 3.291 37.119 15.337 42.529 23.156 10.401 35.993-9.611 35.993-16.859 0-7.249-31.885-29.326-51.33-25.67z" style="fill:url(#f);fill-rule:nonzero"/><path d="M50.386 74.833c-2.895 5.261 20.365 23.165 30.768 21.166 10.402-2 24.271-12.529 23.192-18.252-1.079-5.724-19.995-21.583-35.132-15.913-9.928 3.719-15.933 7.738-18.828 12.999z" style="fill:url(#g);fill-rule:nonzero"/><path d="M60.31 77.16c-2.178 5.597 13.079 21.534 23.128 18.182 10.048-3.352 22.409-15.617 20.586-21.148-1.824-5.532-22.664-18.761-36.922-11.146-9.351 4.994-4.615 8.515-6.792 14.112z" style="fill:url(#h);fill-rule:nonzero"/><path d="M58.727 74.603c-1.855 4.721 11.081 18.141 19.616 15.304 8.535-2.837 19.043-13.192 17.501-17.853-1.542-4.662-19.221-15.793-31.334-9.357-7.946 4.221-3.928 7.185-5.783 11.906z" style="fill:url(#i);fill-rule:nonzero"/><path d="M61.553 74.101c-1.577 4.793-19.173 24.596-31.313 27.374C18.1 104.254 6.148 91.553 5.029 85.69 3.91 79.828 22.231 63.118 41.004 61.67c12.313-.95 23.195 4.394 20.549 12.431" style="fill:url(#j);fill-rule:nonzero"/><path d="M61.211 71.442c-1.214 5.581-17.369 27.784-29.357 30.15C19.865 103.96 6.866 87.919 5.287 80.856c-1.579-7.063 15.545-25.529 34.304-25.799 12.305-.176 23.657 7.026 21.62 16.385" style="fill:url(#k);fill-rule:nonzero"/><path d="M52.51 74.882c-1.717 3.102-15.803 13.833-23.882 13.516-8.079-.316-13.708-11.577-13.531-15.946.177-4.369 14.254-12.769 26.319-10.259 7.913 1.647 13.974 7.488 11.094 12.689" style="fill:url(#l);fill-rule:nonzero"/><path d="M34.746 69.666c-3.518.435-20.481-4.645-24.977-11.365-4.497-6.719 1.299-17.895 4.937-20.322 3.637-2.426 18.71 4.018 23.777 15.251 3.322 7.368 2.164 15.705-3.737 16.436" style="fill:url(#m);fill-rule:nonzero"/><path d="M96.436 40.499c15.231-2.015 28.385 2.308 29.356 9.649.971 7.34-10.605 14.936-25.836 16.951-15.231 2.015-28.385-2.308-29.356-9.648-.971-7.341 10.606-14.937 25.836-16.952z" style="fill:url(#n)"/><path d="M99.526 41.492c13.736 1.417 24.292 8.341 23.559 15.452-.734 7.111-12.482 11.734-26.218 10.316-13.737-1.417-24.293-8.341-23.559-15.452.733-7.111 12.481-11.734 26.218-10.316z" style="fill:url(#o)"/><path d="M89.733 43.795c11.582-1.429 21.602 2.408 22.361 8.563.76 6.154-8.027 12.311-19.609 13.74-11.581 1.429-21.601-2.407-22.36-8.562-.76-6.154 8.027-12.311 19.608-13.741z" style="fill:url(#p)"/><path d="M59.353 65.162c.022.369.978 7.846-5.49 10.654-5.003 2.171-11.154 3.242-24.792-2.947-13.638-6.189-18.377-15.18-18.377-15.18s7.628 2.802 12.367 3.153c4.739.351 16.99 2.102 20.11 2.685 3.121.585 8.669.117 10.749-.349 2.081-.468 5.202-1.752 5.433 1.984" style="fill:#b3c3ce;fill-rule:nonzero"/><path d="M29.071 72.494c13.639 6.188 19.79 5.117 24.792 2.948 6.468-2.809 5.512-10.287 5.49-10.655-.232-3.736-3.352-2.452-5.432-1.984-2.081.467-7.49.137-11.979-.178-5.344-.375-13.969-1.5-18.88-2.158-4.71-.631-12.368-3.153-12.368-3.153s4.74 8.991 18.377 15.18z" style="fill:url(#q);fill-rule:nonzero"/><path d="M55.262 58.355s-4.342-3.433-7.875-7.169c-3.534-3.735-14.943-14.538-17.77-17.466-2.826-2.928-10.5-12.924-11.51-17.164-2.322 5.149-3.836 14.539-1.009 23.626 2.826 9.087 9.39 15.648 18.072 19.284 8.683 3.634 16.255 3.432 18.375 3.432 2.121 0 5.049-1.413 1.717-4.543" style="fill:#f5f6f2;fill-rule:nonzero"/><path d="M17.473 40.182c2.827 9.086 9.39 15.649 18.073 19.283 8.682 3.635 16.254 3.687 18.375 3.687 1.197 0 4.989-.152 5.177-.715.403-1.21-1.926-2.107-3.375-3.468-3.848-3.042-3.776-3.358-7.961-7.782-3.534-3.736-14.943-14.539-17.769-17.467-2.827-2.928-10.502-12.923-11.511-17.165-2.322 5.15-3.837 14.54-1.009 23.627z" style="fill:url(#r);fill-rule:nonzero"/><path d="M103.337 21.668c-3.75 3.375-10.395 7.863-16.77 11.988-6.375 4.125-10.5 11.063-15.375 18.375-4.875 7.313-9.75 10.875-9.75 10.875s7.687 1.125 15 1.125c11.256 0 24-9.375 28.687-14.437 4.688-5.063 7.838-13.311 7.875-21.75.043-9.861-4.519-11.792-4.519-11.792s-1.398 2.24-5.148 5.615z" style="fill:url(#s);fill-rule:nonzero"/><path d="M103.865 20.907c-3.751 3.375-11.298 8.624-17.673 12.749-6.375 4.125-10.5 11.063-15.375 18.375-3.751 5.625-8.444 8.724-10.41 10.329-.59.482-.934 1.765-.934 1.765 6.769.99 8.351-.094 16.594-.094 11.255 0 24-9.375 28.687-14.437 4.688-5.063 7.688-13.313 7.875-21.75.188-8.438-4.125-11.813-4.125-11.813s-.89 1.501-4.639 4.876z" style="fill:url(#t);fill-rule:nonzero"/><path d="M42.638 45.578c8.133 5.258 12.662 12.735 10.107 16.686-2.555 3.952-11.232 2.89-19.365-2.368-8.132-5.259-12.661-12.736-10.106-16.687 2.555-3.951 11.232-2.89 19.364 2.369z" style="fill:url(#u)"/><path d="M41.855 45.022c7.726 5.84 12.065 13.139 9.684 16.29-2.382 3.151-10.588.968-18.314-4.871-7.726-5.839-12.065-13.139-9.684-16.29 2.382-3.151 10.588-.968 18.314 4.871z" style="fill:url(#v)"/><path d="M76.747 50.134c8.038-4.494 15.957-5.649 17.674-2.578 1.717 3.071-3.415 9.213-11.452 13.706-8.038 4.494-15.958 5.649-17.674 2.578-1.717-3.071 3.414-9.213 11.452-13.706z" style="fill:url(#w)"/><path d="M79.138 46.315c7.951-4.445 15.94-5.31 17.83-1.93 1.889 3.38-3.032 9.733-10.983 14.178-7.951 4.445-15.94 5.31-17.83 1.93-1.889-3.38 3.032-9.733 10.983-14.178z" style="fill:url(#x)"/><path d="M78.132 49.395c7.5-5.169 15.482-6.621 17.812-3.24 2.33 3.381-1.867 10.323-9.367 15.492-7.5 5.17-15.481 6.622-17.812 3.241-2.33-3.381 1.867-10.323 9.367-15.493z" style="fill:url(#y)"/><path d="M87.314 42.046c2.878-6.448 7.508-10.659 10.332-9.399 2.825 1.261 2.781 7.519-.098 13.967-2.878 6.448-7.508 10.659-10.332 9.399-2.824-1.261-2.78-7.52.098-13.967z" style="fill:url(#z)"/><path d="M24.702 32.262c-.805 5.902.586 11.977 3.363 15.977 2.778 4.001 10.763 11.808 18.631 12.917 5.111.72 10.596.69 10.596.69s-3.058-2.97-5.745-8.561c-2.687-5.591-4.888-10.846-8.937-14.358-4.05-3.511-8.254-7.303-10.543-10.031-2.288-2.729-3.044-4.431-3.044-4.431s-3.38.899-4.321 7.797z" style="fill:url(#A);fill-rule:nonzero"/><path d="M24.965 32.299c-.7 5.916.585 11.978 3.363 15.978 2.778 3.999 10.762 11.808 18.63 12.915 5.762.813 6.31 1.128 11.139 1.102 0 0-3.6-3.381-6.288-8.972-2.688-5.591-4.887-10.847-8.937-14.358-4.05-3.51-8.808-7.923-11.097-10.651-2.289-2.728-2.764-3.865-2.764-3.865s-3.347 1.934-4.046 7.851z" style="fill:url(#B);fill-rule:nonzero"/><path d="M55.714 66.066c1.06 3.068-2.837 7.203-8.698 9.227-5.86 2.024-11.478 1.176-12.538-1.892-1.059-3.069 2.838-7.203 8.698-9.227s11.478-1.176 12.538 1.892z" style="fill:url(#C)"/><path d="M53.204 68.127c.12 2.902-4.178 5.44-9.591 5.663-5.413.223-9.905-1.952-10.024-4.854-.12-2.903 4.178-5.44 9.591-5.664 5.413-.223 9.905 1.953 10.024 4.855z" style="fill:url(#D)"/><path d="M58.03 66.776c.851 2.014-2.078 5.179-6.538 7.064-4.459 1.885-8.771 1.78-9.622-.233-.851-2.014 2.078-5.179 6.538-7.064 4.46-1.885 8.771-1.78 9.622.233z" style="fill:url(#E)"/><path d="M31.673 65.694c2.166 3.131 5.442 5.398 8.477 6.086 3.035.689 10.168.927 14.358-1.942 2.722-1.865 5.295-4.244 5.295-4.244s-2.723-.082-6.401-1.561c-3.679-1.478-6.984-3.008-10.407-2.918-3.425.09-7.043.115-9.299-.185-2.257-.299-3.348-.777-3.348-.777s-1.205 1.882 1.325 5.541z" style="fill:url(#F);fill-rule:nonzero"/><path d="M31.813 65.599c2.221 3.091 5.441 5.396 8.476 6.086 3.036.688 10.17.928 14.358-1.942 3.068-2.103 3.462-2.19 5.729-4.285 0 0-3.155-.042-6.835-1.52-3.679-1.478-6.982-3.009-10.407-2.918-3.424.091-7.572.061-9.828-.239-2.256-.3-2.97-.631-2.97-.631s-.745 2.356 1.477 5.449z" style="fill:url(#G);fill-rule:nonzero"/><path d="M98.926 64.619c-3.373 1.42-18.374.622-23.876 0-5.503-.621-11.189-.526-12.25-.621-3.796-.342-3.106.887-3.373 4.703-.621 10.563 3.373 12.694 6.302 13.138 2.93.443 5.593-.976 5.593-.976s29.024-13.137 31.687-14.558c.496-2.725.376-3.586-.232-3.586-.7 0-2.047 1.14-3.851 1.9z" style="fill:url(#H);fill-rule:nonzero"/><path d="M71.826 68.086c4.948 3.511 7.617 8.26 5.957 10.598-1.659 2.338-7.023 1.386-11.971-2.126-4.947-3.511-7.616-8.261-5.957-10.599 1.66-2.338 7.024-1.385 11.971 2.127z" style="fill:url(#I)"/><path d="M70.546 68.086c3.798 2.696 5.535 6.783 3.875 9.121-1.659 2.338-6.09 2.047-9.889-.649-3.798-2.696-5.534-6.783-3.875-9.121 1.66-2.338 6.091-2.047 9.889.649z" style="fill:url(#J)"/><path d="M74.322 68.379c3.799 2.696 5.535 6.783 3.876 9.121-1.66 2.338-6.091 2.047-9.889-.649-3.799-2.695-5.535-6.783-3.875-9.121 1.659-2.338 6.09-2.047 9.888.649z" style="fill:url(#K)"/><path d="M61.502 69.307c2.637 4.341 9.236 7.059 12.286 7.682 3.05.622 6.968-.097 10.231-2.06 3.811-2.292 3.487-4.503 3.487-4.503s-1.191-.014-3.37-.669c-2.18-.656-5.468-2.167-8.551-3.659s-6.724-1.457-10.686-1.624c-3.961-.167-6.476-1.212-6.476-1.212s1.366 3.228 3.079 6.045z" style="fill:url(#L);fill-rule:nonzero"/><path d="M61.415 69.164c2.635 4.34 9.235 7.059 12.285 7.68 3.05.622 6.933-.154 10.23-2.058 3.298-1.903 3.588-4.357 3.588-4.357s-.786.008-2.965-.647c-2.18-.656-5.972-2.337-9.056-3.829-3.083-1.491-6.724-1.457-10.686-1.623-3.961-.168-6.854-1.429-6.854-1.429 1.203 2.843 1.527 3.085 3.458 6.263z" style="fill:url(#M);fill-rule:nonzero"/><path d="M102.035 66.75s1.219-.938 1.125-2.813c-.093-1.874.375-4.687-9.562-10.781-3.281 5.907-14.625 21.657-19.594 25.219-4.969 3.563-5.765 3.442-5.765 3.442s2.871-.343 5.39-2.223c2.722-2.032 28.406-12.844 28.406-12.844" style="fill:#cbd3dd;fill-rule:nonzero"/><path d="M74.379 78.563c-3.085 2.212-4.026 2.655-4.716 2.945.257-.077 2.189-.583 4.341-1.726 3-1.594 28.406-12.844 28.406-12.844 0-.001 1.219-.938 1.125-2.813-.093-1.875.375-4.687-9.562-10.781-3.281 5.906-14.625 21.657-19.594 25.219z" style="fill:url(#N);fill-rule:nonzero"/><path d="M58.915 67.448c-.618-.001-6.022 9.818-3.491 21.069 0-.001 3.615-4.339 4.058-15.247.183-4.5-.133-5.823-.567-5.823z" style="fill:url(#O);fill-rule:nonzero"/><path d="M44.829 36.179c1.272-1.24 5.597-.248 6.615 1.116.995 1.333 6.118 6.458 5.875 14.213.788.033 1.832.17 3.031.17 1.035 0 1.994-.102 2.781-.152-.252-7.765 4.878-12.897 5.873-14.231 1.017-1.364 5.343-2.356 6.615-1.116 1.273 1.24-2.036 1.116-3.562.744-4.941 1.094-8.097 12.039-8.77 14.594 1.153-.063 1.897.018 1.897.781 0 1.156-1.619 3.021-3.872 3.221.092.464.627 3.053.024 5.777-.245 1.107-2.519 2.36-2.519 2.36-2.415-7.912-.023-8.682.01-8.748-1.978-.296-3.058-1.549-3.058-2.61 0-.676.518-.817 1.388-.796-.681-2.582-3.835-13.487-8.765-14.579-1.527.372-4.835.496-3.563-.744" style="fill:#00c6f9;fill-rule:nonzero"/><path d="M69.004 37.669c-.995 1.335-6.125 6.466-5.873 14.232-.787.05-1.746.152-2.781.152-1.199 0-2.243-.137-3.031-.17.243-7.755-4.88-12.88-5.874-14.214-1.018-1.364-5.344-2.355-6.616-1.115-1.272 1.24 2.036 1.115 3.563.743 4.93 1.093 8.084 11.998 8.765 14.58-.87-.02-1.387.12-1.387.796 0 1.061.786 2.39 2.763 2.684-.033.066-1.658 1.242.284 8.674 0 0 3.102-.292 2.628-6.64a14.773 14.773 0 0 0-.223-1.782c2.252-.201 3.962-1.781 3.962-2.936 0-.763-.744-.844-1.897-.781.674-2.555 3.829-13.5 8.77-14.595 1.527.372 4.835.497 3.562-.743-.408-.398-1.13-.566-1.956-.566-1.75 0-3.968.755-4.659 1.681z" style="fill:url(#P);fill-rule:nonzero"/><path d="M48.011 24.197c-.937 1.89 2.368 2.171 3.493 1.605 3.635 1.665 5.958 18.288 6.46 22.223-.641-.031-1.022.183-1.022 1.213 0 1.617.873 3.929 2.329 4.38l-.037.16s-2.48 4.628-.417 14.753c0 0 2.307-5.062 2.307-12.099 0-1.119-.096-2.01-.165-2.719 1.66-.305 2.92-2.713 2.92-4.475 0-1.161-.547-1.285-1.397-1.189.387-4.644 1.969-20.385 6.463-22.247 1.125.566 4.286.354 3.348-1.536-.937-1.89-4.255-.383-5.571 1.387-1.445 1.942-4.932 10.629-4.747 22.466-.579.076-.896.174-1.658.174-.883 0-1.653-.208-2.234-.259.179-11.822-3.677-19.606-4.329-21.666-.616-1.949-2.533-3.101-4.027-3.101-.755 0-1.401.295-1.716.93z" style="fill:url(#Q);fill-rule:nonzero"/><path d="M48.011 24.565c-.937 1.874 2.368 2.154 3.493 1.591 3.635 1.652 5.958 18.142 6.46 22.047-.641-.031-1.022.181-1.022 1.203 0 1.604.873 3.897 2.329 4.343l-.037.159s-4.295 14.835-1.471 24.549c0 0 3.709-12.317 3.361-21.915a44.73 44.73 0 0 0-.165-2.697c1.66-.303 2.92-2.691 2.92-4.439 0-1.153-.547-1.276-1.397-1.181.387-4.607 1.969-20.222 6.463-22.069 1.125.563 4.286.352 3.348-1.523-.937-1.875-4.255-.38-5.571 1.375-1.445 1.927-4.932 10.545-4.747 22.287-.579.075-.896.174-1.658.174-.883 0-1.653-.207-2.234-.258.179-11.728-3.677-19.448-4.329-21.492-.616-1.934-2.533-3.077-4.027-3.077-.754.001-1.401.293-1.716.923z" style="fill:url(#R);fill-rule:nonzero"/><path d="M64.284 58.419s3.743-2.96 6.791-6.181c3.047-3.222 12.885-12.537 15.323-15.063 2.438-2.524 9.055-11.144 9.926-14.801 2.003 4.441 3.308 12.538.87 20.373-2.437 7.836-8.097 13.496-15.584 16.63-7.488 3.134-14.018 2.96-15.845 2.96-1.829 0-4.354-1.219-1.481-3.918" style="fill:#f5f6f2;fill-rule:nonzero"/><path d="M86.075 37.175c-2.439 2.525-12.276 11.84-15.323 15.062-3.609 3.816-3.547 4.088-6.865 6.711-1.25 1.174-3.205 2.508-2.946 3.073.259.564 3.467.316 4.5.316 1.828 0 8.358.174 15.846-2.96 7.487-3.135 13.146-8.794 15.584-16.629 2.439-7.836 1.132-15.933-.871-20.374-.87 3.658-7.487 12.277-9.925 14.801z" style="fill:url(#S);fill-rule:nonzero"/><defs><radialGradient id="a" cx="0" cy="0" r="1" gradientUnits="userSpaceOnUse" gradientTransform="matrix(-66.1387 0 0 66.1387 60.58 63.95)"><stop offset="0" style="stop-color:#3d4ead;stop-opacity:1"/><stop offset="1" style="stop-color:#00c0f3;stop-opacity:1"/></radialGradient><radialGradient id="c" cx="0" cy="0" r="1" gradientUnits="userSpaceOnUse" gradientTransform="matrix(-66.1374 0 0 66.1374 60.58 63.95)"><stop offset="0" style="stop-color:#3d4ead;stop-opacity:1"/><stop offset="1" style="stop-color:#00c0f3;stop-opacity:1"/></radialGradient><radialGradient id="d" cx="0" cy="0" r="1" gradientUnits="userSpaceOnUse" gradientTransform="matrix(-52.6361 -107.604 -12.8428 112.241 48.786 138.585)"><stop offset="0" style="stop-color:#0072e9;stop-opacity:1"/><stop offset="1" style="stop-color:#00fdfe;stop-opacity:1"/></radialGradient><radialGradient id="e" cx="0" cy="0" r="1" gradientUnits="userSpaceOnUse" gradientTransform="matrix(4.0052 .52656 -1.46889 11.3112 56.667 79.312)"><stop offset="0" style="stop-color:#153e68;stop-opacity:.34"/><stop offset="1" style="stop-color:#153e68;stop-opacity:.01"/></radialGradient><radialGradient id="f" cx="0" cy="0" r="1" gradientUnits="userSpaceOnUse" gradientTransform="matrix(-10.3568 10.999 26.0381 24.5177 74.536 78.391)"><stop offset="0" style="stop-color:#00336f;stop-opacity:1"/><stop offset="1" style="stop-color:#00336f;stop-opacity:0"/></radialGradient><radialGradient id="g" cx="0" cy="0" r="1" gradientUnits="userSpaceOnUse" gradientTransform="matrix(-6.51962 11.4057 24.5674 14.4231 72.752 72.772)"><stop offset="0" style="stop-color:#00336f;stop-opacity:.5"/><stop offset="1" style="stop-color:#00336f;stop-opacity:0"/></radialGradient><radialGradient id="h" cx="0" cy="0" r="1" gradientUnits="userSpaceOnUse" gradientTransform="matrix(-4.96046 12.1651 26.2531 11.0614 72.05 73.424)"><stop offset="0" style="stop-color:#00336f;stop-opacity:.5"/><stop offset="1" style="stop-color:#00336f;stop-opacity:0"/></radialGradient><radialGradient id="i" cx="0" cy="0" r="1" gradientUnits="userSpaceOnUse" gradientTransform="matrix(-4.22491 10.2622 22.277 9.29717 68.699 71.44)"><stop offset="0" style="stop-color:#00336f;stop-opacity:1"/><stop offset="1" style="stop-color:#00336f;stop-opacity:0"/></radialGradient><radialGradient id="j" cx="0" cy="0" r="1" gradientUnits="userSpaceOnUse" gradientTransform="matrix(-9.78901 -10.0451 -28.1355 22.8978 42.69 72.541)"><stop offset="0" style="stop-color:#002d68;stop-opacity:1"/><stop offset="1" style="stop-color:#002d68;stop-opacity:0"/></radialGradient><radialGradient id="k" cx="0" cy="0" r="1" gradientUnits="userSpaceOnUse" gradientTransform="matrix(-10.6184 -12.7117 -26.5102 25.0697 42.129 68.125)"><stop offset="0" style="stop-color:#002d68;stop-opacity:1"/><stop offset="1" style="stop-color:#002d68;stop-opacity:0"/></radialGradient><radialGradient id="l" cx="0" cy="0" r="1" gradientUnits="userSpaceOnUse" gradientTransform="matrix(-4.66402 -8.96904 -21.2029 10.9396 40.843 70.222)"><stop offset="0" style="stop-color:#002d68;stop-opacity:1"/><stop offset="1" style="stop-color:#002d68;stop-opacity:0"/></radialGradient><radialGradient id="m" cx="0" cy="0" r="1" gradientUnits="userSpaceOnUse" gradientTransform="matrix(4.51007 -9.04744 -21.3185 -10.7126 31.653 57.489)"><stop offset="0" style="stop-color:#002d68;stop-opacity:1"/><stop offset="1" style="stop-color:#002d68;stop-opacity:0"/></radialGradient><radialGradient id="n" cx="0" cy="0" r="1" gradientUnits="userSpaceOnUse" gradientTransform="matrix(55.5618 -7.25333 2.08197 15.9483 70.59 57.38)"><stop offset="0" style="stop-color:#00326d;stop-opacity:1"/><stop offset="1" style="stop-color:#003b79;stop-opacity:0"/></radialGradient><radialGradient id="o" cx="0" cy="0" r="1" gradientUnits="userSpaceOnUse" gradientTransform="matrix(50.0892 5.26339 -1.61895 15.4438 73.315 51.74)"><stop offset="0" style="stop-color:#00326d;stop-opacity:1"/><stop offset="1" style="stop-color:#003b79;stop-opacity:0"/></radialGradient><radialGradient id="p" cx="0" cy="0" r="1" gradientUnits="userSpaceOnUse" gradientTransform="matrix(42.2509 -5.13094 1.62846 13.3715 70.118 57.477)"><stop offset="0" style="stop-color:#00326d;stop-opacity:1"/><stop offset="1" style="stop-color:#003b79;stop-opacity:0"/></radialGradient><radialGradient id="u" cx="0" cy="0" r="1" gradientUnits="userSpaceOnUse" gradientTransform="matrix(14.7354 9.52776 -4.62893 7.15901 38.01 52.737)"><stop offset="0" style="stop-color:#153e68;stop-opacity:1"/><stop offset="1" style="stop-color:#153e68;stop-opacity:0"/></radialGradient><radialGradient id="v" cx="0" cy="0" r="1" gradientUnits="userSpaceOnUse" gradientTransform="matrix(13.9988 10.5803 -4.31511 5.70934 37.54 50.732)"><stop offset="0" style="stop-color:#153e68;stop-opacity:1"/><stop offset="1" style="stop-color:#153e68;stop-opacity:0"/></radialGradient><radialGradient id="w" cx="0" cy="0" r="1" gradientUnits="userSpaceOnUse" gradientTransform="matrix(14.5634 -8.14176 3.11074 5.56427 79.858 55.698)"><stop offset="0" style="stop-color:#153e68;stop-opacity:1"/><stop offset="1" style="stop-color:#153e68;stop-opacity:0"/></radialGradient><radialGradient id="x" cx="0" cy="0" r="1" gradientUnits="userSpaceOnUse" gradientTransform="matrix(14.4062 -8.05386 3.42371 6.12408 82.562 52.44)"><stop offset="0" style="stop-color:#153e68;stop-opacity:1"/><stop offset="1" style="stop-color:#153e68;stop-opacity:0"/></radialGradient><radialGradient id="y" cx="0" cy="0" r="1" gradientUnits="userSpaceOnUse" gradientTransform="matrix(13.5894 -9.36638 4.22241 6.1262 82.355 55.521)"><stop offset="0" style="stop-color:#153e68;stop-opacity:1"/><stop offset="1" style="stop-color:#1a426b;stop-opacity:0"/></radialGradient><radialGradient id="z" cx="0" cy="0" r="1" gradientUnits="userSpaceOnUse" gradientTransform="matrix(5.21516 -11.6826 5.1171 2.2843 92.431 44.33)"><stop offset="0" style="stop-color:#153e68;stop-opacity:1"/><stop offset="1" style="stop-color:#1b436c;stop-opacity:0"/></radialGradient><radialGradient id="C" cx="0" cy="0" r="1" gradientUnits="userSpaceOnUse" gradientTransform="matrix(1.92018 5.55941 -10.6179 3.66735 45.096 69.733)"><stop offset="0" style="stop-color:#153e68;stop-opacity:1"/><stop offset="1" style="stop-color:#153e68;stop-opacity:0"/></radialGradient><radialGradient id="D" cx="0" cy="0" r="1" gradientUnits="userSpaceOnUse" gradientTransform="matrix(.21678 5.25887 -9.80783 .4043 43.397 68.531)"><stop offset="0" style="stop-color:#153e68;stop-opacity:1"/><stop offset="1" style="stop-color:#153e68;stop-opacity:0"/></radialGradient><radialGradient id="E" cx="0" cy="0" r="1" gradientUnits="userSpaceOnUse" gradientTransform="matrix(1.54211 3.64848 -8.0801 3.41524 49.95 70.192)"><stop offset="0" style="stop-color:#153e68;stop-opacity:1"/><stop offset="1" style="stop-color:#153e68;stop-opacity:0"/></radialGradient><radialGradient id="H" cx="0" cy="0" r="1" gradientUnits="userSpaceOnUse" gradientTransform="matrix(-16.9591 0 0 16.9591 81.34 72.322)"><stop offset="0" style="stop-color:#f9f9fa;stop-opacity:1"/><stop offset="1" style="stop-color:#f5f7f7;stop-opacity:1"/></radialGradient><radialGradient id="I" cx="0" cy="0" r="1" gradientUnits="userSpaceOnUse" gradientTransform="matrix(8.96408 6.36252 -3.00685 4.23632 68.82 72.322)"><stop offset="0" style="stop-color:#153e68;stop-opacity:1"/><stop offset="1" style="stop-color:#153e68;stop-opacity:0"/></radialGradient><radialGradient id="J" cx="0" cy="0" r="1" gradientUnits="userSpaceOnUse" gradientTransform="matrix(6.8821 4.88477 -3.00685 4.23632 67.54 72.322)"><stop offset="0" style="stop-color:#153e68;stop-opacity:1"/><stop offset="1" style="stop-color:#153e68;stop-opacity:0"/></radialGradient><radialGradient id="K" cx="0" cy="0" r="1" gradientUnits="userSpaceOnUse" gradientTransform="matrix(6.8821 4.88477 -3.00685 4.23632 71.316 72.615)"><stop offset="0" style="stop-color:#153e68;stop-opacity:1"/><stop offset="1" style="stop-color:#153e68;stop-opacity:0"/></radialGradient><radialGradient id="P" cx="0" cy="0" r="1" gradientUnits="userSpaceOnUse" gradientTransform="matrix(-18.2184 0 0 12.4951 60.224 50.01)"><stop offset="0" style="stop-color:#3f51b5;stop-opacity:1"/><stop offset="1" style="stop-color:#04bbf3;stop-opacity:1"/></radialGradient><linearGradient id="b" x1="0" y1="0" x2="1" y2="0" gradientUnits="userSpaceOnUse" gradientTransform="matrix(-54.7355 0 0 -32.1015 58.32 81.145)"><stop offset="0" style="stop-color:#3f51b4;stop-opacity:1"/><stop offset="1" style="stop-color:#00c0f3;stop-opacity:1"/></linearGradient><linearGradient id="q" x1="0" y1="0" x2="1" y2="0" gradientUnits="userSpaceOnUse" gradientTransform="matrix(-48.7206 0 0 48.7206 59.415 67.229)"><stop offset="0" style="stop-color:#f5f7fa;stop-opacity:1"/><stop offset=".53" style="stop-color:#f1f4f2;stop-opacity:1"/><stop offset="1" style="stop-color:#bad7e9;stop-opacity:1"/></linearGradient><linearGradient id="r" x1="0" y1="0" x2="1" y2="0" gradientUnits="userSpaceOnUse" gradientTransform="matrix(-43.2077 0 0 43.2077 59.144 39.73)"><stop offset="0" style="stop-color:#fafafa;stop-opacity:1"/><stop offset=".26" style="stop-color:#f1f6f8;stop-opacity:1"/><stop offset=".73" style="stop-color:#dce5eb;stop-opacity:1"/><stop offset="1" style="stop-color:#bbcfda;stop-opacity:1"/></linearGradient><linearGradient id="s" x1="0" y1="0" x2="1" y2="0" gradientUnits="userSpaceOnUse" gradientTransform="matrix(0 -47.9791 -47.9791 0 87.223 64.031)"><stop offset="0" style="stop-color:#fdfdff;stop-opacity:1"/><stop offset=".26" style="stop-color:#f1f2f2;stop-opacity:1"/><stop offset=".73" style="stop-color:#bfd2e0;stop-opacity:1"/><stop offset="1" style="stop-color:#afc0cc;stop-opacity:1"/></linearGradient><linearGradient id="t" x1="0" y1="0" x2="1" y2="0" gradientUnits="userSpaceOnUse" gradientTransform="matrix(0 -48.0543 -48.0543 0 86.429 64.086)"><stop offset="0" style="stop-color:#f1f6f6;stop-opacity:1"/><stop offset=".41" style="stop-color:#fdfdfd;stop-opacity:1"/><stop offset=".55" style="stop-color:#f5f8fa;stop-opacity:1"/><stop offset=".89" style="stop-color:#d6e1e7;stop-opacity:1"/><stop offset=".98" style="stop-color:#c3d3dd;stop-opacity:1"/><stop offset="1" style="stop-color:#c3d3dd;stop-opacity:1"/></linearGradient><linearGradient id="A" x1="0" y1="0" x2="1" y2="0" gradientUnits="userSpaceOnUse" gradientTransform="rotate(-81.981 54.187 7.519) scale(33.86716)"><stop offset="0" style="stop-color:#fdfdff;stop-opacity:1"/><stop offset=".26" style="stop-color:#f1f2f2;stop-opacity:1"/><stop offset=".73" style="stop-color:#bfd2e0;stop-opacity:1"/><stop offset="1" style="stop-color:#afc0cc;stop-opacity:1"/></linearGradient><linearGradient id="B" x1="0" y1="0" x2="1" y2="0" gradientUnits="userSpaceOnUse" gradientTransform="rotate(-180 29.049 21.686) scale(33.3203)"><stop offset="0" style="stop-color:#fafafa;stop-opacity:1"/><stop offset=".26" style="stop-color:#f1f6f8;stop-opacity:1"/><stop offset=".73" style="stop-color:#dce5eb;stop-opacity:1"/><stop offset="1" style="stop-color:#bbcfda;stop-opacity:1"/></linearGradient><linearGradient id="F" x1="0" y1="0" x2="1" y2="0" gradientUnits="userSpaceOnUse" gradientTransform="rotate(-124.418 44.376 22.987) scale(21.6448)"><stop offset="0" style="stop-color:#fdfdff;stop-opacity:1"/><stop offset=".26" style="stop-color:#f1f2f2;stop-opacity:1"/><stop offset=".73" style="stop-color:#bfd2e0;stop-opacity:1"/><stop offset="1" style="stop-color:#afc0cc;stop-opacity:1"/></linearGradient><linearGradient id="G" x1="0" y1="0" x2="1" y2="0" gradientUnits="userSpaceOnUse" gradientTransform="rotate(137.564 15.134 38.403) scale(21.2949)"><stop offset="0" style="stop-color:#fafafa;stop-opacity:1"/><stop offset=".26" style="stop-color:#f1f6f8;stop-opacity:1"/><stop offset=".73" style="stop-color:#dce5eb;stop-opacity:1"/><stop offset="1" style="stop-color:#bbcfda;stop-opacity:1"/></linearGradient><linearGradient id="L" x1="0" y1="0" x2="1" y2="0" gradientUnits="userSpaceOnUse" gradientTransform="scale(21.6443 -21.6443) rotate(31.277 7.542 3.587)"><stop offset="0" style="stop-color:#fdfdff;stop-opacity:1"/><stop offset=".26" style="stop-color:#f1f2f2;stop-opacity:1"/><stop offset=".73" style="stop-color:#bfd2e0;stop-opacity:1"/><stop offset="1" style="stop-color:#afc0cc;stop-opacity:1"/></linearGradient><linearGradient id="M" x1="0" y1="0" x2="1" y2="0" gradientUnits="userSpaceOnUse" gradientTransform="scale(21.29524 -21.29524) rotate(-66.741 -.45 -3.827)"><stop offset="0" style="stop-color:#fafafa;stop-opacity:1"/><stop offset=".26" style="stop-color:#f1f6f8;stop-opacity:1"/><stop offset=".73" style="stop-color:#dce5eb;stop-opacity:1"/><stop offset="1" style="stop-color:#bbcfda;stop-opacity:1"/></linearGradient><linearGradient id="N" x1="0" y1="0" x2="1" y2="0" gradientUnits="userSpaceOnUse" gradientTransform="scale(15.73487 -15.73487) rotate(-65.726 -.38 -5.847)"><stop offset="0" style="stop-color:#aebcd0;stop-opacity:1"/><stop offset=".22" style="stop-color:#859bb9;stop-opacity:1"/><stop offset=".53" style="stop-color:#a1b1c9;stop-opacity:1"/><stop offset="1" style="stop-color:#97a9c3;stop-opacity:1"/></linearGradient><linearGradient id="O" x1="0" y1="0" x2="1" y2="0" gradientUnits="userSpaceOnUse" gradientTransform="matrix(0 -21.0692 -21.0692 0 57.096 88.516)"><stop offset="0" style="stop-color:#c0cbda;stop-opacity:1"/><stop offset=".02" style="stop-color:#c0cbda;stop-opacity:1"/><stop offset=".11" style="stop-color:#d4dbe5;stop-opacity:1"/><stop offset=".45" style="stop-color:#f5f6f9;stop-opacity:1"/><stop offset=".59" style="stop-color:#fdfdfd;stop-opacity:1"/><stop offset="1" style="stop-color:#fcfdfd;stop-opacity:1"/></linearGradient><linearGradient id="Q" x1="0" y1="0" x2="1" y2="0" gradientUnits="userSpaceOnUse" gradientTransform="matrix(0 -45.2637 -45.2637 0 60.155 68.531)"><stop offset="0" style="stop-color:#afc0cc;stop-opacity:1"/><stop offset=".24" style="stop-color:#afc0cc;stop-opacity:1"/><stop offset=".74" style="stop-color:#f1f2f2;stop-opacity:1"/><stop offset="1" style="stop-color:#fdfdff;stop-opacity:1"/></linearGradient><linearGradient id="R" x1="0" y1="0" x2="1" y2="0" gradientUnits="userSpaceOnUse" gradientTransform="rotate(-90 65.136 5.025) scale(46.5257)"><stop offset="0" style="stop-color:#fafafa;stop-opacity:1"/><stop offset=".26" style="stop-color:#f1f6f8;stop-opacity:1"/><stop offset=".73" style="stop-color:#dce5eb;stop-opacity:1"/><stop offset="1" style="stop-color:#bbcfda;stop-opacity:1"/></linearGradient><linearGradient id="S" x1="0" y1="0" x2="1" y2="0" gradientUnits="userSpaceOnUse" gradientTransform="rotate(-90 70.955 -8.612) scale(39.9686)"><stop offset="0" style="stop-color:#f1f6f6;stop-opacity:1"/><stop offset=".41" style="stop-color:#fdfdfd;stop-opacity:1"/><stop offset=".55" style="stop-color:#f5f8fa;stop-opacity:1"/><stop offset=".89" style="stop-color:#d6e1e7;stop-opacity:1"/><stop offset=".98" style="stop-color:#c3d3dd;stop-opacity:1"/><stop offset="1" style="stop-color:#c3d3dd;stop-opacity:1"/></linearGradient></defs></svg>